<svg xmlns="http://www.w3.org/2000/svg" width="90" height="90"><rect width="100%" height="100%" fill="none"/><g class="currentLayer"><g fill="none" fill-rule="evenodd"><path fill="#0F9B74" d="M90.18 90.438h-5.807V82.76zM0 .259v8.297h11.075z"/><path fill="#0CDFA3" d="M44.673.259L90.18 45.557v44.881L0 .258z"/><path d="M31.276 18.906l3.19-3.19 1.885 1.884c.983.983 1.956 1.522 2.92 1.619.962.096 1.967-.38 3.015-1.427.959-.959 1.402-1.932 1.33-2.92-.072-.986-.554-1.925-1.445-2.816L38.307 8.19l-8.872 8.873 1.841 1.842zm6.447-2.992l-1.727-1.727 2.612-2.613 1.727 1.728c.438.437.68.876.726 1.315.046.44-.162.89-.623 1.351-.462.462-.92.677-1.376.647-.455-.03-.901-.263-1.339-.7zm2.474 12.37c1.128 1.127 2.31 1.626 3.548 1.496 1.238-.13 2.339-.678 3.302-1.64.947-.948 1.49-2.045 1.631-3.293.14-1.248-.353-2.436-1.48-3.564-1.128-1.127-2.316-1.62-3.564-1.48-1.248.14-2.345.684-3.292 1.63-.964.964-1.51 2.064-1.64 3.302-.131 1.238.367 2.421 1.495 3.549zm1.433-1.445c-.502-.501-.71-1.066-.623-1.694.086-.628.458-1.271 1.116-1.93.658-.658 1.3-1.029 1.926-1.113.626-.084 1.19.124 1.692.626.501.502.71 1.064.623 1.688-.086.624-.459 1.265-1.117 1.924-.658.658-1.3 1.03-1.926 1.12-.626.087-1.19-.12-1.691-.62zm2.443 10.028l3.42-3.419c-.097.458-.123.853-.079 1.186.084.606.387 1.17.91 1.692.818.818 1.79 1.184 2.915 1.098 1.126-.086 2.267-.707 3.422-1.863 1.096-1.095 1.66-2.192 1.695-3.29.034-1.097-.332-2.029-1.099-2.795-.525-.526-1.125-.833-1.8-.921-.373-.045-.794-.016-1.263.084l.969-.97-1.644-1.642-9.143 9.143 1.697 1.697zm5.237-2.432a1.958 1.958 0 01-.584-1.125c-.096-.714.237-1.453 1-2.215.481-.482.939-.819 1.372-1.011.823-.358 1.545-.225 2.167.397.518.517.697 1.086.539 1.706-.159.62-.49 1.183-.997 1.689-.613.614-1.23.98-1.85 1.098-.62.119-1.17-.061-1.647-.539zm5.28 8.072c.336.337.674.587 1.013.75.34.162.764.258 1.274.286.164.012.329 0 .493-.036.165-.037.265-.057.301-.06l-.927.926 1.667 1.668 6.561-6.561-1.74-1.74-3.569 3.57c-.42.42-.816.704-1.185.848-.69.257-1.329.093-1.914-.493-.458-.458-.598-.931-.422-1.42.1-.278.337-.603.71-.976l3.955-3.955-1.758-1.757-3.954 3.954c-.75.75-1.224 1.413-1.42 1.987-.362 1.035-.057 2.038.914 3.01zm7.228 6.94l8.873-8.872-1.716-1.715-8.872 8.872 1.715 1.716zm3.076 3.486c.466.465.99.776 1.571.933.49.128.981.182 1.475.162-.136.16-.253.31-.35.446a2.702 2.702 0 00-.264.481l1.866 1.866.253-.253a.87.87 0 01-.054-.451c.024-.136.142-.323.355-.56.289-.305.537-.562.746-.77l3.01-3.01c.79-.79 1.05-1.607.776-2.45-.273-.842-.768-1.623-1.486-2.341-1.104-1.104-2.171-1.593-3.203-1.469-.654.084-1.286.395-1.896.933l1.655 1.655c.293-.212.574-.333.843-.36.37-.033.757.154 1.162.559.361.361.584.686.668.975.084.289-.008.568-.277.837-.22.22-.505.26-.855.12-.196-.076-.473-.253-.83-.53l-.656-.511c-.747-.578-1.389-.94-1.927-1.084-.983-.26-1.878.012-2.684.819-.622.622-.909 1.296-.86 2.022.047.727.368 1.387.962 1.98zm1.752-.74a1.297 1.297 0 01-.397-.79c-.033-.292.098-.585.39-.878.33-.329.705-.44 1.126-.331.25.064.586.245 1.012.542l.457.313c.229.156.42.269.572.337.152.068.317.122.494.162l-.639.638c-.585.562-1.142.796-1.67.702a2.47 2.47 0 01-1.345-.696zm5.411 7.493l3.136-3.136c.526-.525.981-.848 1.367-.969.686-.212 1.374.026 2.064.717a6.354 6.354 0 01.464.523l1.757-1.757a7.272 7.272 0 01-.138-.157 1.301 1.301 0 00-.078-.084c-.514-.514-1.066-.797-1.656-.849-.357-.036-.887.032-1.589.205l1.144-1.144-1.637-1.637-6.561 6.56 1.727 1.728z" fill="#FFF" fill-rule="nonzero"/></g></g></svg>