<svg width="1920" height="559" viewBox="0 0 1920 559" fill="none" xmlns="http://www.w3.org/2000/svg">
<g clip-path="url(#clip0_1183_99072)">
<rect width="1920" height="559" fill="#0A0808"/>
<g filter="url(#filter0_f_1183_99072)">
<circle cx="1532" cy="333.681" r="61.2322" fill="white"/>
</g>
<g filter="url(#filter1_f_1183_99072)">
<ellipse cx="1057.96" cy="138.633" rx="111.456" ry="22.3601" fill="white"/>
</g>
<g filter="url(#filter2_f_1183_99072)">
<circle cx="612.825" cy="392.162" r="46.0961" fill="white"/>
</g>
<rect x="448.737" y="329.209" width="109.392" height="109.392" rx="10.664" stroke="white" stroke-opacity="0.04" stroke-width="0.688002"/>
<rect x="1323.88" y="329.209" width="109.392" height="109.392" rx="10.664" stroke="white" stroke-opacity="0.04" stroke-width="0.688002"/>
<rect x="667.521" y="329.209" width="109.392" height="109.392" rx="10.664" stroke="white" stroke-opacity="0.04" stroke-width="0.688002"/>
<rect x="1542.66" y="109.737" width="109.392" height="109.392" rx="10.664" stroke="white" stroke-opacity="0.04" stroke-width="0.688002"/>
<rect x="1542.66" y="329.209" width="109.392" height="109.392" rx="10.664" stroke="white" stroke-opacity="0.04" stroke-width="0.688002"/>
<rect x="448.737" y="0.344001" width="109.392" height="109.392" rx="10.664" stroke="url(#paint0_linear_1183_99072)" stroke-opacity="0.04" stroke-width="0.688002"/>
<rect x="448.737" y="219.817" width="109.392" height="109.392" rx="10.664" stroke="white" stroke-opacity="0.04" stroke-width="0.688002"/>
<rect x="448.737" y="439.289" width="109.392" height="109.392" rx="10.664" stroke="white" stroke-opacity="0.04" stroke-width="0.688002"/>
<rect x="1323.88" y="439.289" width="109.392" height="109.392" rx="10.664" stroke="white" stroke-opacity="0.04" stroke-width="0.688002"/>
<rect x="667.521" y="439.289" width="109.392" height="109.392" rx="10.664" stroke="white" stroke-opacity="0.04" stroke-width="0.688002"/>
<rect x="1542.66" y="219.817" width="109.392" height="109.392" rx="10.664" stroke="white" stroke-opacity="0.04" stroke-width="0.688002"/>
<rect x="1542.66" y="439.289" width="109.392" height="109.392" rx="10.664" stroke="white" stroke-opacity="0.04" stroke-width="0.688002"/>
<rect x="339" y="109.393" width="110.08" height="110.08" rx="11.008" fill="url(#paint1_linear_1183_99072)" fill-opacity="0.05"/>
<rect x="339.344" y="329.209" width="109.392" height="109.392" rx="10.664" stroke="white" stroke-opacity="0.04" stroke-width="0.688002"/>
<rect x="558.129" y="109.737" width="109.392" height="109.392" rx="10.664" stroke="url(#paint2_linear_1183_99072)" stroke-opacity="0.04" stroke-width="0.688002"/>
<rect x="448.737" y="109.737" width="109.392" height="109.392" rx="10.664" stroke="white" stroke-opacity="0.04" stroke-width="0.688002"/>
<rect x="557.785" y="328.865" width="110.08" height="110.08" rx="11.008" fill="url(#paint3_linear_1183_99072)" fill-opacity="0.05"/>
<rect x="1433.27" y="109.737" width="109.392" height="109.392" rx="10.664" stroke="url(#paint4_linear_1183_99072)" stroke-opacity="0.04" stroke-width="0.688002"/>
<rect x="1433.27" y="329.209" width="109.392" height="109.392" rx="10.664" stroke="white" stroke-opacity="0.04" stroke-width="0.688002"/>
<rect x="339.344" y="0.344001" width="109.392" height="109.392" rx="10.664" stroke="url(#paint5_linear_1183_99072)" stroke-opacity="0.04" stroke-width="0.688002"/>
<rect x="339.344" y="219.817" width="109.392" height="109.392" rx="10.664" stroke="white" stroke-opacity="0.04" stroke-width="0.688002"/>
<rect x="339.344" y="439.289" width="109.392" height="109.392" rx="10.664" stroke="white" stroke-opacity="0.04" stroke-width="0.688002"/>
<rect x="558.129" y="219.817" width="109.392" height="109.392" rx="10.664" stroke="white" stroke-opacity="0.04" stroke-width="0.688002"/>
<rect x="558.129" y="439.289" width="109.392" height="109.392" rx="10.664" stroke="white" stroke-opacity="0.04" stroke-width="0.688002"/>
<rect x="1432.92" y="219.473" width="110.08" height="110.08" rx="11.008" fill="url(#paint6_linear_1183_99072)" fill-opacity="0.05"/>
<rect x="1433.27" y="439.289" width="109.392" height="109.392" rx="10.664" stroke="white" stroke-opacity="0.04" stroke-width="0.688002"/>
<rect x="1652.05" y="109.737" width="109.392" height="109.392" rx="10.664" stroke="white" stroke-opacity="0.04" stroke-width="0.688002"/>
<rect x="1652.05" y="329.209" width="109.392" height="109.392" rx="10.664" stroke="white" stroke-opacity="0.04" stroke-width="0.688002"/>
<rect x="1651.71" width="110.08" height="110.08" rx="11.008" fill="url(#paint7_linear_1183_99072)" fill-opacity="0.05"/>
<rect x="1652.05" y="219.817" width="109.392" height="109.392" rx="10.664" stroke="white" stroke-opacity="0.04" stroke-width="0.688002"/>
<rect x="1651.71" y="438.945" width="110.08" height="110.08" rx="11.008" fill="url(#paint8_linear_1183_99072)" fill-opacity="0.05"/>
<g opacity="0.4" filter="url(#filter3_f_1183_99072)">
<circle cx="175" cy="212" r="175" fill="#EF3E41"/>
</g>
</g>
<defs>
<filter id="filter0_f_1183_99072" x="1126.76" y="-71.5519" width="810.467" height="810.467" filterUnits="userSpaceOnUse" color-interpolation-filters="sRGB">
<feFlood flood-opacity="0" result="BackgroundImageFix"/>
<feBlend mode="normal" in="SourceGraphic" in2="BackgroundImageFix" result="shape"/>
<feGaussianBlur stdDeviation="172.001" result="effect1_foregroundBlur_1183_99072"/>
</filter>
<filter id="filter1_f_1183_99072" x="671.305" y="-158.928" width="773.314" height="595.122" filterUnits="userSpaceOnUse" color-interpolation-filters="sRGB">
<feFlood flood-opacity="0" result="BackgroundImageFix"/>
<feBlend mode="normal" in="SourceGraphic" in2="BackgroundImageFix" result="shape"/>
<feGaussianBlur stdDeviation="137.6" result="effect1_foregroundBlur_1183_99072"/>
</filter>
<filter id="filter2_f_1183_99072" x="222.728" y="2.06433" width="780.195" height="780.195" filterUnits="userSpaceOnUse" color-interpolation-filters="sRGB">
<feFlood flood-opacity="0" result="BackgroundImageFix"/>
<feBlend mode="normal" in="SourceGraphic" in2="BackgroundImageFix" result="shape"/>
<feGaussianBlur stdDeviation="172.001" result="effect1_foregroundBlur_1183_99072"/>
</filter>
<filter id="filter3_f_1183_99072" x="-600" y="-563" width="1550" height="1550" filterUnits="userSpaceOnUse" color-interpolation-filters="sRGB">
<feFlood flood-opacity="0" result="BackgroundImageFix"/>
<feBlend mode="normal" in="SourceGraphic" in2="BackgroundImageFix" result="shape"/>
<feGaussianBlur stdDeviation="300" result="effect1_foregroundBlur_1183_99072"/>
</filter>
<linearGradient id="paint0_linear_1183_99072" x1="451.145" y1="106.984" x2="474.193" y2="92.5363" gradientUnits="userSpaceOnUse">
<stop stop-color="white"/>
<stop offset="1" stop-color="white" stop-opacity="0"/>
</linearGradient>
<linearGradient id="paint1_linear_1183_99072" x1="444.608" y1="113.521" x2="359.64" y2="198.489" gradientUnits="userSpaceOnUse">
<stop stop-color="white"/>
<stop offset="0.518426" stop-color="white" stop-opacity="0"/>
</linearGradient>
<linearGradient id="paint2_linear_1183_99072" x1="557.785" y1="219.473" x2="619.361" y2="161.337" gradientUnits="userSpaceOnUse">
<stop stop-color="white"/>
<stop offset="1" stop-color="white" stop-opacity="0"/>
</linearGradient>
<linearGradient id="paint3_linear_1183_99072" x1="663.393" y1="332.993" x2="513.409" y2="468.186" gradientUnits="userSpaceOnUse">
<stop stop-color="white" stop-opacity="0"/>
<stop offset="1" stop-color="white"/>
</linearGradient>
<linearGradient id="paint4_linear_1183_99072" x1="1539.56" y1="217.409" x2="1482.12" y2="166.497" gradientUnits="userSpaceOnUse">
<stop stop-color="white"/>
<stop offset="1" stop-color="white" stop-opacity="0"/>
</linearGradient>
<linearGradient id="paint5_linear_1183_99072" x1="392.32" y1="50.2242" x2="445.984" y2="110.08" gradientUnits="userSpaceOnUse">
<stop offset="0.331621" stop-color="white" stop-opacity="0"/>
<stop offset="0.987465" stop-color="white"/>
</linearGradient>
<linearGradient id="paint6_linear_1183_99072" x1="1538.53" y1="223.601" x2="1453.56" y2="308.569" gradientUnits="userSpaceOnUse">
<stop offset="0.00786839" stop-color="white"/>
<stop offset="1" stop-color="white" stop-opacity="0"/>
</linearGradient>
<linearGradient id="paint7_linear_1183_99072" x1="1655.84" y1="66.3922" x2="1651.71" y2="106.64" gradientUnits="userSpaceOnUse">
<stop stop-color="white" stop-opacity="0"/>
<stop offset="1" stop-color="white"/>
</linearGradient>
<linearGradient id="paint8_linear_1183_99072" x1="1689.2" y1="468.873" x2="1672.35" y2="528.042" gradientUnits="userSpaceOnUse">
<stop stop-color="white" stop-opacity="0"/>
<stop offset="1" stop-color="white"/>
</linearGradient>
<clipPath id="clip0_1183_99072">
<rect width="1920" height="559" fill="white"/>
</clipPath>
</defs>
</svg>
