<svg width="593" height="92" viewBox="0 0 593 92" fill="none" xmlns="http://www.w3.org/2000/svg">
<g opacity="0.5">
<mask id="mask0_1183_99160" style="mask-type:alpha" maskUnits="userSpaceOnUse" x="5" y="-1" width="527" height="123">
<path d="M60.7582 26.3872C60.3269 22.352 58.5096 19.2102 55.3061 16.9616C52.1334 14.713 48.0059 13.5887 42.9234 13.5887C39.3503 13.5887 36.2855 14.1277 33.7289 15.2058C31.1722 16.2839 29.2163 17.747 27.861 19.5952C26.5056 21.4434 25.8126 23.5533 25.7818 25.9251C25.7818 27.8965 26.2284 29.6061 27.1217 31.0538C28.0458 32.5015 29.2933 33.7336 30.8642 34.7501C32.4352 35.7358 34.1755 36.5674 36.0853 37.2451C37.995 37.9228 39.9202 38.4926 41.8608 38.9546L50.7319 41.1724C54.305 42.0041 57.7395 43.1284 61.0354 44.5453C64.3621 45.9622 67.3345 47.7488 69.9527 49.905C72.6018 52.0612 74.6963 54.664 76.2365 57.7134C77.7766 60.7629 78.5467 64.336 78.5467 68.4327C78.5467 73.9772 77.1297 78.8594 74.2959 83.0794C71.4621 87.2685 67.3653 90.549 62.0057 92.9208C56.6768 95.2618 50.2237 96.4323 42.6462 96.4323C35.2844 96.4323 28.8929 95.2926 23.4716 93.0132C18.0811 90.7338 13.8612 87.4072 10.8117 83.0332C7.79306 78.6592 6.16052 73.3304 5.9141 67.0466H22.7785C23.025 70.3425 24.0414 73.0839 25.828 75.2709C27.6145 77.4579 29.9401 79.0905 32.8048 80.1685C35.7002 81.2466 38.9345 81.7857 42.5076 81.7857C46.2347 81.7857 49.4998 81.2312 52.3028 80.1223C55.1367 78.9826 57.3545 77.4117 58.9562 75.4095C60.5579 73.3766 61.3742 71.0048 61.405 68.2941C61.3742 65.8299 60.6503 63.797 59.2334 62.1952C57.8165 60.5627 55.8297 59.2074 53.2731 58.1293C50.7473 57.0204 47.7903 56.0347 44.402 55.1722L33.6365 52.4C25.8434 50.3978 19.6829 47.3638 15.1549 43.2978C10.6577 39.2011 8.40911 33.7644 8.40911 26.9878C8.40911 21.4126 9.91844 16.5303 12.9371 12.3412C15.9866 8.15204 20.1295 4.90236 25.366 2.59216C30.6024 0.251164 36.5319 -0.919335 43.1545 -0.919335C49.8694 -0.919335 55.7527 0.251164 60.8044 2.59216C65.8868 4.90236 69.8757 8.12123 72.7712 12.2488C75.6666 16.3455 77.1605 21.0583 77.2529 26.3872H60.7582ZM116.114 96.4323C111.616 96.4323 107.566 95.6315 103.962 94.0297C100.389 92.3972 97.5551 89.9946 95.4605 86.8219C93.3968 83.6492 92.3649 79.7373 92.3649 75.0861C92.3649 71.0818 93.1041 67.7705 94.5827 65.1523C96.0612 62.534 98.0787 60.4395 100.635 58.8685C103.192 57.2976 106.072 56.1117 109.275 55.3108C112.51 54.4792 115.852 53.8785 119.302 53.5089C123.46 53.0776 126.833 52.6926 129.42 52.3538C132.008 51.9842 133.887 51.4297 135.057 50.6904C136.259 49.9204 136.859 48.7345 136.859 47.1327V46.8555C136.859 43.3748 135.827 40.6796 133.764 38.7698C131.7 36.8601 128.727 35.9052 124.846 35.9052C120.749 35.9052 117.5 36.7985 115.097 38.585C112.725 40.3716 111.124 42.4815 110.292 44.915L94.6751 42.6972C95.9072 38.3848 97.9401 34.7809 100.774 31.8854C103.608 28.9592 107.073 26.7722 111.17 25.3245C115.267 23.846 119.795 23.1067 124.754 23.1067C128.173 23.1067 131.577 23.5071 134.965 24.308C138.353 25.1089 141.449 26.4334 144.252 28.2815C147.055 30.0989 149.303 32.5785 150.998 35.7204C152.723 38.8622 153.585 42.7896 153.585 47.5024V95H137.506V85.251H136.952C135.935 87.2223 134.503 89.0705 132.655 90.7954C130.837 92.4896 128.543 93.8603 125.77 94.9076C123.029 95.9241 119.81 96.4323 116.114 96.4323ZM120.457 84.1421C123.814 84.1421 126.725 83.4798 129.189 82.1553C131.654 80.8 133.548 79.0134 134.872 76.7957C136.228 74.5779 136.905 72.1599 136.905 69.5416V61.1787C136.382 61.61 135.489 62.0104 134.226 62.38C132.994 62.7497 131.607 63.0731 130.067 63.3503C128.527 63.6275 127.002 63.874 125.493 64.0896C123.984 64.3052 122.675 64.49 121.566 64.644C119.071 64.9829 116.838 65.5373 114.866 66.3074C112.895 67.0774 111.339 68.1555 110.2 69.5416C109.06 70.897 108.49 72.6527 108.49 74.8089C108.49 77.8891 109.614 80.2147 111.863 81.7857C114.112 83.3566 116.976 84.1421 120.457 84.1421ZM193.428 96.4323C188.93 96.4323 184.88 95.6315 181.276 94.0297C177.703 92.3972 174.869 89.9946 172.774 86.8219C170.711 83.6492 169.679 79.7373 169.679 75.0861C169.679 71.0818 170.418 67.7705 171.897 65.1523C173.375 62.534 175.393 60.4395 177.949 58.8685C180.506 57.2976 183.386 56.1117 186.589 55.3108C189.824 54.4792 193.166 53.8785 196.616 53.5089C200.774 53.0776 204.147 52.6926 206.734 52.3538C209.322 51.9842 211.201 51.4297 212.371 50.6904C213.573 49.9204 214.173 48.7345 214.173 47.1327V46.8555C214.173 43.3748 213.141 40.6796 211.078 38.7698C209.014 36.8601 206.041 35.9052 202.16 35.9052C198.063 35.9052 194.814 36.7985 192.411 38.585C190.039 40.3716 188.438 42.4815 187.606 44.915L171.989 42.6972C173.221 38.3848 175.254 34.7809 178.088 31.8854C180.922 28.9592 184.387 26.7722 188.484 25.3245C192.581 23.846 197.109 23.1067 202.068 23.1067C205.487 23.1067 208.891 23.5071 212.279 24.308C215.667 25.1089 218.763 26.4334 221.566 28.2815C224.369 30.0989 226.617 32.5785 228.312 35.7204C230.037 38.8622 230.899 42.7896 230.899 47.5024V95H214.82V85.251H214.266C213.249 87.2223 211.817 89.0705 209.969 90.7954C208.151 92.4896 205.856 93.8603 203.084 94.9076C200.343 95.9241 197.124 96.4323 193.428 96.4323ZM197.771 84.1421C201.128 84.1421 204.039 83.4798 206.503 82.1553C208.968 80.8 210.862 79.0134 212.186 76.7957C213.542 74.5779 214.219 72.1599 214.219 69.5416V61.1787C213.696 61.61 212.802 62.0104 211.54 62.38C210.307 62.7497 208.921 63.0731 207.381 63.3503C205.841 63.6275 204.316 63.874 202.807 64.0896C201.298 64.3052 199.989 64.49 198.88 64.644C196.385 64.9829 194.151 65.5373 192.18 66.3074C190.209 67.0774 188.653 68.1555 187.514 69.5416C186.374 70.897 185.804 72.6527 185.804 74.8089C185.804 77.8891 186.928 80.2147 189.177 81.7857C191.425 83.3566 194.29 84.1421 197.771 84.1421ZM306.411 42.7896L291.164 44.4529C290.732 42.9128 289.978 41.4651 288.9 40.1097C287.852 38.7544 286.435 37.6609 284.649 36.8293C282.862 35.9976 280.675 35.5818 278.088 35.5818C274.607 35.5818 271.681 36.3364 269.309 37.8458C266.968 39.3551 265.813 41.311 265.844 43.7136C265.813 45.7774 266.568 47.4562 268.108 48.7499C269.679 50.0436 272.266 51.1063 275.87 51.9379L287.976 54.5254C294.691 55.9731 299.681 58.2679 302.946 61.4098C306.242 64.5516 307.905 68.6638 307.936 73.7462C307.905 78.2126 306.596 82.1553 304.008 85.5744C301.452 88.9627 297.894 91.6117 293.335 93.5215C288.776 95.4312 283.54 96.3861 277.626 96.3861C268.94 96.3861 261.947 94.5688 256.649 90.9341C251.351 87.2685 248.194 82.1707 247.178 75.6406L263.488 74.0696C264.227 77.2731 265.798 79.6911 268.2 81.3236C270.603 82.9562 273.729 83.7724 277.58 83.7724C281.553 83.7724 284.741 82.9562 287.144 81.3236C289.577 79.6911 290.794 77.6735 290.794 75.2709C290.794 73.238 290.009 71.5592 288.438 70.2347C286.898 68.9102 284.495 67.8937 281.23 67.1852L269.124 64.644C262.317 63.2271 257.281 60.8399 254.016 57.4824C250.751 54.0941 249.134 49.8126 249.164 44.6377C249.134 40.2638 250.319 36.475 252.722 33.2716C255.155 30.0373 258.528 27.5423 262.841 25.7865C267.184 24 272.189 23.1067 277.857 23.1067C286.174 23.1067 292.719 24.8779 297.494 28.4202C302.299 31.9625 305.271 36.7523 306.411 42.7896ZM325.069 95V0.374376H342.211V80.6306H383.887V95H325.069ZM402.129 121.613C399.849 121.613 397.739 121.429 395.799 121.059C393.889 120.72 392.364 120.32 391.225 119.858L395.106 106.828C397.539 107.537 399.711 107.875 401.621 107.845C403.53 107.814 405.209 107.213 406.657 106.043C408.135 104.903 409.383 102.993 410.399 100.313L411.832 96.4785L386.096 24.0308H403.838L420.195 77.6273H420.934L437.336 24.0308H455.125L426.709 103.594C425.385 107.352 423.629 110.571 421.442 113.251C419.255 115.961 416.575 118.025 413.403 119.442C410.261 120.89 406.503 121.613 402.129 121.613ZM486.027 53.4165V95H469.301V24.0308H485.288V36.09H486.119C487.752 32.1165 490.355 28.9592 493.928 26.6182C497.532 24.2772 501.983 23.1067 507.281 23.1067C512.178 23.1067 516.444 24.154 520.079 26.2486C523.745 28.3431 526.578 31.3772 528.581 35.3507C530.614 39.3243 531.615 44.1449 531.584 49.8126V95H514.858V52.4C514.858 47.6564 513.626 43.9447 511.162 41.2648C508.728 38.585 505.355 37.2451 501.043 37.2451C498.117 37.2451 495.514 37.892 493.235 39.1857C490.986 40.4486 489.215 42.2813 487.921 44.6839C486.658 47.0865 486.027 49.9974 486.027 53.4165Z" fill="url(#paint0_linear_1183_99160)"/>
</mask>
<g mask="url(#mask0_1183_99160)">
<rect width="578.437" height="92" fill="url(#paint1_linear_1183_99160)"/>
</g>
</g>
<defs>
<linearGradient id="paint0_linear_1183_99160" x1="0" y1="0" x2="27.912" y2="179.664" gradientUnits="userSpaceOnUse">
<stop stop-color="#4642FC"/>
<stop offset="1" stop-color="#ADBBFE"/>
</linearGradient>
<linearGradient id="paint1_linear_1183_99160" x1="0" y1="0" x2="28.543" y2="179.46" gradientUnits="userSpaceOnUse">
<stop stop-color="#4642FC"/>
<stop offset="1" stop-color="#ADBBFE"/>
</linearGradient>
</defs>
</svg>
