<svg width="942" height="273" viewBox="0 0 942 273" fill="none" xmlns="http://www.w3.org/2000/svg">
<g opacity="0.04">
<g opacity="0.7">
<path d="M92.0093 217.04C66.7961 217.04 46.8984 210.69 32.3162 197.989C17.828 185.194 10.5839 167.696 10.5839 145.493H41.9122C42.0063 159.323 46.428 170.142 55.1774 177.95C64.0208 185.759 76.2981 189.663 92.0093 189.663C106.309 189.663 117.74 186.653 126.301 180.632C134.956 174.516 139.284 166.332 139.284 156.077C139.284 147.986 136.179 141.448 129.97 136.461C123.855 131.381 113.506 127.101 98.9241 123.62L75.9218 118.116C54.6599 113.036 39.1369 105.98 29.3527 96.9483C19.6625 87.8226 14.8174 75.9686 14.8174 61.3864C14.8174 49.062 17.9221 38.29 24.1313 29.0702C30.3405 19.8505 39.0428 12.7005 50.2382 7.62021C61.5277 2.53994 74.6988 -0.000196427 89.7514 -0.000196427C112.424 -0.000196427 130.441 5.92678 143.8 17.7807C157.253 29.6347 164.309 45.8163 164.968 66.3255H134.627C133.874 54.1893 129.453 44.6874 121.362 37.8196C113.271 30.8577 102.593 27.3768 89.3281 27.3768C76.6274 27.3768 66.2316 30.4344 58.1409 36.5495C50.0501 42.5706 46.0047 50.3321 46.0047 59.8341C46.0047 67.4545 49.1093 73.6637 55.3185 78.4617C61.5277 83.1657 71.8294 87.2581 86.2234 90.739L108.944 96.1016C130.017 101.088 145.54 108.285 155.513 117.693C165.579 127.101 170.612 139.331 170.612 154.384C170.612 166.99 167.367 177.997 160.875 187.405C154.384 196.813 145.258 204.104 133.498 209.279C121.738 214.453 107.909 217.04 92.0093 217.04ZM223.199 216.052C208.334 216.052 196.01 212.289 186.226 204.763C176.441 197.142 171.549 185.9 171.549 171.036C171.549 159.746 174.325 151.091 179.875 145.07C185.52 138.955 192.811 134.58 201.749 131.946C210.78 129.311 220.329 127.383 230.396 126.16C239.71 125.031 247.095 124.09 252.551 123.337C258.008 122.585 261.865 121.456 264.123 119.951C266.475 118.445 267.651 115.858 267.651 112.189V110.919C267.651 103.675 265.017 97.7479 259.748 93.1381C254.48 88.4341 247.095 86.0821 237.593 86.0821C228.091 86.0821 220.329 88.3871 214.308 92.9969C208.287 97.5127 204.994 103.205 204.43 110.072H175.218C175.877 95.8664 181.851 84.2476 193.141 75.216C204.43 66.1844 219.389 61.6686 238.016 61.6686C256.362 61.6686 270.803 66.1844 281.34 75.216C291.876 84.2476 297.145 96.3367 297.145 111.483V213.653H267.792V192.486H267.228C264.123 198.507 259.184 203.963 252.41 208.855C245.731 213.653 235.994 216.052 223.199 216.052ZM229.267 192.062C242.438 192.062 252.128 188.675 258.337 181.902C264.641 175.034 267.792 167.037 267.792 157.911V140.413C265.817 142.012 261.348 143.47 254.386 144.787C247.424 146.01 239.992 147.186 232.089 148.315C223.904 149.538 216.707 151.843 210.498 155.23C204.289 158.617 201.184 164.074 201.184 171.6C201.184 177.997 203.677 183.031 208.664 186.7C213.744 190.275 220.612 192.062 229.267 192.062ZM355.941 216.052C341.076 216.052 328.752 212.289 318.967 204.763C309.183 197.142 304.291 185.9 304.291 171.036C304.291 159.746 307.067 151.091 312.617 145.07C318.262 138.955 325.553 134.58 334.491 131.946C343.522 129.311 353.071 127.383 363.138 126.16C372.451 125.031 379.837 124.09 385.293 123.337C390.75 122.585 394.607 121.456 396.865 119.951C399.217 118.445 400.393 115.858 400.393 112.189V110.919C400.393 103.675 397.759 97.7479 392.49 93.1381C387.222 88.4341 379.837 86.0821 370.335 86.0821C360.833 86.0821 353.071 88.3871 347.05 92.9969C341.029 97.5127 337.736 103.205 337.172 110.072H307.96C308.619 95.8664 314.593 84.2476 325.882 75.216C337.172 66.1844 352.13 61.6686 370.758 61.6686C389.103 61.6686 403.545 66.1844 414.081 75.216C424.618 84.2476 429.887 96.3367 429.887 111.483V213.653H400.534V192.486H399.97C396.865 198.507 391.926 203.963 385.152 208.855C378.472 213.653 368.735 216.052 355.941 216.052ZM362.009 192.062C375.18 192.062 384.87 188.675 391.079 181.902C397.382 175.034 400.534 167.037 400.534 157.911V140.413C398.558 142.012 394.09 143.47 387.128 144.787C380.166 146.01 372.734 147.186 364.831 148.315C356.646 149.538 349.449 151.843 343.24 155.23C337.031 158.617 333.926 164.074 333.926 171.6C333.926 177.997 336.419 183.031 341.405 186.7C346.486 190.275 353.353 192.062 362.009 192.062ZM498.42 217.181C487.036 217.181 476.781 215.347 467.656 211.678C458.53 208.009 451.145 202.552 445.5 195.308C439.949 188.064 436.845 179.079 436.186 168.354H465.539C467.232 185.1 478.004 193.473 497.855 193.473C507.263 193.473 514.695 191.545 520.152 187.688C525.702 183.83 528.478 178.938 528.478 173.011C528.478 167.931 526.502 163.886 522.551 160.875C518.599 157.77 513.425 155.512 507.028 154.101L482.332 148.598C453.826 142.388 439.573 128.183 439.573 105.98C439.573 92.8088 444.794 82.0838 455.237 73.8048C465.774 65.5259 479.557 61.3864 496.585 61.3864C513.425 61.3864 527.255 65.7611 538.074 74.5104C548.987 83.1657 554.632 95.0196 555.008 110.072H526.502C526.408 102.828 523.68 96.8542 518.317 92.1502C512.955 87.3522 505.852 84.9532 497.008 84.9532C488.541 84.9532 481.815 86.9288 476.828 90.8802C471.842 94.8315 469.349 99.6766 469.349 105.415C469.349 110.496 471.231 114.588 474.994 117.693C478.851 120.797 484.119 123.102 490.799 124.608L516.2 130.252C530.689 133.451 541.367 138.39 548.234 145.07C555.102 151.749 558.536 160.499 558.536 171.318C558.536 180.82 555.902 189.005 550.633 195.872C545.459 202.646 538.356 207.914 529.324 211.678C520.293 215.347 509.991 217.181 498.42 217.181ZM567.093 213.653V3.38665H598.422V186.135H697.91V213.653H567.093ZM683.607 272.641V247.522H699.694C704.398 247.522 708.208 246.158 711.125 243.429C714.135 240.795 716.769 236.42 719.027 230.305L725.801 212.665L668.225 64.6321H700.117L729.893 146.34C731.869 151.89 733.798 157.488 735.679 163.133C737.561 168.684 739.395 174.234 741.183 179.785C742.97 174.234 744.805 168.684 746.687 163.133C748.662 157.488 750.638 151.89 752.614 146.34L781.966 64.6321H813.436L745.699 239.76C737.326 261.681 722.932 272.641 702.516 272.641H683.607ZM843.302 127.853V213.653H813.526V64.6321H842.738V87.07C852.898 70.1357 867.904 61.6686 887.754 61.6686C898.009 61.6686 907.182 63.9265 915.273 68.4423C923.457 72.864 929.902 79.4496 934.606 88.1989C939.31 96.9483 941.662 107.814 941.662 120.797V213.653H911.886V124.466C911.886 112.518 909.016 103.534 903.277 97.5127C897.539 91.3976 889.542 88.34 879.287 88.34C869.127 88.34 860.566 91.4917 853.604 97.795C846.736 104.004 843.302 114.024 843.302 127.853Z" fill="white"/>
</g>
</g>
</svg>
