<svg width="48" height="48" viewBox="0 0 48 48" fill="none" xmlns="http://www.w3.org/2000/svg">
<path fill-rule="evenodd" clip-rule="evenodd" d="M35.876 28.2506C37.3942 28.2506 38.6684 29.5035 38.4363 31.0027C37.0745 39.8227 29.5239 46.3714 20.4174 46.3714C10.3421 46.3714 2.17578 38.2051 2.17578 28.1322C2.17578 19.8333 8.48052 12.1027 15.5787 10.3548C17.1039 9.97827 18.6671 11.0512 18.6671 12.6214C18.6671 23.2604 19.0247 26.0125 21.045 27.5093C23.0653 29.0062 25.4408 28.2506 35.876 28.2506Z" stroke="#6DEDC3" stroke-width="2.5" stroke-linecap="round" stroke-linejoin="round"/>
<path fill-rule="evenodd" clip-rule="evenodd" d="M45.8093 19.3911C45.9301 12.5558 37.534 1.53791 27.3024 1.72739C26.5066 1.7416 25.8695 2.40476 25.834 3.19818C25.5759 8.81844 25.924 16.1013 26.1182 19.4029C26.1774 20.4308 26.9851 21.2384 28.0106 21.2977C31.4045 21.4919 38.9527 21.7571 44.4924 20.9187C45.2456 20.805 45.7974 20.1513 45.8093 19.3911Z" stroke="#6DEDC3" stroke-width="2.5" stroke-linecap="round" stroke-linejoin="round"/>
</svg>
