<svg width="44" height="44" viewBox="0 0 44 44" fill="none" xmlns="http://www.w3.org/2000/svg">
<path d="M33 14.6666H36.6667C37.1529 14.6666 37.6192 14.8597 37.963 15.2036C38.3068 15.5474 38.5 16.0137 38.5 16.4999V38.4999C38.5 38.9862 38.3068 39.4525 37.963 39.7963C37.6192 40.1401 37.1529 40.3333 36.6667 40.3333H7.33333C6.8471 40.3333 6.38079 40.1401 6.03697 39.7963C5.69315 39.4525 5.5 38.9862 5.5 38.4999V16.4999C5.5 16.0137 5.69315 15.5474 6.03697 15.2036C6.38079 14.8597 6.8471 14.6666 7.33333 14.6666H11V12.8333C11 9.91587 12.1589 7.11798 14.2218 5.05508C16.2847 2.99218 19.0826 1.83325 22 1.83325C24.9174 1.83325 27.7153 2.99218 29.7782 5.05508C31.8411 7.11798 33 9.91587 33 12.8333V14.6666ZM20.1667 28.8419V32.9999H23.8333V28.8419C24.5324 28.4383 25.0787 27.8154 25.3876 27.0697C25.6964 26.3239 25.7506 25.4971 25.5417 24.7175C25.3328 23.9378 24.8725 23.2489 24.2321 22.7575C23.5918 22.2662 22.8072 21.9998 22 21.9998C21.1928 21.9998 20.4082 22.2662 19.7679 22.7575C19.1275 23.2489 18.6672 23.9378 18.4583 24.7175C18.2494 25.4971 18.3036 26.3239 18.6124 27.0697C18.9213 27.8154 19.4676 28.4383 20.1667 28.8419ZM29.3333 14.6666V12.8333C29.3333 10.8883 28.5607 9.02307 27.1854 7.6478C25.8102 6.27254 23.9449 5.49992 22 5.49992C20.0551 5.49992 18.1898 6.27254 16.8146 7.6478C15.4393 9.02307 14.6667 10.8883 14.6667 12.8333V14.6666H29.3333Z" fill="#5BC17F"/>
</svg>
