<svg width="27" height="27" viewBox="0 0 27 27" fill="none" xmlns="http://www.w3.org/2000/svg">
<g clip-path="url(#clip0_181_2299)">
<path d="M2.33645 2.33596H5.90496V0.849121H0.849609V5.90447H2.33645V2.33596Z" fill="#5BC17F"/>
<path d="M22.6131 22.7397V7.63703H18.4963V9.12387H21.1262V11.1421H19.2645V12.629H21.1262V14.7458H16.8737V12.4754H15.3869V14.7458H15.3626H12.3493V8.67267H14.0912V7.18583H12.3493V4.4375H4.35547V12.4314H10.8625V17.8924H8.47474V21.2533H5.12365V22.7402H12.3498V21.2533H9.96207V19.3792H12.3498V16.2327H14.6197V22.7397H22.6131ZM21.1262 21.2529H16.1061V16.2327H21.1262V21.2529ZM5.84231 5.92434H10.8625V10.9445H5.84231V5.92434Z" fill="#5BC17F"/>
<path d="M18.5215 4.4375H22.6135V5.92434H18.5215V4.4375Z" fill="#5BC17F"/>
<path d="M7.58594 7.56763H9.12181V9.05447H7.58594V7.56763Z" fill="#5BC17F"/>
<path d="M17.7305 17.9993H19.2663V19.4861H17.7305V17.9993Z" fill="#5BC17F"/>
<path d="M15.0742 4.4375H16.6101V5.92434H15.0742V4.4375Z" fill="#5BC17F"/>
<path d="M15.3633 9.51123H16.8992V10.9981H15.3633V9.51123Z" fill="#5BC17F"/>
<path d="M5.09961 17.8923H6.63548V19.3792H5.09961V17.8923Z" fill="#5BC17F"/>
<path d="M4.7793 14.7456H9.09619V16.2324H4.7793V14.7456Z" fill="#5BC17F"/>
<path d="M2.33645 21.1523H0.849609V26.2077H5.90496V24.7209H2.33645V21.1523Z" fill="#5BC17F"/>
<path d="M21.1035 0.849121V2.33596H24.672V5.90447H26.1589V0.849121H21.1035Z" fill="#5BC17F"/>
<path d="M24.672 24.7209H21.1035V26.2077H26.1589V21.1523H24.672V24.7209Z" fill="#5BC17F"/>
</g>
<defs>
<clipPath id="clip0_181_2299">
<rect width="25.309" height="25.3585" fill="white" transform="translate(0.849609 0.849121)"/>
</clipPath>
</defs>
</svg>
