<svg width="27" height="27" viewBox="0 0 27 27" fill="none" xmlns="http://www.w3.org/2000/svg">
<g clip-path="url(#clip0_181_2288)">
<path d="M8.78648 21.7825C8.01936 20.4068 7.61367 18.7205 7.61367 16.8947C7.61367 13.8263 10.2699 11.3285 13.5285 11.3285C16.7934 11.3285 19.4434 13.8263 19.4434 16.8947C19.4434 17.2434 19.7287 17.5287 20.0774 17.5287C20.4261 17.5287 20.7114 17.2434 20.7114 16.8947C20.7114 13.1226 17.4908 10.0605 13.5286 10.0605C9.56637 10.0605 6.3457 13.1289 6.3457 16.8947C6.3457 18.9361 6.80852 20.8442 7.68338 22.4038C8.53923 23.9317 9.13517 24.6354 10.2319 25.7447C10.3587 25.8715 10.5172 25.9349 10.682 25.9349C10.8405 25.9349 11.0053 25.8779 11.1194 25.7447C11.373 25.5039 11.373 25.0981 11.1258 24.8509C10.1495 23.8683 9.60429 23.2407 8.78648 21.7825Z" fill="#5BC17F"/>
<path d="M6.47806 3.9048C8.65257 2.71927 11.0236 2.11703 13.5404 2.11703C16.0636 2.11703 18.1747 2.65591 20.6028 3.91116C20.6979 3.95555 20.793 3.98087 20.8944 3.98087C21.1226 3.98087 21.3445 3.8541 21.4586 3.63853C21.6171 3.32787 21.4967 2.9412 21.186 2.78268C18.5994 1.44507 16.2411 0.849121 13.5404 0.849121C10.8144 0.849121 8.23415 1.50212 5.86945 2.78904C5.55879 2.96021 5.45104 3.34059 5.61585 3.65125C5.78702 3.96185 6.1674 4.06967 6.47806 3.9048Z" fill="#5BC17F"/>
<path d="M13.4843 6.97314C9.39529 6.97314 5.65494 9.26177 3.96226 12.7993C3.38533 13.9975 3.09375 15.3795 3.09375 16.901C3.09375 18.6127 3.39805 20.2483 4.01931 21.9156C4.14609 22.2453 4.50745 22.4101 4.83713 22.2896C5.16681 22.1628 5.33162 21.8015 5.21114 21.4718C4.45669 19.4495 4.36795 17.89 4.36795 16.901C4.36795 15.5697 4.6152 14.3715 5.10969 13.3445C6.59316 10.238 9.88342 8.23475 13.4906 8.23475C18.556 8.23475 22.6768 12.1209 22.6768 16.901C22.6768 18.264 21.4912 19.3671 20.0395 19.3671C18.5878 19.3671 17.4022 18.2576 17.4022 16.901C17.4022 14.8406 15.6525 13.1669 13.497 13.1669C11.3415 13.1669 9.59178 14.8406 9.59178 16.901C9.59178 19.4051 10.5681 21.7571 12.3369 23.5195C13.7062 24.8825 15.0249 25.6306 17.0472 26.1822C17.0979 26.2012 17.1549 26.2076 17.212 26.2076C17.4909 26.2076 17.7445 26.0237 17.8206 25.7447C17.9157 25.4088 17.7128 25.0601 17.3768 24.965C15.589 24.4768 14.4225 23.8175 13.2243 22.6257C11.6965 21.1041 10.8533 19.0691 10.8533 16.9073C10.8533 15.5443 12.0389 14.4412 13.4906 14.4412C14.9423 14.4412 16.1278 15.5507 16.1278 16.9073C16.1278 18.9677 17.8839 20.6414 20.0331 20.6414C22.1822 20.6414 23.9383 18.9677 23.9383 16.9073C23.9384 11.4299 19.2471 6.97314 13.4843 6.97314Z" fill="#5BC17F"/>
<path d="M24.826 9.59773C23.5644 7.83534 21.9668 6.45326 20.0713 5.477C16.0773 3.42296 10.9803 3.42932 6.99265 5.48966C5.09077 6.47228 3.48682 7.86701 2.23158 9.64213C2.02873 9.92741 2.09845 10.3204 2.38373 10.5234C2.49784 10.5994 2.62462 10.6375 2.75145 10.6375C2.948 10.6375 3.14448 10.5487 3.27132 10.3776C4.40609 8.76732 5.85788 7.50572 7.57594 6.61819C11.2085 4.74168 15.8555 4.73532 19.4944 6.60553C21.2061 7.4804 22.6515 8.73564 23.7927 10.3332C23.9955 10.6185 24.3949 10.6819 24.6802 10.479C24.9655 10.276 25.0289 9.88301 24.826 9.59773Z" fill="#5BC17F"/>
<path d="M21.0931 22.201C20.5859 22.2897 20.0724 22.3214 19.7681 22.3214C18.5002 22.3214 17.4478 22.0235 16.5539 21.4149C15.0134 20.3689 14.0941 18.6825 14.0941 16.9011C14.0941 16.5524 13.8089 16.2671 13.4602 16.2671C13.1115 16.2671 12.8262 16.5524 12.8262 16.9011C12.8262 19.1073 13.9546 21.1867 15.8375 22.4672C16.9342 23.209 18.2593 23.5894 19.768 23.5894C19.9456 23.5894 20.5732 23.583 21.3149 23.4499C21.6573 23.3864 21.8919 23.0568 21.8284 22.7145C21.765 22.3721 21.4354 22.1376 21.0931 22.201Z" fill="#5BC17F"/>
</g>
<defs>
<clipPath id="clip0_181_2288">
<rect width="25.3585" height="25.3585" fill="white" transform="translate(0.849609 0.849121)"/>
</clipPath>
</defs>
</svg>
