<svg width="44" height="44" viewBox="0 0 44 44" fill="none" xmlns="http://www.w3.org/2000/svg">
<g clip-path="url(#clip0_181_1920)">
<path d="M22 0C9.845 0 0 9.845 0 22C0 34.155 9.845 44 22 44C34.155 44 44 34.155 44 22C44 9.845 34.155 0 22 0ZM26.9683 31.9183H24.475V36.8867H19.525V31.9183H13.3283V26.9683H26.9683C27.6467 26.9683 28.1967 26.4 28.1967 25.7217C28.1967 25.0433 27.6283 24.4933 26.9683 24.4933H17.0317C13.6217 24.4933 10.835 21.725 10.835 18.2967C10.835 14.8867 13.6217 12.1 17.0317 12.1H19.525V7.15H24.475V12.1H30.6717V17.0683H17.0317C16.3533 17.0683 15.8033 17.6367 15.8033 18.2967C15.8033 18.9933 16.3717 19.5433 17.0317 19.5433H26.95C30.36 19.5433 33.1467 22.3117 33.1467 25.7217C33.165 29.15 30.3783 31.9183 26.9683 31.9183Z" fill="#5BC17F"/>
<circle cx="22" cy="22" r="50" fill="#5BC17F" fill-opacity="0.1"/>
</g>
<defs>
<clipPath id="clip0_181_1920">
<rect width="44" height="44" fill="white"/>
</clipPath>
</defs>
</svg>
