<svg width="68" height="69" viewBox="0 0 68 69" fill="none" xmlns="http://www.w3.org/2000/svg">
<path d="M56.7286 23.842V53.272C56.7286 59.122 51.9886 63.872 46.1286 63.872H14.9086C9.05859 63.872 4.30859 59.132 4.30859 53.272V19.402C4.30859 13.552 9.04859 8.81201 14.9086 8.81201H44.8586C44.3286 10.092 44.0386 11.502 44.0386 12.972C44.0386 19.042 48.9786 23.982 55.0486 23.982C55.6186 23.972 56.1786 23.922 56.7286 23.842Z" fill="#5BC17F"/>
<path d="M20 43.2012L29.3931 34.1423L33.6361 38.2298L43 29.2012" stroke="#E7F4FD" stroke-width="5" stroke-miterlimit="10" stroke-linecap="round"/>
<path d="M55.048 21.592C59.8142 21.592 63.678 17.7282 63.678 12.962C63.678 8.19581 59.8142 4.33203 55.048 4.33203C50.2818 4.33203 46.418 8.19581 46.418 12.962C46.418 17.7282 50.2818 21.592 55.048 21.592Z" fill="#5BC17F"/>
</svg>
