<svg width="68" height="69" viewBox="0 0 68 69" fill="none" xmlns="http://www.w3.org/2000/svg">
<path fill-rule="evenodd" clip-rule="evenodd" d="M35.5563 39.1029H40.4094C41.5596 39.1029 42.5134 38.1679 42.5134 37.0062C42.5134 35.8162 41.5596 34.8812 40.4094 34.8812H35.5563V29.9795C35.5563 28.8179 34.6305 27.8829 33.4804 27.8829C32.3302 27.8829 31.3764 28.8179 31.3764 29.9795V34.8812H26.5513C25.4012 34.8812 24.4474 35.8162 24.4474 37.0062C24.4474 38.1679 25.4012 39.1029 26.5513 39.1029H31.3764V44.0045C31.3764 45.1662 32.3302 46.1012 33.4804 46.1012C34.6305 46.1012 35.5563 45.1662 35.5563 44.0045V39.1029ZM54.7906 25.7738C55.4499 25.7661 56.1679 25.7579 56.8203 25.7579C57.5216 25.7579 58.0827 26.3245 58.0827 27.0329V49.8129C58.0827 56.8395 52.4441 62.5345 45.4589 62.5345H23.1569C15.8632 62.5345 9.91602 56.5562 9.91602 49.1895V18.6462C9.91602 11.6195 15.5827 5.86786 22.5678 5.86786H37.548C38.2774 5.86786 38.8385 6.46286 38.8385 7.17119V16.2945C38.8385 21.4795 43.0744 25.7295 48.2081 25.7579C49.4072 25.7579 50.4643 25.7668 51.3895 25.7747C52.1092 25.7808 52.7491 25.7862 53.3137 25.7862C53.713 25.7862 54.2307 25.7802 54.7906 25.7738ZM55.561 21.6388C53.2551 21.6473 50.5368 21.6388 48.5815 21.6189C45.4788 21.6189 42.9232 19.0378 42.9232 15.9041V8.43543C42.9232 7.21426 44.3904 6.60793 45.2292 7.48909C46.7485 9.08467 48.8368 11.2784 50.9152 13.4616C52.9851 15.636 55.0451 17.7999 56.5232 19.3523C57.3424 20.2108 56.742 21.6359 55.561 21.6388Z" fill="#5BC17F"/>
</svg>
