<svg width="68" height="69" viewBox="0 0 68 69" fill="none" xmlns="http://www.w3.org/2000/svg">
<path fill-rule="evenodd" clip-rule="evenodd" d="M21.3802 9.48864C21.851 9.82853 22.6104 10.6093 22.6104 10.6093C25.5582 13.3721 29.9983 20.244 31.4241 23.7304C31.454 23.7304 32.2995 25.8034 32.3327 26.7894V26.9207C32.3327 28.4317 31.4871 29.8451 30.1276 30.5686C29.5671 30.8669 28.2039 31.1443 27.5462 31.2782C27.3284 31.3225 27.188 31.3511 27.1797 31.3594C25.2366 31.6556 22.2556 31.8508 18.9828 31.8508C15.5475 31.8508 12.4371 31.6556 10.5238 31.2921C10.4907 31.2921 8.74319 30.9321 8.15959 30.6999C7.31735 30.3398 6.60442 29.6802 6.15014 28.8591C5.82518 28.2028 5.66602 27.5096 5.66602 26.7894C5.69586 26.0322 6.1833 24.6188 6.40878 24.0602C7.83463 20.3752 12.5001 13.3385 15.3518 10.6429C15.6481 10.3423 15.9852 10.0273 16.2198 9.80819C16.3449 9.69127 16.4409 9.60161 16.4859 9.55595C17.1988 8.99731 18.0742 8.70117 19.0159 8.70117C19.8549 8.70117 20.6971 8.96366 21.3802 9.48864ZM51.6471 28.9929C51.6471 30.477 50.4633 31.6784 49.001 31.6784C47.5387 31.6784 46.3549 30.477 46.3549 28.9929L45.6254 16.0195C45.6254 14.1282 47.1375 12.597 49.001 12.597C50.8646 12.597 52.3733 14.1282 52.3733 16.0195L51.6471 28.9929ZM59.8391 37.702C60.6814 38.0655 61.3943 38.7217 61.8486 39.5429C62.1735 40.1991 62.3327 40.8923 62.3327 41.6159C62.3028 42.3697 61.8154 43.7865 61.5866 44.3452C60.1641 48.0268 55.4952 55.0638 52.6469 57.7627C52.3556 58.0562 52.0247 58.3649 51.7907 58.5833L51.7905 58.5835C51.6597 58.7055 51.5592 58.7993 51.5128 58.8464C50.7966 59.405 49.9245 59.7012 48.9861 59.7012C48.1405 59.7012 47.2983 59.4387 46.6185 58.9103C46.1477 58.5738 45.3883 57.793 45.3883 57.793C42.4371 55.0335 38.0004 48.1581 36.5746 44.6716C36.5414 44.6716 35.6992 42.6019 35.666 41.6159V41.4846C35.666 39.9702 36.5083 38.5568 37.8711 37.8333C38.4304 37.5381 39.7893 37.2599 40.4485 37.125L40.4486 37.125C40.6686 37.0799 40.8107 37.0508 40.819 37.0424C42.7621 36.7463 45.7431 36.5511 49.0159 36.5511C52.4512 36.5511 55.5616 36.7463 57.4749 37.1097C57.5047 37.1097 59.2555 37.4698 59.8391 37.702ZM18.9984 36.7243C17.536 36.7243 16.3522 37.9257 16.3522 39.4098L15.6227 52.3829C15.6227 54.2741 17.1348 55.8053 18.9984 55.8053C20.8619 55.8053 22.3706 54.2741 22.3706 52.3829L21.6445 39.4098C21.6445 37.9257 20.4607 36.7243 18.9984 36.7243Z" fill="#5BC17F"/>
</svg>
