<svg width="36" height="48" viewBox="0 0 36 48" fill="none" xmlns="http://www.w3.org/2000/svg">
<path d="M10.2377 14.4515L8.70114 11.7902L7.1627 11.6758L6.5957 13.0058L8.13339 15.6691C9.23795 15.8717 10.0585 15.4435 10.2377 14.4515Z" fill="#B9C1CB"/>
<path d="M25.7637 14.4515L27.3002 11.7902L28.8387 11.6758L29.4057 13.0058L27.868 15.6691C26.7634 15.8717 25.9428 15.4435 25.7637 14.4515Z" fill="#B9C1CB"/>
<path d="M19.2492 10.3012C21.1776 9.74869 22.5244 7.95994 22.5244 5.95144C22.5244 3.45675 20.4948 1.42725 18.0002 1.42725C15.5055 1.42725 13.4759 3.45684 13.4759 5.95144C13.4759 7.95994 14.8227 9.74869 16.7511 10.3012L16.9468 11.8096C14.0991 11.3004 12.0488 8.79309 12.0488 5.95134C12.0487 2.66981 14.7185 0 18.0002 0C21.2818 0 23.9516 2.66981 23.9516 5.95134C23.9516 8.78897 21.9073 11.2931 19.0662 11.8073L19.2492 10.3012Z" fill="#DAE4EA"/>
<path d="M18.0003 13.0495C18.4871 13.0495 18.9691 13.0723 19.4459 13.1169V7.17615H16.5547V13.1169C17.0315 13.0723 17.5136 13.0495 18.0003 13.0495Z" fill="#B9C1CB"/>
<path d="M18.0005 48.0001C27.7595 48.0001 35.6708 40.0888 35.6708 30.3297C35.6708 20.5706 27.7595 12.6593 18.0005 12.6593C8.24137 12.6593 0.330078 20.5706 0.330078 30.3297C0.330078 40.0888 8.24137 48.0001 18.0005 48.0001Z" fill="#DAE4EA"/>
<path d="M20.1425 4.32739H15.8594C15.6468 4.32739 15.4746 4.49961 15.4746 4.71214V7.19071C15.4746 7.40324 15.6468 7.57546 15.8594 7.57546H20.1425C20.355 7.57546 20.5273 7.40324 20.5273 7.19071V4.71214C20.5273 4.49971 20.3549 4.32739 20.1425 4.32739Z" fill="#DAE4EA"/>
<path d="M8.92002 11.6638L6.37649 13.1323C6.28077 13.1876 6.15843 13.1548 6.10321 13.0591L4.20261 9.76727C4.1474 9.67156 4.18011 9.54921 4.27583 9.49399L6.81936 8.02549C6.91508 7.97027 7.03743 8.00299 7.09264 8.09871L8.99324 11.3906C9.04855 11.4862 9.01574 11.6085 8.92002 11.6638Z" fill="#DAE4EA"/>
<path d="M27.0825 11.6638L29.626 13.1323C29.7218 13.1876 29.8441 13.1548 29.8993 13.0591L31.7999 9.76727C31.8551 9.67156 31.8224 9.54921 31.7267 9.49399L29.1832 8.02549C29.0875 7.97027 28.9651 8.00299 28.9099 8.09871L27.0093 11.3906C26.954 11.4862 26.9868 11.6085 27.0825 11.6638Z" fill="#DAE4EA"/>
<path d="M18.0008 44.7874C25.9857 44.7874 32.4587 38.3144 32.4587 30.3295C32.4587 22.3447 25.9857 15.8717 18.0008 15.8717C10.016 15.8717 3.54297 22.3447 3.54297 30.3295C3.54297 38.3144 10.016 44.7874 18.0008 44.7874Z" fill="#F6F9F9"/>
<path d="M22.4859 16.5811C26.2147 19.1958 28.6524 23.5266 28.6524 28.4266C28.6524 36.4115 22.1794 42.8845 14.1945 42.8845C12.6287 42.8845 11.121 42.6356 9.70898 42.1751C12.0564 43.8212 14.9156 44.7873 18.0003 44.7873C25.9852 44.7873 32.4582 38.3144 32.4582 30.3295C32.4582 23.9105 28.2749 18.4685 22.4859 16.5811Z" fill="#E7ECF1"/>
<path d="M18 30.194V18.3873C18 18.3118 18.0618 18.2501 18.1372 18.251C24.6892 18.3243 30.0052 23.6404 30.0785 30.1922C30.0793 30.2677 30.0176 30.3295 29.9422 30.3295H18.1355C18.0607 30.3296 18 30.2688 18 30.194Z" fill="#DA4A54"/>
<path d="M29.9424 30.3296C30.0179 30.3296 30.0795 30.2678 30.0787 30.1924C30.0485 27.4959 29.1303 25.0088 27.6035 23.0104C28.2799 24.6833 28.6523 26.5115 28.6523 28.4268C28.6523 29.0718 28.61 29.7069 28.5282 30.3296H29.9424Z" fill="#D82E3D"/>
</svg>
