<svg width="49" height="50" viewBox="0 0 49 50" fill="none" xmlns="http://www.w3.org/2000/svg">
<path fill-rule="evenodd" clip-rule="evenodd" d="M18.5588 33.5515C27.6195 33.5515 35.3637 35.0422 35.3637 40.9968C35.3637 46.9515 27.6711 48.4848 18.5588 48.4848C9.49566 48.4848 1.75391 47.0075 1.75391 41.0502C1.75391 35.0928 9.44408 33.5515 18.5588 33.5515Z" stroke="#6DEDC3" stroke-width="2.5" stroke-linecap="round" stroke-linejoin="round"/>
<path fill-rule="evenodd" clip-rule="evenodd" d="M18.5597 25.0529C12.611 25.0529 7.78711 19.8183 7.78711 13.3596C7.78711 6.90093 12.611 1.66626 18.5597 1.66626C24.5061 1.66626 29.3299 6.90093 29.3299 13.3596C29.352 19.7943 24.5626 25.0289 18.6359 25.0529H18.5597Z" stroke="#6DEDC3" stroke-width="2.5" stroke-linecap="round" stroke-linejoin="round"/>
<path d="M35.4863 22.0178C39.4186 21.4178 42.447 17.7538 42.4544 13.3191C42.4544 8.94848 39.5193 5.32181 35.6705 4.63647" stroke="#6DEDC3" stroke-width="2.5" stroke-linecap="round" stroke-linejoin="round"/>
<path d="M40.6738 32.2859C44.4833 32.9019 47.1433 34.3526 47.1433 37.3392C47.1433 39.3952 45.8907 40.7285 43.8668 41.5632" stroke="#6DEDC3" stroke-width="2.5" stroke-linecap="round" stroke-linejoin="round"/>
</svg>
