<svg width="51" height="44" viewBox="0 0 51 44" fill="none" xmlns="http://www.w3.org/2000/svg">
<path d="M39.2324 19.0579C42.448 18.5352 44.9237 15.3459 44.9306 11.4819C44.9306 7.67386 42.531 4.51652 39.3846 3.91919" stroke="#C06EF3" stroke-width="2.5" stroke-linecap="round" stroke-linejoin="round"/>
<path d="M43.4746 28.0012C46.5888 28.5399 48.7624 29.8012 48.7624 32.4012C48.7624 34.1906 47.739 35.3532 46.0839 36.0839" stroke="#C06EF3" stroke-width="2.5" stroke-linecap="round" stroke-linejoin="round"/>
<path fill-rule="evenodd" clip-rule="evenodd" d="M25.4 29.1035C17.9915 29.1035 11.6641 30.4022 11.6641 35.5889C11.6641 40.7729 17.9523 42.1089 25.4 42.1089C32.8085 42.1089 39.1336 40.8235 39.1336 35.6342C39.1336 30.4448 32.8477 29.1035 25.4 29.1035Z" stroke="#C06EF3" stroke-width="2.5" stroke-linecap="round" stroke-linejoin="round"/>
<path fill-rule="evenodd" clip-rule="evenodd" d="M25.3988 21.7013C30.2602 21.7013 34.2019 17.1439 34.2019 11.5173C34.2019 5.89325 30.2602 1.33325 25.3988 1.33325C20.5374 1.33325 16.5958 5.89325 16.5958 11.5173C16.5773 17.1226 20.489 21.6826 25.3343 21.7013H25.3988Z" stroke="#C06EF3" stroke-width="2.5" stroke-linecap="round" stroke-linejoin="round"/>
<path d="M11.5653 19.0579C8.34745 18.5352 5.8741 15.3459 5.86719 11.4819C5.86719 7.67386 8.26677 4.51652 11.4132 3.91919" stroke="#C06EF3" stroke-width="2.5" stroke-linecap="round" stroke-linejoin="round"/>
<path d="M7.32104 28.0012C4.20689 28.5399 2.0332 29.8012 2.0332 32.4012C2.0332 34.1906 3.05666 35.3532 4.7117 36.0839" stroke="#C06EF3" stroke-width="2.5" stroke-linecap="round" stroke-linejoin="round"/>
</svg>
