<svg width="68" height="69" viewBox="0 0 68 69" fill="none" xmlns="http://www.w3.org/2000/svg">
<path d="M52.7028 21.8347H63.3647C64.2188 21.8347 64.9085 21.1429 64.9085 20.2886V15.6523C64.9085 12.8991 63.0932 10.58 60.5962 9.7891C59.9977 9.59881 59.3695 9.51952 58.7393 9.51952L6.18308 9.46997C2.77248 9.46997 0 12.241 0 15.6523V52.7485C0 56.1598 2.77248 58.9328 6.18308 58.9328H58.7274C62.136 58.9328 64.9085 56.1598 64.9085 52.7485V48.1122C64.9085 47.2599 64.2168 46.5681 63.3647 46.5681H52.5463C45.6894 46.5681 40.1187 40.9566 40.1841 34.0805C40.2475 27.2718 45.8955 21.8347 52.7028 21.8347Z" fill="#5BC17F"/>
<path d="M63.3606 24.9265H52.5422C47.4292 24.9265 43.2695 29.0871 43.2695 34.201C43.2695 39.317 47.4292 43.4756 52.5422 43.4756H63.3606C65.9171 43.4756 67.9959 41.3963 67.9959 38.8393V29.5648C67.9979 27.0058 65.9171 24.9265 63.3606 24.9265ZM52.5422 37.2932C50.8379 37.2932 49.4526 35.9057 49.4526 34.201C49.4526 32.4964 50.8398 31.1109 52.5422 31.1109C54.2445 31.1109 55.6317 32.4984 55.6317 34.201C55.6317 35.9037 54.2465 37.2932 52.5422 37.2932Z" fill="#5BC17F"/>
</svg>
