<svg width="228" height="143" viewBox="0 0 228 143" fill="none" xmlns="http://www.w3.org/2000/svg">
<rect x="24.7355" width="177.529" height="133.359" rx="13.5907" fill="white"/>
<rect x="25.1602" y="0.42471" width="176.68" height="132.51" rx="13.166" stroke="black" stroke-opacity="0.11" stroke-width="0.849421"/>
<rect x="11.9942" y="8.49414" width="203.012" height="133.359" rx="13.5907" fill="white"/>
<rect x="12.4189" y="8.91885" width="202.162" height="132.51" rx="13.166" stroke="black" stroke-opacity="0.11" stroke-width="0.849421"/>
<rect y="17" width="228" height="126" rx="13.5907" fill="white"/>
<rect x="0.42471" y="17.4247" width="227.151" height="125.151" rx="13.166" stroke="black" stroke-opacity="0.11" stroke-width="0.849421"/>
<path d="M20.9807 38.6071V37.8107H26.5405V38.6071H24.2094V45.2239H23.3118V38.6071H20.9807ZM28.0528 41.8793V45.2239H27.1986V37.8107H28.0528V40.5328H28.1252C28.2555 40.2456 28.451 40.0176 28.7116 39.8486C28.9746 39.6773 29.3245 39.5916 29.7613 39.5916C30.1402 39.5916 30.472 39.6677 30.7567 39.8197C31.0415 39.9693 31.2623 40.1997 31.4191 40.511C31.5784 40.8199 31.658 41.2133 31.658 41.6911V45.2239H30.8038V41.749C30.8038 41.3074 30.6891 40.9659 30.4599 40.7246C30.2331 40.4809 29.9181 40.359 29.5152 40.359C29.2352 40.359 28.9843 40.4181 28.7623 40.5364C28.5427 40.6546 28.3689 40.8272 28.241 41.054C28.1155 41.2808 28.0528 41.5559 28.0528 41.8793ZM32.6092 45.2239V39.664H33.4635V45.2239H32.6092ZM33.0436 38.7374C32.8771 38.7374 32.7335 38.6807 32.6128 38.5673C32.4946 38.4538 32.4355 38.3175 32.4355 38.1582C32.4355 37.999 32.4946 37.8626 32.6128 37.7492C32.7335 37.6358 32.8771 37.5791 33.0436 37.5791C33.2101 37.5791 33.3525 37.6358 33.4707 37.7492C33.5914 37.8626 33.6517 37.999 33.6517 38.1582C33.6517 38.3175 33.5914 38.4538 33.4707 38.5673C33.3525 38.6807 33.2101 38.7374 33.0436 38.7374ZM38.3547 40.9092L37.5874 41.1264C37.5391 40.9985 37.4679 40.8742 37.3738 40.7536C37.2821 40.6305 37.1566 40.5291 36.9973 40.4495C36.8381 40.3699 36.6342 40.3301 36.3856 40.3301C36.0454 40.3301 35.7618 40.4085 35.535 40.5653C35.3106 40.7198 35.1984 40.9164 35.1984 41.1553C35.1984 41.3677 35.2756 41.5354 35.43 41.6585C35.5845 41.7816 35.8258 41.8841 36.154 41.9662L36.9792 42.1689C37.4764 42.2895 37.8468 42.4741 38.0905 42.7227C38.3342 42.9688 38.4561 43.2861 38.4561 43.6746C38.4561 43.9932 38.3644 44.2779 38.181 44.5289C38 44.7799 37.7466 44.9777 37.4208 45.1225C37.0951 45.2673 36.7162 45.3397 36.2843 45.3397C35.7172 45.3397 35.2478 45.2166 34.8762 44.9705C34.5046 44.7244 34.2693 44.3648 34.1704 43.8918L34.9812 43.6891C35.0584 43.9884 35.2044 44.2128 35.4192 44.3624C35.6363 44.512 35.9199 44.5868 36.2698 44.5868C36.668 44.5868 36.9841 44.5024 37.2181 44.3334C37.4546 44.1621 37.5729 43.957 37.5729 43.7181C37.5729 43.525 37.5053 43.3634 37.3702 43.233C37.235 43.1003 37.0275 43.0014 36.7476 42.9362L35.8209 42.7191C35.3118 42.5984 34.9377 42.4114 34.6988 42.158C34.4624 41.9022 34.3441 41.5825 34.3441 41.1988C34.3441 40.8851 34.4322 40.6076 34.6083 40.3663C34.7869 40.1249 35.0294 39.9355 35.3359 39.798C35.6448 39.6604 35.9947 39.5916 36.3856 39.5916C36.9358 39.5916 37.3678 39.7123 37.6815 39.9536C37.9976 40.1949 38.222 40.5135 38.3547 40.9092ZM41.5014 37.8107H42.5729L45.0922 43.9642H45.179L47.6983 37.8107H48.7698V45.2239H47.93V39.5916H47.8576L45.541 45.2239H44.7302L42.4136 39.5916H42.3412V45.2239H41.5014V37.8107ZM52.1009 45.3397C51.599 45.3397 51.1586 45.2203 50.7798 44.9814C50.4033 44.7425 50.1089 44.4082 49.8965 43.9787C49.6866 43.5492 49.5816 43.0472 49.5816 42.4729C49.5816 41.8938 49.6866 41.3882 49.8965 40.9563C50.1089 40.5243 50.4033 40.1889 50.7798 39.95C51.1586 39.7111 51.599 39.5916 52.1009 39.5916C52.6029 39.5916 53.0421 39.7111 53.4185 39.95C53.7974 40.1889 54.0918 40.5243 54.3017 40.9563C54.5141 41.3882 54.6202 41.8938 54.6202 42.4729C54.6202 43.0472 54.5141 43.5492 54.3017 43.9787C54.0918 44.4082 53.7974 44.7425 53.4185 44.9814C53.0421 45.2203 52.6029 45.3397 52.1009 45.3397ZM52.1009 44.5723C52.4822 44.5723 52.7959 44.4746 53.0421 44.2791C53.2882 44.0837 53.4704 43.8267 53.5886 43.5081C53.7069 43.1896 53.766 42.8445 53.766 42.4729C53.766 42.1013 53.7069 41.755 53.5886 41.4341C53.4704 41.1131 53.2882 40.8537 53.0421 40.6558C52.7959 40.4579 52.4822 40.359 52.1009 40.359C51.7197 40.359 51.406 40.4579 51.1598 40.6558C50.9137 40.8537 50.7315 41.1131 50.6132 41.4341C50.495 41.755 50.4359 42.1013 50.4359 42.4729C50.4359 42.8445 50.495 43.1896 50.6132 43.5081C50.7315 43.8267 50.9137 44.0837 51.1598 44.2791C51.406 44.4746 51.7197 44.5723 52.1009 44.5723ZM56.1669 41.8793V45.2239H55.3127V39.664H56.1379V40.5328H56.2103C56.3406 40.2504 56.5385 40.0236 56.804 39.8523C57.0694 39.6785 57.4121 39.5916 57.832 39.5916C58.2084 39.5916 58.5378 39.6689 58.8201 39.8233C59.1025 39.9753 59.3221 40.207 59.4789 40.5183C59.6358 40.8272 59.7142 41.2181 59.7142 41.6911V45.2239H58.86V41.749C58.86 41.3122 58.7465 40.9719 58.5197 40.7282C58.2929 40.4821 57.9816 40.359 57.5858 40.359C57.3131 40.359 57.0694 40.4181 56.8546 40.5364C56.6423 40.6546 56.4746 40.8272 56.3515 41.054C56.2284 41.2808 56.1669 41.5559 56.1669 41.8793ZM63.0816 39.664V40.388H60.2003V39.664H63.0816ZM61.0401 38.332H61.8943V43.6312C61.8943 43.8725 61.9293 44.0535 61.9993 44.1742C62.0717 44.2924 62.1634 44.372 62.2744 44.4131C62.3878 44.4517 62.5072 44.471 62.6327 44.471C62.7268 44.471 62.8041 44.4662 62.8644 44.4565C62.9247 44.4444 62.973 44.4348 63.0092 44.4275L63.1829 45.1949C63.125 45.2166 63.0442 45.2384 62.9404 45.2601C62.8366 45.2842 62.7051 45.2963 62.5458 45.2963C62.3045 45.2963 62.068 45.2444 61.8364 45.1406C61.6071 45.0369 61.4165 44.8788 61.2645 44.6664C61.1149 44.4541 61.0401 44.1862 61.0401 43.8629V38.332ZM64.7287 41.8793V45.2239H63.8744V37.8107H64.7287V40.5328H64.8011C64.9314 40.2456 65.1268 40.0176 65.3875 39.8486C65.6505 39.6773 66.0004 39.5916 66.4372 39.5916C66.816 39.5916 67.1478 39.6677 67.4326 39.8197C67.7173 39.9693 67.9381 40.1997 68.095 40.511C68.2542 40.8199 68.3339 41.2133 68.3339 41.6911V45.2239H67.4796V41.749C67.4796 41.3074 67.365 40.9659 67.1358 40.7246C66.9089 40.4809 66.594 40.359 66.191 40.359C65.9111 40.359 65.6601 40.4181 65.4381 40.5364C65.2185 40.6546 65.0448 40.8272 64.9169 41.054C64.7914 41.2808 64.7287 41.5559 64.7287 41.8793Z" fill="#101010"/>
<rect x="20.4885" y="71.3513" width="14.5064" height="52.6641" rx="2.54826" fill="url(#paint0_linear_824_18603)"/>
<rect x="40.1148" y="86.6409" width="14.5064" height="37.3745" rx="2.54826" fill="url(#paint1_linear_824_18603)"/>
<rect x="58.8875" y="59.4595" width="14.5064" height="64.556" rx="2.54826" fill="url(#paint2_linear_824_18603)"/>
<rect x="78.5142" y="75.5984" width="14.5064" height="48.417" rx="2.54826" fill="url(#paint3_linear_824_18603)"/>
<rect x="97.2869" y="95.135" width="14.5064" height="28.8803" rx="2.54826" fill="url(#paint4_linear_824_18603)"/>
<rect x="116.06" y="67.1042" width="14.5064" height="56.9112" rx="2.54826" fill="url(#paint5_linear_824_18603)"/>
<rect x="135.687" y="83.2432" width="14.5064" height="40.7722" rx="2.54826" fill="url(#paint6_linear_824_18603)"/>
<rect x="154.459" y="62.0076" width="14.5064" height="62.0077" rx="2.54826" fill="url(#paint7_linear_824_18603)"/>
<rect x="173.232" y="93.4363" width="14.5064" height="30.5792" rx="2.54826" fill="url(#paint8_linear_824_18603)"/>
<rect x="192.006" y="75.5984" width="14.5064" height="48.417" rx="2.54826" fill="url(#paint9_linear_824_18603)"/>
<path opacity="0.18" d="M22.3562 132.803H22.805V135.453C22.805 135.689 22.7616 135.89 22.6747 136.055C22.5878 136.221 22.4654 136.346 22.3073 136.432C22.1492 136.517 21.9628 136.56 21.7481 136.56C21.5454 136.56 21.365 136.523 21.2069 136.45C21.0489 136.375 20.9246 136.269 20.8341 136.131C20.7436 135.994 20.6983 135.83 20.6983 135.641H21.1399C21.1399 135.746 21.1659 135.837 21.2178 135.916C21.2709 135.993 21.3433 136.053 21.435 136.097C21.5267 136.14 21.631 136.162 21.7481 136.162C21.8772 136.162 21.987 136.135 22.0774 136.081C22.1679 136.026 22.2367 135.947 22.2838 135.842C22.332 135.736 22.3562 135.606 22.3562 135.453V132.803ZM24.1588 136.575C23.9827 136.575 23.8228 136.541 23.6792 136.475C23.5357 136.408 23.4216 136.31 23.3372 136.184C23.2527 136.056 23.2105 135.901 23.2105 135.72C23.2105 135.561 23.2419 135.432 23.3046 135.333C23.3673 135.233 23.4512 135.155 23.5562 135.098C23.6611 135.041 23.777 134.999 23.9037 134.971C24.0316 134.942 24.16 134.919 24.2892 134.902C24.4581 134.881 24.595 134.864 24.7 134.854C24.8062 134.841 24.8834 134.822 24.9316 134.794C24.9811 134.766 25.0059 134.718 25.0059 134.649V134.635C25.0059 134.456 24.957 134.317 24.8593 134.218C24.7627 134.119 24.6161 134.07 24.4195 134.07C24.2156 134.07 24.0557 134.114 23.9399 134.204C23.824 134.293 23.7426 134.388 23.6955 134.49L23.2901 134.345C23.3625 134.176 23.459 134.045 23.5797 133.95C23.7016 133.855 23.8343 133.789 23.9779 133.751C24.1226 133.713 24.265 133.693 24.405 133.693C24.4943 133.693 24.5968 133.704 24.7127 133.726C24.8297 133.746 24.9425 133.789 25.0511 133.854C25.1609 133.92 25.252 134.018 25.3244 134.149C25.3968 134.281 25.433 134.457 25.433 134.678V136.51H25.0059V136.133H24.9841C24.9552 136.193 24.9069 136.258 24.8393 136.327C24.7718 136.396 24.6819 136.454 24.5697 136.502C24.4575 136.551 24.3205 136.575 24.1588 136.575ZM24.224 136.191C24.3929 136.191 24.5353 136.158 24.6511 136.091C24.7682 136.025 24.8562 135.939 24.9154 135.834C24.9757 135.729 25.0059 135.619 25.0059 135.503V135.112C24.9878 135.134 24.9479 135.154 24.8864 135.172C24.8261 135.189 24.7561 135.204 24.6765 135.217C24.598 135.229 24.5214 135.24 24.4466 135.25C24.373 135.258 24.3133 135.266 24.2674 135.272C24.1564 135.286 24.0527 135.31 23.9561 135.342C23.8608 135.374 23.7836 135.421 23.7245 135.485C23.6666 135.548 23.6376 135.634 23.6376 135.742C23.6376 135.891 23.6925 136.003 23.8023 136.079C23.9133 136.154 24.0539 136.191 24.224 136.191ZM26.3339 134.837V136.51H25.9068V133.73H26.3194V134.164H26.3556C26.4208 134.023 26.5197 133.909 26.6524 133.824C26.7852 133.737 26.9565 133.693 27.1664 133.693C27.3546 133.693 27.5193 133.732 27.6605 133.809C27.8017 133.885 27.9115 134.001 27.9899 134.157C28.0683 134.311 28.1075 134.507 28.1075 134.743V136.51H27.6804V134.772C27.6804 134.554 27.6237 134.384 27.5103 134.262C27.3969 134.139 27.2412 134.077 27.0434 134.077C26.907 134.077 26.7852 134.107 26.6778 134.166C26.5716 134.225 26.4877 134.311 26.4262 134.425C26.3647 134.538 26.3339 134.676 26.3339 134.837Z" fill="#101010"/>
<path opacity="0.18" d="M40.4739 136.51V132.803H42.6964V133.201H40.9228V134.454H42.5299V134.852H40.9228V136.51H40.4739ZM44.0629 136.567C43.7951 136.567 43.564 136.508 43.3698 136.39C43.1767 136.271 43.0277 136.104 42.9227 135.891C42.819 135.676 42.7671 135.426 42.7671 135.141C42.7671 134.857 42.819 134.606 42.9227 134.388C43.0277 134.17 43.1737 134 43.3607 133.878C43.5489 133.755 43.7685 133.693 44.0195 133.693C44.1643 133.693 44.3073 133.718 44.4484 133.766C44.5896 133.814 44.7181 133.892 44.8339 134.001C44.9497 134.108 45.0421 134.251 45.1108 134.428C45.1796 134.606 45.214 134.824 45.214 135.083V135.264H43.0711V134.895H44.7796C44.7796 134.738 44.7483 134.598 44.6855 134.475C44.624 134.352 44.5359 134.255 44.4213 134.184C44.3079 134.113 44.1739 134.077 44.0195 134.077C43.8494 134.077 43.7022 134.119 43.5779 134.204C43.4548 134.287 43.3601 134.396 43.2937 134.53C43.2274 134.663 43.1942 134.807 43.1942 134.96V135.206C43.1942 135.416 43.2304 135.594 43.3028 135.74C43.3764 135.885 43.4783 135.996 43.6087 136.072C43.739 136.146 43.8904 136.184 44.0629 136.184C44.1751 136.184 44.2765 136.168 44.367 136.137C44.4587 136.104 44.5377 136.056 44.6041 135.992C44.6704 135.927 44.7217 135.846 44.7579 135.749L45.1705 135.865C45.1271 136.005 45.0541 136.128 44.9516 136.234C44.849 136.339 44.7223 136.421 44.5715 136.481C44.4207 136.538 44.2511 136.567 44.0629 136.567ZM45.6158 136.51V132.803H46.043V134.171H46.0792C46.1105 134.123 46.154 134.061 46.2095 133.987C46.2662 133.911 46.347 133.843 46.452 133.784C46.5582 133.724 46.7018 133.693 46.8827 133.693C47.1168 133.693 47.3231 133.752 47.5017 133.869C47.6803 133.986 47.8196 134.152 47.9198 134.367C48.0199 134.581 48.07 134.835 48.07 135.127C48.07 135.421 48.0199 135.676 47.9198 135.892C47.8196 136.107 47.6809 136.274 47.5035 136.392C47.3261 136.509 47.1216 136.567 46.89 136.567C46.7114 136.567 46.5684 136.538 46.461 136.479C46.3537 136.418 46.271 136.35 46.2131 136.274C46.1552 136.197 46.1105 136.133 46.0792 136.082H46.0285V136.51H45.6158ZM46.0357 135.12C46.0357 135.33 46.0665 135.515 46.128 135.675C46.1896 135.834 46.2795 135.959 46.3977 136.05C46.5159 136.139 46.6607 136.184 46.8321 136.184C47.0106 136.184 47.1596 136.137 47.2791 136.043C47.3997 135.947 47.4902 135.819 47.5506 135.659C47.6121 135.497 47.6429 135.317 47.6429 135.12C47.6429 134.924 47.6127 134.748 47.5524 134.591C47.4933 134.433 47.4034 134.308 47.2827 134.216C47.1633 134.124 47.013 134.077 46.8321 134.077C46.6583 134.077 46.5123 134.121 46.3941 134.209C46.2758 134.296 46.1865 134.418 46.1262 134.575C46.0659 134.73 46.0357 134.912 46.0357 135.12Z" fill="#101010"/>
<path opacity="0.18" d="M59.1612 132.803H59.6969L60.9565 135.88H61L62.2596 132.803H62.7954V136.51H62.3755V133.693H62.3393L61.181 136.51H60.7756L59.6173 133.693H59.5811V136.51H59.1612V132.803ZM64.1496 136.575C63.9735 136.575 63.8136 136.541 63.67 136.475C63.5265 136.408 63.4124 136.31 63.328 136.184C63.2435 136.056 63.2013 135.901 63.2013 135.72C63.2013 135.561 63.2327 135.432 63.2954 135.333C63.3581 135.233 63.442 135.155 63.547 135.098C63.6519 135.041 63.7678 134.999 63.8945 134.971C64.0224 134.942 64.1508 134.919 64.28 134.902C64.4489 134.881 64.5858 134.864 64.6908 134.854C64.797 134.841 64.8742 134.822 64.9224 134.794C64.9719 134.766 64.9967 134.718 64.9967 134.649V134.635C64.9967 134.456 64.9478 134.317 64.8501 134.218C64.7535 134.119 64.6069 134.07 64.4103 134.07C64.2064 134.07 64.0465 134.114 63.9307 134.204C63.8148 134.293 63.7334 134.388 63.6863 134.49L63.2809 134.345C63.3533 134.176 63.4498 134.045 63.5705 133.95C63.6924 133.855 63.8251 133.789 63.9687 133.751C64.1134 133.713 64.2558 133.693 64.3958 133.693C64.4851 133.693 64.5876 133.704 64.7035 133.726C64.8205 133.746 64.9333 133.789 65.0419 133.854C65.1517 133.92 65.2428 134.018 65.3152 134.149C65.3876 134.281 65.4238 134.457 65.4238 134.678V136.51H64.9967V136.133H64.9749C64.946 136.193 64.8977 136.258 64.8301 136.327C64.7626 136.396 64.6727 136.454 64.5605 136.502C64.4483 136.551 64.3113 136.575 64.1496 136.575ZM64.2148 136.191C64.3837 136.191 64.5261 136.158 64.6419 136.091C64.759 136.025 64.847 135.939 64.9062 135.834C64.9665 135.729 64.9967 135.619 64.9967 135.503V135.112C64.9786 135.134 64.9387 135.154 64.8772 135.172C64.8169 135.189 64.7469 135.204 64.6673 135.217C64.5888 135.229 64.5122 135.24 64.4374 135.25C64.3638 135.258 64.3041 135.266 64.2582 135.272C64.1472 135.286 64.0435 135.31 63.9469 135.342C63.8516 135.374 63.7744 135.421 63.7153 135.485C63.6574 135.548 63.6284 135.634 63.6284 135.742C63.6284 135.891 63.6833 136.003 63.7931 136.079C63.9041 136.154 64.0447 136.191 64.2148 136.191ZM65.8976 136.51V133.73H66.3102V134.149H66.3392C66.3899 134.012 66.4816 133.9 66.6143 133.815C66.747 133.729 66.8966 133.686 67.0631 133.686C67.0945 133.686 67.1337 133.687 67.1808 133.688C67.2278 133.689 67.2634 133.691 67.2875 133.693V134.128C67.2731 134.124 67.2399 134.119 67.188 134.111C67.1373 134.103 67.0836 134.099 67.0269 134.099C66.8918 134.099 66.7711 134.127 66.6649 134.184C66.56 134.239 66.4767 134.317 66.4152 134.416C66.3549 134.513 66.3247 134.625 66.3247 134.75V136.51H65.8976Z" fill="#101010"/>
<path opacity="0.18" d="M78.8499 136.51H78.3793L79.7403 132.803H80.2037L81.5647 136.51H81.0941L79.9865 133.389H79.9575L78.8499 136.51ZM79.0236 135.062H80.9204V135.46H79.0236V135.062ZM81.7783 137.552V133.73H82.1909V134.171H82.2416C82.273 134.123 82.3164 134.061 82.3719 133.987C82.4286 133.911 82.5095 133.843 82.6144 133.784C82.7206 133.724 82.8642 133.693 83.0452 133.693C83.2793 133.693 83.4856 133.752 83.6642 133.869C83.8427 133.986 83.9821 134.152 84.0822 134.367C84.1824 134.581 84.2324 134.835 84.2324 135.127C84.2324 135.421 84.1824 135.676 84.0822 135.892C83.9821 136.107 83.8433 136.274 83.666 136.392C83.4886 136.509 83.2841 136.567 83.0524 136.567C82.8739 136.567 82.7309 136.538 82.6235 136.479C82.5161 136.418 82.4335 136.35 82.3755 136.274C82.3176 136.197 82.273 136.133 82.2416 136.082H82.2054V137.552H81.7783ZM82.1982 135.12C82.1982 135.33 82.2289 135.515 82.2905 135.675C82.352 135.834 82.4419 135.959 82.5601 136.05C82.6784 136.139 82.8232 136.184 82.9945 136.184C83.1731 136.184 83.3221 136.137 83.4415 136.043C83.5622 135.947 83.6527 135.819 83.713 135.659C83.7746 135.497 83.8053 135.317 83.8053 135.12C83.8053 134.924 83.7752 134.748 83.7148 134.591C83.6557 134.433 83.5658 134.308 83.4452 134.216C83.3257 134.124 83.1755 134.077 82.9945 134.077C82.8208 134.077 82.6748 134.121 82.5565 134.209C82.4383 134.296 82.349 134.418 82.2887 134.575C82.2283 134.73 82.1982 134.912 82.1982 135.12ZM84.5782 136.51V133.73H84.9908V134.149H85.0198C85.0705 134.012 85.1622 133.9 85.2949 133.815C85.4276 133.729 85.5772 133.686 85.7437 133.686C85.7751 133.686 85.8143 133.687 85.8614 133.688C85.9084 133.689 85.944 133.691 85.9682 133.693V134.128C85.9537 134.124 85.9205 134.119 85.8686 134.111C85.8179 134.103 85.7643 134.099 85.7075 134.099C85.5724 134.099 85.4518 134.127 85.3456 134.184C85.2406 134.239 85.1573 134.317 85.0958 134.416C85.0355 134.513 85.0053 134.625 85.0053 134.75V136.51H84.5782Z" fill="#101010"/>
<path opacity="0.18" d="M97.3851 130.255H97.9208L99.1805 133.332H99.2239L100.484 130.255H101.019V133.961H100.599V131.145H100.563L99.4049 133.961H98.9995L97.8412 131.145H97.805V133.961H97.3851V130.255ZM102.374 134.027C102.197 134.027 102.038 133.993 101.894 133.927C101.75 133.859 101.636 133.762 101.552 133.636C101.467 133.508 101.425 133.353 101.425 133.172C101.425 133.013 101.457 132.884 101.519 132.785C101.582 132.685 101.666 132.606 101.771 132.55C101.876 132.493 101.992 132.451 102.118 132.423C102.246 132.394 102.375 132.371 102.504 132.354C102.673 132.333 102.81 132.316 102.915 132.305C103.021 132.293 103.098 132.273 103.146 132.246C103.196 132.218 103.221 132.17 103.221 132.101V132.086C103.221 131.908 103.172 131.769 103.074 131.67C102.977 131.571 102.831 131.522 102.634 131.522C102.43 131.522 102.27 131.566 102.155 131.656C102.039 131.745 101.957 131.84 101.91 131.942L101.505 131.797C101.577 131.628 101.674 131.496 101.794 131.402C101.916 131.307 102.049 131.241 102.193 131.203C102.337 131.165 102.48 131.145 102.62 131.145C102.709 131.145 102.812 131.156 102.927 131.178C103.044 131.198 103.157 131.241 103.266 131.306C103.376 131.372 103.467 131.47 103.539 131.601C103.612 131.733 103.648 131.909 103.648 132.13V133.961H103.221V133.585H103.199C103.17 133.645 103.122 133.71 103.054 133.779C102.987 133.847 102.897 133.906 102.784 133.954C102.672 134.002 102.535 134.027 102.374 134.027ZM102.439 133.643C102.608 133.643 102.75 133.61 102.866 133.543C102.983 133.477 103.071 133.391 103.13 133.286C103.19 133.181 103.221 133.071 103.221 132.955V132.564C103.202 132.586 103.163 132.606 103.101 132.624C103.041 132.641 102.971 132.656 102.891 132.669C102.813 132.681 102.736 132.692 102.661 132.702C102.588 132.71 102.528 132.717 102.482 132.723C102.371 132.738 102.267 132.761 102.171 132.794C102.076 132.825 101.998 132.873 101.939 132.937C101.881 133 101.852 133.085 101.852 133.194C101.852 133.342 101.907 133.455 102.017 133.531C102.128 133.605 102.269 133.643 102.439 133.643ZM104.297 135.004C104.225 135.004 104.16 134.998 104.103 134.986C104.047 134.975 104.007 134.964 103.986 134.953L104.094 134.577C104.198 134.603 104.29 134.613 104.369 134.606C104.449 134.598 104.52 134.563 104.581 134.499C104.644 134.436 104.701 134.334 104.753 134.193L104.833 133.976L103.805 131.182H104.268L105.035 133.397H105.064L105.832 131.182H106.295L105.115 134.367C105.062 134.51 104.996 134.629 104.918 134.723C104.839 134.819 104.748 134.889 104.645 134.935C104.542 134.981 104.426 135.004 104.297 135.004Z" fill="#101010"/>
<path opacity="0.18" d="M117.491 132.803H117.94V135.453C117.94 135.689 117.897 135.89 117.81 136.055C117.723 136.221 117.6 136.346 117.442 136.432C117.284 136.517 117.098 136.56 116.883 136.56C116.68 136.56 116.5 136.523 116.342 136.45C116.184 136.375 116.06 136.269 115.969 136.131C115.879 135.994 115.833 135.83 115.833 135.641H116.275C116.275 135.746 116.301 135.837 116.353 135.916C116.406 135.993 116.478 136.053 116.57 136.097C116.662 136.14 116.766 136.162 116.883 136.162C117.012 136.162 117.122 136.135 117.213 136.081C117.303 136.026 117.372 135.947 117.419 135.842C117.467 135.736 117.491 135.606 117.491 135.453V132.803ZM120.228 135.373V133.73H120.655V136.51H120.228V136.039H120.199C120.134 136.18 120.032 136.3 119.895 136.399C119.757 136.497 119.584 136.546 119.374 136.546C119.2 136.546 119.045 136.508 118.91 136.432C118.775 136.354 118.669 136.239 118.592 136.084C118.515 135.929 118.476 135.732 118.476 135.496V133.73H118.903V135.467C118.903 135.67 118.96 135.831 119.073 135.952C119.188 136.073 119.334 136.133 119.511 136.133C119.617 136.133 119.725 136.106 119.835 136.052C119.946 135.997 120.039 135.914 120.114 135.802C120.19 135.69 120.228 135.547 120.228 135.373ZM121.559 134.837V136.51H121.131V133.73H121.544V134.164H121.58C121.645 134.023 121.744 133.909 121.877 133.824C122.01 133.737 122.181 133.693 122.391 133.693C122.579 133.693 122.744 133.732 122.885 133.809C123.026 133.885 123.136 134.001 123.215 134.157C123.293 134.311 123.332 134.507 123.332 134.743V136.51H122.905V134.772C122.905 134.554 122.848 134.384 122.735 134.262C122.622 134.139 122.466 134.077 122.268 134.077C122.132 134.077 122.01 134.107 121.902 134.166C121.796 134.225 121.712 134.311 121.651 134.425C121.589 134.538 121.559 134.676 121.559 134.837Z" fill="#101010"/>
<path opacity="0.18" d="M137.028 132.803H137.477V135.453C137.477 135.689 137.433 135.89 137.347 136.055C137.26 136.221 137.137 136.346 136.979 136.432C136.821 136.517 136.635 136.56 136.42 136.56C136.217 136.56 136.037 136.523 135.879 136.45C135.721 136.375 135.596 136.269 135.506 136.131C135.415 135.994 135.37 135.83 135.37 135.641H135.812C135.812 135.746 135.838 135.837 135.89 135.916C135.943 135.993 136.015 136.053 136.107 136.097C136.198 136.14 136.303 136.162 136.42 136.162C136.549 136.162 136.659 136.135 136.749 136.081C136.84 136.026 136.909 135.947 136.956 135.842C137.004 135.736 137.028 135.606 137.028 135.453V132.803ZM139.765 135.373V133.73H140.192V136.51H139.765V136.039H139.736C139.67 136.18 139.569 136.3 139.432 136.399C139.294 136.497 139.12 136.546 138.91 136.546C138.737 136.546 138.582 136.508 138.447 136.432C138.312 136.354 138.206 136.239 138.128 136.084C138.051 135.929 138.013 135.732 138.013 135.496V133.73H138.44V135.467C138.44 135.67 138.496 135.831 138.61 135.952C138.724 136.073 138.87 136.133 139.048 136.133C139.154 136.133 139.262 136.106 139.372 136.052C139.483 135.997 139.576 135.914 139.651 135.802C139.727 135.69 139.765 135.547 139.765 135.373ZM141.095 132.803V136.51H140.668V132.803H141.095ZM141.847 137.552C141.775 137.552 141.71 137.546 141.653 137.534C141.597 137.523 141.557 137.512 141.536 137.501L141.644 137.125C141.748 137.151 141.84 137.161 141.919 137.154C141.999 137.147 142.07 137.111 142.131 137.047C142.194 136.984 142.251 136.882 142.303 136.741L142.383 136.524L141.355 133.73H141.818L142.585 135.945H142.614L143.382 133.73H143.845L142.665 136.915C142.612 137.059 142.546 137.177 142.468 137.271C142.389 137.367 142.298 137.437 142.194 137.483C142.092 137.529 141.976 137.552 141.847 137.552Z" fill="#101010"/>
<path opacity="0.18" d="M154.448 136.51H153.978L155.339 132.803H155.802L157.163 136.51H156.693L155.585 133.389H155.556L154.448 136.51ZM154.622 135.062H156.519V135.46H154.622V135.062ZM159.129 135.373V133.73H159.556V136.51H159.129V136.039H159.1C159.035 136.18 158.933 136.3 158.796 136.399C158.658 136.497 158.484 136.546 158.274 136.546C158.101 136.546 157.946 136.508 157.811 136.432C157.676 136.354 157.57 136.239 157.493 136.084C157.415 135.929 157.377 135.732 157.377 135.496V133.73H157.804V135.467C157.804 135.67 157.861 135.831 157.974 135.952C158.089 136.073 158.235 136.133 158.412 136.133C158.518 136.133 158.626 136.106 158.736 136.052C158.847 135.997 158.94 135.914 159.015 135.802C159.091 135.69 159.129 135.547 159.129 135.373ZM161.154 137.61C160.948 137.61 160.771 137.583 160.622 137.53C160.474 137.478 160.35 137.41 160.251 137.324C160.154 137.239 160.076 137.149 160.018 137.052L160.358 136.814C160.397 136.864 160.446 136.922 160.505 136.987C160.564 137.054 160.645 137.111 160.747 137.159C160.851 137.209 160.987 137.233 161.154 137.233C161.379 137.233 161.564 137.179 161.71 137.071C161.856 136.962 161.929 136.792 161.929 136.56V135.996H161.893C161.861 136.046 161.817 136.109 161.759 136.184C161.702 136.257 161.62 136.323 161.513 136.381C161.407 136.438 161.263 136.466 161.082 136.466C160.858 136.466 160.656 136.413 160.478 136.307C160.3 136.201 160.16 136.046 160.056 135.843C159.953 135.641 159.902 135.395 159.902 135.105C159.902 134.82 159.952 134.572 160.052 134.361C160.152 134.149 160.292 133.985 160.47 133.869C160.649 133.752 160.855 133.693 161.089 133.693C161.27 133.693 161.414 133.724 161.52 133.784C161.627 133.843 161.709 133.911 161.766 133.987C161.824 134.061 161.869 134.123 161.9 134.171H161.944V133.73H162.356V136.589C162.356 136.828 162.302 137.022 162.193 137.172C162.086 137.323 161.941 137.433 161.759 137.503C161.578 137.574 161.376 137.61 161.154 137.61ZM161.14 136.082C161.311 136.082 161.456 136.043 161.574 135.965C161.693 135.886 161.782 135.774 161.844 135.626C161.906 135.479 161.936 135.303 161.936 135.098C161.936 134.898 161.906 134.721 161.846 134.568C161.785 134.414 161.696 134.294 161.578 134.207C161.46 134.121 161.314 134.077 161.14 134.077C160.959 134.077 160.808 134.123 160.687 134.215C160.568 134.306 160.478 134.429 160.418 134.584C160.359 134.738 160.329 134.91 160.329 135.098C160.329 135.291 160.359 135.462 160.42 135.61C160.481 135.757 160.572 135.873 160.691 135.958C160.812 136.041 160.961 136.082 161.14 136.082Z" fill="#101010"/>
<path opacity="0.18" d="M175.011 133.73C174.989 133.546 174.901 133.404 174.746 133.302C174.592 133.201 174.402 133.15 174.178 133.15C174.014 133.15 173.87 133.177 173.747 133.23C173.625 133.283 173.53 133.356 173.461 133.449C173.394 133.542 173.36 133.648 173.36 133.766C173.36 133.865 173.384 133.95 173.431 134.021C173.479 134.091 173.54 134.149 173.615 134.197C173.69 134.242 173.768 134.28 173.85 134.311C173.933 134.34 174.008 134.363 174.077 134.381L174.453 134.482C174.55 134.508 174.657 134.543 174.775 134.587C174.895 134.632 175.009 134.693 175.117 134.77C175.227 134.846 175.318 134.944 175.389 135.063C175.46 135.183 175.496 135.33 175.496 135.503C175.496 135.704 175.443 135.885 175.338 136.046C175.234 136.208 175.082 136.336 174.882 136.432C174.683 136.527 174.441 136.575 174.156 136.575C173.891 136.575 173.661 136.532 173.467 136.446C173.274 136.361 173.122 136.241 173.011 136.088C172.901 135.935 172.839 135.757 172.824 135.554H173.288C173.3 135.694 173.347 135.81 173.429 135.901C173.512 135.992 173.617 136.059 173.744 136.104C173.872 136.148 174.009 136.169 174.156 136.169C174.328 136.169 174.482 136.142 174.618 136.086C174.754 136.029 174.862 135.951 174.942 135.851C175.021 135.749 175.061 135.631 175.061 135.496C175.061 135.373 175.027 135.273 174.958 135.196C174.889 135.118 174.799 135.056 174.687 135.007C174.574 134.959 174.453 134.917 174.323 134.881L173.867 134.75C173.577 134.667 173.348 134.548 173.179 134.394C173.01 134.239 172.926 134.037 172.926 133.788C172.926 133.58 172.982 133.399 173.094 133.245C173.207 133.089 173.359 132.968 173.55 132.883C173.742 132.796 173.956 132.752 174.193 132.752C174.431 132.752 174.644 132.795 174.83 132.881C175.015 132.965 175.163 133.081 175.271 133.228C175.381 133.375 175.439 133.543 175.445 133.73H175.011ZM177.035 136.567C176.768 136.567 176.537 136.508 176.342 136.39C176.149 136.271 176 136.104 175.895 135.891C175.791 135.676 175.74 135.426 175.74 135.141C175.74 134.857 175.791 134.606 175.895 134.388C176 134.17 176.146 134 176.333 133.878C176.521 133.755 176.741 133.693 176.992 133.693C177.137 133.693 177.28 133.718 177.421 133.766C177.562 133.814 177.691 133.892 177.806 134.001C177.922 134.108 178.015 134.251 178.083 134.428C178.152 134.606 178.186 134.824 178.186 135.083V135.264H176.044V134.895H177.752C177.752 134.738 177.721 134.598 177.658 134.475C177.596 134.352 177.508 134.255 177.394 134.184C177.28 134.113 177.146 134.077 176.992 134.077C176.822 134.077 176.675 134.119 176.55 134.204C176.427 134.287 176.333 134.396 176.266 134.53C176.2 134.663 176.167 134.807 176.167 134.96V135.206C176.167 135.416 176.203 135.594 176.275 135.74C176.349 135.885 176.451 135.996 176.581 136.072C176.711 136.146 176.863 136.184 177.035 136.184C177.148 136.184 177.249 136.168 177.339 136.137C177.431 136.104 177.51 136.056 177.577 135.992C177.643 135.927 177.694 135.846 177.73 135.749L178.143 135.865C178.1 136.005 178.027 136.128 177.924 136.234C177.822 136.339 177.695 136.421 177.544 136.481C177.393 136.538 177.224 136.567 177.035 136.567ZM178.53 137.552V133.73H178.943V134.171H178.994C179.025 134.123 179.069 134.061 179.124 133.987C179.181 133.911 179.262 133.843 179.367 133.784C179.473 133.724 179.616 133.693 179.797 133.693C180.031 133.693 180.238 133.752 180.416 133.869C180.595 133.986 180.734 134.152 180.834 134.367C180.935 134.581 180.985 134.835 180.985 135.127C180.985 135.421 180.935 135.676 180.834 135.892C180.734 136.107 180.595 136.274 180.418 136.392C180.241 136.509 180.036 136.567 179.805 136.567C179.626 136.567 179.483 136.538 179.376 136.479C179.268 136.418 179.186 136.35 179.128 136.274C179.07 136.197 179.025 136.133 178.994 136.082H178.958V137.552H178.53ZM178.95 135.12C178.95 135.33 178.981 135.515 179.043 135.675C179.104 135.834 179.194 135.959 179.312 136.05C179.431 136.139 179.575 136.184 179.747 136.184C179.925 136.184 180.074 136.137 180.194 136.043C180.314 135.947 180.405 135.819 180.465 135.659C180.527 135.497 180.557 135.317 180.557 135.12C180.557 134.924 180.527 134.748 180.467 134.591C180.408 134.433 180.318 134.308 180.197 134.216C180.078 134.124 179.928 134.077 179.747 134.077C179.573 134.077 179.427 134.121 179.309 134.209C179.19 134.296 179.101 134.418 179.041 134.575C178.98 134.73 178.95 134.912 178.95 135.12Z" fill="#101010"/>
<path opacity="0.18" d="M194.798 134.656C194.798 135.047 194.728 135.385 194.586 135.67C194.445 135.955 194.252 136.174 194.006 136.329C193.759 136.483 193.478 136.56 193.162 136.56C192.846 136.56 192.565 136.483 192.319 136.329C192.073 136.174 191.879 135.955 191.738 135.67C191.597 135.385 191.526 135.047 191.526 134.656C191.526 134.265 191.597 133.927 191.738 133.643C191.879 133.358 192.073 133.138 192.319 132.984C192.565 132.83 192.846 132.752 193.162 132.752C193.478 132.752 193.759 132.83 194.006 132.984C194.252 133.138 194.445 133.358 194.586 133.643C194.728 133.927 194.798 134.265 194.798 134.656ZM194.364 134.656C194.364 134.335 194.31 134.064 194.203 133.844C194.097 133.623 193.952 133.456 193.77 133.342C193.589 133.229 193.387 133.172 193.162 133.172C192.938 133.172 192.734 133.229 192.552 133.342C192.371 133.456 192.227 133.623 192.12 133.844C192.013 134.064 191.96 134.335 191.96 134.656C191.96 134.977 192.013 135.248 192.12 135.469C192.227 135.69 192.371 135.857 192.552 135.97C192.734 136.084 192.938 136.14 193.162 136.14C193.387 136.14 193.589 136.084 193.77 135.97C193.952 135.857 194.097 135.69 194.203 135.469C194.31 135.248 194.364 134.977 194.364 134.656ZM196.319 136.567C196.058 136.567 195.834 136.506 195.645 136.383C195.457 136.26 195.312 136.09 195.211 135.874C195.11 135.658 195.059 135.412 195.059 135.134C195.059 134.852 195.111 134.603 195.215 134.387C195.32 134.169 195.466 134 195.653 133.878C195.841 133.755 196.06 133.693 196.311 133.693C196.507 133.693 196.683 133.73 196.84 133.802C196.997 133.874 197.125 133.976 197.225 134.106C197.325 134.236 197.388 134.388 197.412 134.562H196.985C196.952 134.435 196.88 134.323 196.767 134.225C196.656 134.127 196.507 134.077 196.319 134.077C196.152 134.077 196.006 134.121 195.881 134.207C195.756 134.293 195.659 134.414 195.589 134.571C195.52 134.727 195.486 134.91 195.486 135.12C195.486 135.334 195.52 135.521 195.587 135.681C195.656 135.84 195.753 135.964 195.877 136.052C196.002 136.14 196.15 136.184 196.319 136.184C196.43 136.184 196.53 136.164 196.621 136.126C196.711 136.087 196.788 136.032 196.851 135.959C196.913 135.887 196.958 135.8 196.985 135.699H197.412C197.388 135.863 197.328 136.011 197.233 136.142C197.138 136.272 197.014 136.376 196.858 136.453C196.703 136.529 196.524 136.567 196.319 136.567ZM198.939 133.73V134.092H197.499V133.73H198.939ZM197.919 133.064H198.346V135.713C198.346 135.834 198.363 135.924 198.398 135.985C198.434 136.044 198.48 136.084 198.536 136.104C198.592 136.123 198.652 136.133 198.715 136.133C198.762 136.133 198.801 136.131 198.831 136.126C198.861 136.12 198.885 136.115 198.903 136.111L198.99 136.495C198.961 136.506 198.921 136.517 198.869 136.528C198.817 136.54 198.751 136.546 198.671 136.546C198.551 136.546 198.433 136.52 198.317 136.468C198.202 136.416 198.107 136.337 198.031 136.231C197.956 136.125 197.919 135.991 197.919 135.829V133.064Z" fill="#101010"/>
<rect x="172.11" y="34.4015" width="33.9768" height="14.4402" rx="7.22008" fill="#E8E7FF"/>
<rect x="172.11" y="34.4015" width="33.9768" height="14.4402" rx="7.22008" stroke="#CCCBFF" stroke-width="0.849421"/>
<path d="M176.511 43.8997C176.362 44.0489 176.362 44.291 176.511 44.4402C176.661 44.5895 176.903 44.5895 177.052 44.4402L176.782 44.17L176.511 43.8997ZM184.809 39.9229C184.809 39.7117 184.638 39.5406 184.426 39.5406H180.986C180.775 39.5406 180.604 39.7117 180.604 39.9229C180.604 40.134 180.775 40.3051 180.986 40.3051H184.044V43.363C184.044 43.5741 184.215 43.7452 184.426 43.7452C184.638 43.7452 184.809 43.5741 184.809 43.363V39.9229ZM180.428 42.7199L180.158 42.9902L180.428 42.7199ZM181.629 42.7199L181.9 42.9902L181.629 42.7199ZM176.782 44.17L177.052 44.4402L179 42.4926L178.729 42.2223L178.459 41.952L176.511 43.8997L176.782 44.17ZM179.931 42.2223L179.66 42.4926L180.158 42.9902L180.428 42.7199L180.698 42.4496L180.201 41.952L179.931 42.2223ZM181.629 42.7199L181.9 42.9902L184.697 40.1931L184.426 39.9229L184.156 39.6526L181.359 42.4496L181.629 42.7199ZM180.428 42.7199L180.158 42.9902C180.639 43.4712 181.419 43.4712 181.9 42.9902L181.629 42.7199L181.359 42.4496C181.177 42.6321 180.881 42.6321 180.698 42.4496L180.428 42.7199ZM178.729 42.2223L179 42.4926C179.182 42.3102 179.478 42.3102 179.66 42.4926L179.931 42.2223L180.201 41.952C179.72 41.471 178.94 41.471 178.459 41.952L178.729 42.2223Z" fill="#4642FC"/>
<path d="M188.3 44.1699V43.6294L189.972 41.8968C190.151 41.7085 190.298 41.5436 190.414 41.4021C190.531 41.2589 190.619 41.1229 190.677 40.9942C190.735 40.8655 190.764 40.7288 190.764 40.584C190.764 40.4199 190.725 40.2784 190.648 40.1593C190.57 40.0386 190.465 39.9461 190.332 39.8818C190.198 39.8158 190.048 39.7829 189.88 39.7829C189.703 39.7829 189.549 39.8191 189.417 39.8914C189.285 39.9638 189.184 40.066 189.113 40.1979C189.042 40.3298 189.007 40.4843 189.007 40.6612H188.295C188.295 40.3604 188.364 40.0974 188.502 39.8721C188.641 39.6469 188.831 39.4724 189.072 39.3485C189.313 39.223 189.588 39.1603 189.895 39.1603C190.205 39.1603 190.479 39.2222 190.715 39.3461C190.953 39.4683 191.139 39.6357 191.273 39.848C191.406 40.0588 191.473 40.2969 191.473 40.5623C191.473 40.7457 191.438 40.9251 191.369 41.1004C191.302 41.2758 191.183 41.4712 191.014 41.6868C190.846 41.9008 190.611 42.1606 190.31 42.4663L189.328 43.4942V43.5304H191.553V44.1699H188.3ZM191.85 43.2047V42.6014L193.985 39.2278H194.461V40.1159H194.159L192.631 42.5338V42.5724H195.559V43.2047H191.85ZM194.193 44.1699V43.0213L194.198 42.7462V39.2278H194.905V44.1699H194.193ZM198.571 43.2433V42.9827C198.571 42.796 198.61 42.6255 198.687 42.4711C198.766 42.315 198.88 42.1904 199.03 42.097C199.181 42.0021 199.364 41.9547 199.578 41.9547C199.796 41.9547 199.98 42.0013 200.128 42.0946C200.276 42.1879 200.388 42.3126 200.463 42.4687C200.541 42.6247 200.579 42.796 200.579 42.9827V43.2433C200.579 43.4299 200.541 43.6012 200.463 43.7573C200.386 43.9117 200.273 44.0364 200.123 44.1313C199.975 44.2246 199.793 44.2713 199.578 44.2713C199.36 44.2713 199.177 44.2246 199.027 44.1313C198.878 44.0364 198.764 43.9117 198.687 43.7573C198.61 43.6012 198.571 43.4299 198.571 43.2433ZM199.134 42.9827V43.2433C199.134 43.3816 199.167 43.5071 199.233 43.6197C199.299 43.7323 199.414 43.7886 199.578 43.7886C199.74 43.7886 199.854 43.7323 199.918 43.6197C199.982 43.5071 200.014 43.3816 200.014 43.2433V42.9827C200.014 42.8443 199.983 42.7188 199.92 42.6062C199.859 42.4936 199.745 42.4373 199.578 42.4373C199.417 42.4373 199.303 42.4936 199.235 42.6062C199.167 42.7188 199.134 42.8443 199.134 42.9827ZM196.086 40.4151V40.1545C196.086 39.9679 196.124 39.7965 196.202 39.6405C196.281 39.4844 196.395 39.3598 196.544 39.2664C196.696 39.1731 196.878 39.1265 197.092 39.1265C197.311 39.1265 197.494 39.1731 197.642 39.2664C197.79 39.3598 197.902 39.4844 197.978 39.6405C198.053 39.7965 198.091 39.9679 198.091 40.1545V40.4151C198.091 40.6017 198.053 40.773 197.975 40.9291C197.9 41.0835 197.787 41.2082 197.638 41.3031C197.49 41.3964 197.308 41.4431 197.092 41.4431C196.873 41.4431 196.689 41.3964 196.54 41.3031C196.392 41.2082 196.279 41.0835 196.202 40.9291C196.124 40.773 196.086 40.6017 196.086 40.4151ZM196.651 40.1545V40.4151C196.651 40.5534 196.683 40.6789 196.747 40.7915C196.813 40.9042 196.928 40.9605 197.092 40.9605C197.253 40.9605 197.366 40.9042 197.43 40.7915C197.496 40.6789 197.529 40.5534 197.529 40.4151V40.1545C197.529 40.0161 197.498 39.8906 197.435 39.778C197.372 39.6654 197.258 39.6091 197.092 39.6091C196.931 39.6091 196.817 39.6654 196.749 39.778C196.684 39.8906 196.651 40.0161 196.651 40.1545ZM196.315 44.1699L199.713 39.2278H200.29L196.892 44.1699H196.315Z" fill="#101010"/>
<defs>
<linearGradient id="paint0_linear_824_18603" x1="28.1684" y1="126.564" x2="28.1684" y2="22.5096" gradientUnits="userSpaceOnUse">
<stop offset="0.168269" stop-color="white"/>
<stop offset="1" stop-color="#8381FF"/>
</linearGradient>
<linearGradient id="paint1_linear_824_18603" x1="47.7947" y1="125.824" x2="47.7947" y2="51.979" gradientUnits="userSpaceOnUse">
<stop offset="0.168269" stop-color="white"/>
<stop offset="1" stop-color="#8381FF"/>
</linearGradient>
<linearGradient id="paint2_linear_824_18603" x1="66.5674" y1="127.139" x2="66.5674" y2="-0.410996" gradientUnits="userSpaceOnUse">
<stop offset="0.168269" stop-color="white"/>
<stop offset="1" stop-color="#8381FF"/>
</linearGradient>
<linearGradient id="paint3_linear_824_18603" x1="86.194" y1="126.358" x2="86.194" y2="30.6955" gradientUnits="userSpaceOnUse">
<stop offset="0.168269" stop-color="white"/>
<stop offset="1" stop-color="#8381FF"/>
</linearGradient>
<linearGradient id="paint4_linear_824_18603" x1="104.967" y1="125.413" x2="104.967" y2="68.3509" gradientUnits="userSpaceOnUse">
<stop offset="0.168269" stop-color="white"/>
<stop offset="1" stop-color="#8381FF"/>
</linearGradient>
<linearGradient id="paint5_linear_824_18603" x1="123.74" y1="126.769" x2="123.74" y2="14.3237" gradientUnits="userSpaceOnUse">
<stop offset="0.168269" stop-color="white"/>
<stop offset="1" stop-color="#8381FF"/>
</linearGradient>
<linearGradient id="paint6_linear_824_18603" x1="143.367" y1="125.988" x2="143.367" y2="45.4302" gradientUnits="userSpaceOnUse">
<stop offset="0.168269" stop-color="white"/>
<stop offset="1" stop-color="#8381FF"/>
</linearGradient>
<linearGradient id="paint7_linear_824_18603" x1="162.139" y1="127.016" x2="162.139" y2="4.50041" gradientUnits="userSpaceOnUse">
<stop offset="0.168269" stop-color="white"/>
<stop offset="1" stop-color="#8381FF"/>
</linearGradient>
<linearGradient id="paint8_linear_824_18603" x1="180.912" y1="125.495" x2="180.912" y2="65.0766" gradientUnits="userSpaceOnUse">
<stop offset="0.168269" stop-color="white"/>
<stop offset="1" stop-color="#8381FF"/>
</linearGradient>
<linearGradient id="paint9_linear_824_18603" x1="199.685" y1="126.358" x2="199.685" y2="30.6955" gradientUnits="userSpaceOnUse">
<stop offset="0.168269" stop-color="white"/>
<stop offset="1" stop-color="#8381FF"/>
</linearGradient>
</defs>
</svg>
