<svg width="228" height="143" viewBox="0 0 228 143" fill="none" xmlns="http://www.w3.org/2000/svg">
<rect x="34" width="160" height="134" rx="13" fill="white"/>
<rect x="34.5" y="0.5" width="159" height="133" rx="12.5" stroke="black" stroke-opacity="0.09"/>
<rect x="16" y="9" width="196" height="134" rx="13" fill="white"/>
<rect x="16.5" y="9.5" width="195" height="133" rx="12.5" stroke="black" stroke-opacity="0.09"/>
<rect y="18" width="228" height="125" rx="13" fill="white"/>
<rect x="0.5" y="18.5" width="227" height="124" rx="12.5" stroke="black" stroke-opacity="0.09"/>
<path d="M134.179 30C137.952 35.6202 134.965 39.0616 133 40.0798C140.074 36.4144 141.253 40.9962 144.495 42.8289C138.895 37.6362 141.843 34.2763 143.906 31.2218C140.074 35.4981 136.537 32.4436 134.179 30Z" fill="#B990FF" stroke="#51503F" stroke-width="0.692599"/>
<path d="M215.257 122.912C212.878 126.455 214.761 128.625 216 129.267C211.54 126.956 210.797 129.845 208.753 131C212.283 127.726 210.425 125.608 209.124 123.683C211.54 126.378 213.77 124.453 215.257 122.912Z" fill="white" stroke="#51503F" stroke-width="0.436637"/>
<ellipse cx="176.148" cy="70.6973" rx="23.184" ry="23.6785" fill="#988EFF"/>
<path d="M176.149 42.0894C191.61 42.0896 204.153 54.893 204.153 70.6978C204.153 86.5024 191.61 99.3059 176.149 99.3062C160.687 99.3062 148.143 86.5025 148.143 70.6978C148.143 54.8929 160.687 42.0894 176.149 42.0894Z" stroke="#988EFF" stroke-opacity="0.2" stroke-width="0.5"/>
<path d="M168.477 35.8286C168.327 35.1482 168.753 34.4718 169.437 34.3401C175.067 33.2561 180.875 33.5503 186.382 35.2068C192.291 36.9842 197.659 40.2715 201.978 44.7579C206.298 49.2442 209.425 54.7815 211.065 60.8461C212.706 66.9108 212.805 73.3025 211.353 79.417C209.901 85.5315 206.946 91.1669 202.768 95.7904C198.59 100.414 193.326 103.873 187.475 105.84C181.623 107.807 175.377 108.218 169.327 107.033C163.678 105.927 158.374 103.464 153.85 99.8549C153.314 99.4274 153.246 98.6451 153.68 98.1149C154.128 97.5688 154.935 97.4991 155.489 97.9371C159.679 101.252 164.579 103.515 169.796 104.537C175.43 105.64 181.247 105.258 186.697 103.426C192.146 101.594 197.048 98.3724 200.939 94.0665C204.83 89.7607 207.582 84.5124 208.934 78.818C210.286 73.1235 210.194 67.1709 208.667 61.5229C207.139 55.8749 204.226 50.7181 200.204 46.5399C196.181 42.3618 191.182 39.3003 185.679 37.645C180.585 36.1129 175.215 35.8322 170.006 36.8174C169.312 36.9485 168.628 36.5177 168.477 35.8286Z" fill="#A2DDFF"/>
<path d="M159.289 33.3467C161.086 35.5459 159.664 36.8926 158.728 37.291C162.096 35.8567 162.658 37.6496 164.202 38.3667C161.535 36.3348 162.939 35.02 163.921 33.8248C162.096 35.4981 160.412 34.3029 159.289 33.3467Z" fill="#988EFF" stroke="#51503F" stroke-width="0.38025"/>
<path d="M141.937 57.6617C141.737 54.3465 142.027 48.1332 144.785 49.8015" stroke="#988EFF" stroke-opacity="0.3" stroke-width="0.5" stroke-linecap="round"/>
<path d="M179.558 123.737C177.398 126.225 172.882 130.41 172.089 127.243" stroke="#988EFF" stroke-opacity="0.3" stroke-width="0.5" stroke-linecap="round"/>
<path d="M140.278 65.8564C139.634 64.8632 138.152 63.711 137.38 67.0482" stroke="#988EFF" stroke-opacity="0.3" stroke-width="0.5" stroke-linecap="round"/>
<path d="M186.418 119.138C186.184 120.304 186.431 122.186 189.294 120.383" stroke="#988EFF" stroke-opacity="0.3" stroke-width="0.5" stroke-linecap="round"/>
<path d="M142.451 61.1283C140.261 59.6652 136.479 56.285 138.867 54.4688" stroke="#988EFF" stroke-opacity="0.3" stroke-width="0.5" stroke-linecap="round"/>
<path d="M181.6 120.915C182.133 123.528 182.462 128.643 179.512 128.206" stroke="#988EFF" stroke-opacity="0.3" stroke-width="0.5" stroke-linecap="round"/>
<path d="M142.359 81.3368C144.352 84.0028 142.775 85.6352 141.737 86.1181C145.473 84.3795 146.096 86.5528 147.808 87.4221C144.85 84.959 146.407 83.3653 147.497 81.9164C145.473 83.9448 143.605 82.4959 142.359 81.3368Z" fill="#A2DDFF" stroke="#51503F" stroke-width="0.20846"/>
<ellipse cx="176.148" cy="70.6974" rx="15.939" ry="16.279" fill="white"/>
<path d="M169.855 70.8375C169.848 70.8375 169.841 70.8406 169.835 70.8461L168.658 72.1162C168.388 72.4079 168.388 72.8586 168.658 73.1503L172.901 77.7276C173.126 77.9696 173.421 78.0969 173.74 78.0969H173.81C174.141 78.0715 174.46 77.9059 174.672 77.6257L183.697 65.4567C183.934 65.137 183.885 64.6886 183.584 64.4283L182.896 63.8339C182.561 63.5446 182.051 63.6009 181.788 63.9564L174.203 74.1895C173.919 74.5721 173.358 74.6029 173.034 74.2537L169.875 70.8461C169.87 70.8406 169.863 70.8375 169.855 70.8375Z" fill="#040A10"/>
<path d="M52.6788 37.2832C52.7654 37.4162 52.8958 37.6108 53.0704 37.8584C53.4195 38.3537 53.9463 39.0621 54.6592 39.9141C56.085 41.6179 58.255 43.8998 61.2344 46.2148C67.1727 50.8288 76.3256 55.5717 89.2032 56.1396V72.4043C89.2031 95.4573 80.0555 108.312 70.9229 115.408C66.3537 118.958 61.7836 121.07 58.3565 122.294C56.6432 122.906 55.2159 123.296 54.2178 123.532C53.7189 123.651 53.3271 123.73 53.0606 123.78C52.9273 123.805 52.8253 123.824 52.7569 123.835C52.7227 123.841 52.6969 123.845 52.6797 123.848H52.6729C52.6558 123.845 52.6297 123.841 52.5957 123.835C52.5274 123.824 52.4251 123.805 52.292 123.78C52.0255 123.73 51.6336 123.65 51.1348 123.532C50.1366 123.296 48.7094 122.906 46.9961 122.294C43.569 121.07 38.9999 118.958 34.4307 115.408C25.298 108.312 16.1505 95.4576 16.1504 72.4043V56.1396C29.0276 55.5716 38.18 50.8287 44.1182 46.2148C47.0976 43.8999 49.2676 41.6179 50.6934 39.9141C51.4063 39.0621 51.9341 38.3537 52.2832 37.8584C52.4577 37.6109 52.5872 37.4161 52.6739 37.2832C52.6747 37.282 52.675 37.2805 52.6758 37.2793C52.6767 37.2807 52.6779 37.2818 52.6788 37.2832Z" stroke="#988DFF" stroke-opacity="0.6" stroke-width="0.3"/>
<path d="M52.6726 51.7891C52.6726 51.7891 45.5396 63.6243 28.5434 64.3339C28.5434 64.3339 28.5434 70.8911 28.5434 75.1672C28.5434 105.674 52.6726 109.237 52.6726 109.237C52.6726 109.237 76.8017 105.674 76.8017 75.1672C76.8017 70.8911 76.8017 64.3339 76.8017 64.3339C59.8056 63.6243 52.6726 51.7891 52.6726 51.7891Z" fill="url(#paint0_linear_824_23110)"/>
<path d="M52.9297 49.5984C53.1842 49.9584 53.5686 50.4727 54.0879 51.0916C55.1264 52.3291 56.7064 53.9867 58.876 55.6677C63.1942 59.0135 69.846 62.4516 79.2002 62.8718V74.6287C79.2001 91.3345 72.5539 100.646 65.9219 105.784C62.603 108.355 59.2834 109.885 56.794 110.771C55.5495 111.214 54.5128 111.496 53.7881 111.668C53.4258 111.753 53.1415 111.812 52.9483 111.848C52.8518 111.867 52.778 111.879 52.7285 111.887C52.7064 111.891 52.689 111.893 52.6768 111.895C52.6646 111.893 52.6472 111.891 52.625 111.887C52.5756 111.879 52.5017 111.867 52.4053 111.848C52.2121 111.812 51.9277 111.753 51.5654 111.668C50.8408 111.496 49.804 111.214 48.5596 110.771C46.0702 109.885 42.7506 108.355 39.4317 105.784C32.7997 100.646 26.1534 91.3346 26.1533 74.6287V62.8718C35.5075 62.4516 42.1593 59.0135 46.4776 55.6677C48.6472 53.9867 50.2271 52.3291 51.2656 51.0916C51.7849 50.4727 52.1693 49.9584 52.4238 49.5984C52.5315 49.4461 52.615 49.3207 52.6768 49.2273C52.7386 49.3207 52.8221 49.4461 52.9297 49.5984Z" stroke="#988DFF" stroke-opacity="0.2" stroke-width="0.3"/>
<path d="M52.961 47.1418C53.2365 47.5302 53.6526 48.0846 54.2149 48.7522C55.3394 50.0873 57.0509 51.875 59.4004 53.6887C64.0788 57.3 71.2865 61.0122 81.4239 61.4631V74.1633C81.4237 92.1975 74.2209 102.25 67.0332 107.798C63.4365 110.574 59.8395 112.226 57.1416 113.183C55.7929 113.661 54.6693 113.967 53.8838 114.152C53.4913 114.244 53.1831 114.307 52.9737 114.346C52.8691 114.366 52.7891 114.379 52.7354 114.388C52.71 114.392 52.6902 114.395 52.6768 114.397C52.6634 114.395 52.6435 114.392 52.6182 114.388C52.5645 114.379 52.4844 114.366 52.3799 114.346C52.1704 114.307 51.8623 114.244 51.4698 114.152C50.6843 113.967 49.5607 113.661 48.212 113.183C45.5142 112.226 41.9171 110.574 38.3204 107.798C31.1327 102.25 23.9308 92.1974 23.9307 74.1633V61.4631C34.0677 61.0121 41.275 57.2999 45.9532 53.6887C48.3028 51.875 50.0141 50.0874 51.1387 48.7522C51.701 48.0846 52.1171 47.5302 52.3926 47.1418C52.5153 46.9689 52.6091 46.8282 52.6768 46.7258C52.7445 46.8281 52.8383 46.9689 52.961 47.1418Z" stroke="#988DFF" stroke-opacity="0.3" stroke-width="0.3"/>
<path d="M52.9963 44.1379C53.2955 44.5609 53.7469 45.1655 54.3576 45.8928C55.579 47.3473 57.4383 49.2948 59.9904 51.2708C65.0737 55.2064 72.9061 59.2516 83.924 59.7405V73.594C83.9239 93.2521 76.0963 104.212 68.2834 110.261C64.3743 113.287 60.4645 115.087 57.5324 116.13C56.0665 116.652 54.8452 116.984 53.9914 117.186C53.5645 117.287 53.229 117.355 53.0012 117.398C52.8875 117.419 52.8007 117.435 52.7424 117.445C52.7132 117.449 52.6906 117.452 52.676 117.454C52.6614 117.452 52.6398 117.449 52.6115 117.445C52.5531 117.435 52.4657 117.419 52.3518 117.398C52.124 117.355 51.7891 117.287 51.3625 117.186C50.5087 116.984 49.2874 116.652 47.8215 116.13C44.8893 115.087 40.9789 113.288 37.0695 110.261C29.2566 104.212 21.43 93.2521 21.4299 73.594V59.7405C32.4477 59.2515 40.2803 55.2064 45.3635 51.2708C47.9157 49.2947 49.7749 47.3473 50.9963 45.8928C51.607 45.1656 52.0584 44.5609 52.3576 44.1379C52.4974 43.9404 52.603 43.7818 52.6769 43.6692C52.7509 43.7818 52.8566 43.9404 52.9963 44.1379Z" stroke="#988DFF" stroke-opacity="0.4" stroke-width="0.3"/>
<path d="M53.0316 41.1353C53.3544 41.5927 53.8415 42.2461 54.5003 43.0327C55.8185 44.6064 57.8249 46.7139 60.5794 48.8521C66.0676 53.112 74.5255 57.4922 86.4242 58.019V73.0249C86.4241 94.3069 77.9717 106.174 69.5335 112.723C65.3118 116 61.0897 117.949 57.9232 119.079C56.3402 119.643 55.0212 120.003 54.099 120.221C53.638 120.33 53.2758 120.404 53.0296 120.451C52.9067 120.474 52.8125 120.491 52.7494 120.501C52.7179 120.507 52.6939 120.51 52.6781 120.512H52.6751C52.6593 120.51 52.6353 120.507 52.6039 120.501C52.5407 120.491 52.4466 120.474 52.3236 120.451C52.0774 120.404 51.7152 120.33 51.2542 120.221C50.3321 120.003 49.013 119.643 47.43 119.079C44.2635 117.949 40.0414 116 35.8197 112.723C27.3816 106.174 18.9291 94.3069 18.9291 73.0249V58.019C30.8277 57.4922 39.2856 53.112 44.7738 48.8521C47.5283 46.7139 49.5347 44.6064 50.8529 43.0327C51.5117 42.2461 51.9988 41.5927 52.3216 41.1353C52.4784 40.9131 52.596 40.7363 52.6761 40.6138C52.7562 40.7363 52.8746 40.9128 53.0316 41.1353Z" stroke="#988DFF" stroke-opacity="0.5" stroke-width="0.3"/>
<path d="M58.8981 79.2417H46.4474C44.9322 79.2417 43.7036 80.4704 43.7036 81.9862V93.1477C43.7036 94.6635 44.9322 95.8922 46.4474 95.8922H58.8981C60.4134 95.8922 61.6419 94.6635 61.6419 93.1477V81.9862C61.6419 80.4703 60.4134 79.2417 58.8981 79.2417ZM51.4974 92.0233L48.249 88.774L46.4474 90.3611L51.6682 92.3273L57.4793 85.2147L57.0966 84.0998L51.4974 92.0233Z" fill="white"/>
<path d="M48.7619 73.6009C48.7619 71.4436 50.5165 69.6888 52.6729 69.6888C54.8294 69.6888 56.5839 71.4436 56.5839 73.6009V77.8055H58.3087V73.6009C58.3087 70.4873 55.7853 67.9634 52.6729 67.9634C49.5605 67.9634 47.0371 70.4873 47.0371 73.6009V77.8055H48.7619V73.6009Z" fill="white"/>
<defs>
<linearGradient id="paint0_linear_824_23110" x1="30.4616" y1="63.621" x2="74.8156" y2="95.6021" gradientUnits="userSpaceOnUse">
<stop stop-color="#A3DFFF"/>
<stop offset="1" stop-color="#9787FF"/>
</linearGradient>
</defs>
</svg>
