<svg width="228" height="147" viewBox="0 0 228 147" fill="none" xmlns="http://www.w3.org/2000/svg">
<rect y="22" width="228" height="125" rx="13" fill="white"/>
<rect x="0.25" y="22.25" width="227.5" height="124.5" rx="12.75" stroke="black" stroke-opacity="0.18" stroke-width="0.5"/>
<path d="M20 50H207" stroke="black" stroke-opacity="0.15" stroke-width="0.5" stroke-dasharray="1 1"/>
<path d="M20 58H207" stroke="black" stroke-opacity="0.15" stroke-width="0.5" stroke-dasharray="1 1"/>
<path d="M20 66H207" stroke="black" stroke-opacity="0.15" stroke-width="0.5" stroke-dasharray="1 1"/>
<path d="M20 74H207" stroke="black" stroke-opacity="0.15" stroke-width="0.5" stroke-dasharray="1 1"/>
<path d="M20 82H207" stroke="black" stroke-opacity="0.15" stroke-width="0.5" stroke-dasharray="1 1"/>
<path d="M20 90H207" stroke="black" stroke-opacity="0.15" stroke-width="0.5" stroke-dasharray="1 1"/>
<path d="M20 98H207" stroke="black" stroke-opacity="0.15" stroke-width="0.5" stroke-dasharray="1 1"/>
<path d="M20 106H207" stroke="black" stroke-opacity="0.15" stroke-width="0.5" stroke-dasharray="1 1"/>
<rect x="84" y="2" width="60" height="23" rx="11.5" fill="white"/>
<rect x="83" y="1" width="62" height="25" rx="12.5" stroke="#3D3D3D" stroke-opacity="0.27" stroke-width="2"/>
<path d="M93.6673 16L92.1545 10.5455H93.0201L94.0827 14.7695H94.1333L95.2386 10.5455H96.0962L97.2015 14.7722H97.2521L98.3121 10.5455H99.1804L97.665 16H96.8366L95.6887 11.9144H95.6461L94.4982 16H93.6673Z" fill="#3B3B3B"/>
<circle cx="115" cy="13.5" r="9" fill="#885EF2"/>
<path d="M130.178 10.5455H131.113L132.538 13.025H132.597L134.022 10.5455H134.956L132.978 13.8587V16H132.157V13.8587L130.178 10.5455Z" fill="#3B3B3B"/>
<path d="M111.646 9.45455H113.097L115.04 14.1974H115.116L117.06 9.45455H118.511V16H117.373V11.5032H117.312L115.503 15.9808H114.653L112.844 11.4936H112.783V16H111.646V9.45455Z" fill="white"/>
<rect x="29" y="62" width="4" height="50" rx="2" fill="#EDEDFF"/>
<rect x="29" y="88.9231" width="4" height="23.0769" rx="2" fill="#885EF2"/>
<rect x="44" y="55" width="4" height="57" rx="2" fill="#EDEDFF"/>
<rect x="44" y="85.6924" width="4" height="26.3077" rx="2" fill="#885EF2"/>
<rect x="59" y="47" width="4" height="65" rx="2" fill="#EDEDFF"/>
<rect x="59" y="82" width="4" height="30" rx="2" fill="#885EF2"/>
<rect x="74" y="79" width="4" height="33" rx="2" fill="#EDEDFF"/>
<rect x="74" y="96.7693" width="4" height="15.2308" rx="2" fill="#885EF2"/>
<rect x="89" y="54" width="4" height="58" rx="2" fill="#EDEDFF"/>
<rect x="89" y="85.2307" width="4" height="26.7692" rx="2" fill="#885EF2"/>
<rect x="104" y="41" width="4" height="71" rx="2" fill="#EDEDFF"/>
<rect x="104" y="58" width="4" height="54" rx="2" fill="#885EF2"/>
<rect x="119" y="70" width="4" height="42" rx="2" fill="#EDEDFF"/>
<rect x="119" y="95" width="4" height="17" rx="2" fill="#885EF2"/>
<rect x="134" y="53" width="4" height="59" rx="2" fill="#EDEDFF"/>
<rect x="134" y="84.7693" width="4" height="27.2308" rx="2" fill="#885EF2"/>
<rect x="149" y="86" width="4" height="26" rx="2" fill="#EDEDFF"/>
<rect x="149" y="100" width="4" height="12" rx="2" fill="#885EF2"/>
<rect x="164" y="47" width="4" height="65" rx="2" fill="#EDEDFF"/>
<rect x="164" y="82" width="4" height="30" rx="2" fill="#885EF2"/>
<rect x="179" y="61" width="4" height="51" rx="2" fill="#EDEDFF"/>
<rect x="179" y="88.4614" width="4" height="23.5385" rx="2" fill="#885EF2"/>
<rect x="194" y="53" width="4" height="59" rx="2" fill="#EDEDFF"/>
<rect x="194" y="84.7693" width="4" height="27.2308" rx="2" fill="#885EF2"/>
<path opacity="0.18" d="M27.8678 114.293H28.3166V116.943C28.3166 117.18 28.2732 117.38 28.1863 117.546C28.0994 117.711 27.977 117.837 27.8189 117.922C27.6608 118.008 27.4744 118.051 27.2597 118.051C27.0569 118.051 26.8766 118.014 26.7185 117.94C26.5604 117.865 26.4362 117.759 26.3457 117.622C26.2552 117.484 26.2099 117.321 26.2099 117.131H26.6515C26.6515 117.236 26.6775 117.328 26.7294 117.406C26.7825 117.484 26.8549 117.544 26.9465 117.587C27.0382 117.631 27.1426 117.653 27.2597 117.653C27.3888 117.653 27.4986 117.625 27.589 117.571C27.6795 117.517 27.7483 117.437 27.7954 117.332C27.8436 117.226 27.8678 117.096 27.8678 116.943V114.293ZM29.6704 118.065C29.4943 118.065 29.3344 118.032 29.1908 117.966C29.0472 117.898 28.9332 117.801 28.8488 117.674C28.7643 117.546 28.7221 117.392 28.7221 117.211C28.7221 117.052 28.7535 116.923 28.8162 116.824C28.8789 116.723 28.9628 116.645 29.0678 116.588C29.1727 116.532 29.2886 116.489 29.4153 116.462C29.5431 116.433 29.6716 116.41 29.8007 116.393C29.9697 116.371 30.1066 116.355 30.2116 116.344C30.3178 116.332 30.395 116.312 30.4432 116.284C30.4927 116.257 30.5174 116.208 30.5174 116.139V116.125C30.5174 115.946 30.4686 115.808 30.3708 115.709C30.2743 115.61 30.1277 115.56 29.9311 115.56C29.7271 115.56 29.5673 115.605 29.4514 115.694C29.3356 115.784 29.2542 115.879 29.2071 115.98L28.8017 115.835C28.8741 115.667 28.9706 115.535 29.0913 115.441C29.2132 115.346 29.3459 115.279 29.4895 115.242C29.6342 115.203 29.7766 115.184 29.9166 115.184C30.0059 115.184 30.1084 115.195 30.2243 115.216C30.3413 115.237 30.4541 115.28 30.5627 115.345C30.6725 115.41 30.7636 115.508 30.836 115.64C30.9084 115.771 30.9446 115.948 30.9446 116.168V118H30.5174V117.624H30.4957C30.4668 117.684 30.4185 117.748 30.3509 117.817C30.2834 117.886 30.1935 117.944 30.0813 117.993C29.9691 118.041 29.8321 118.065 29.6704 118.065ZM29.7356 117.681C29.9045 117.681 30.0469 117.648 30.1627 117.582C30.2798 117.516 30.3678 117.43 30.427 117.325C30.4873 117.22 30.5174 117.11 30.5174 116.994V116.603C30.4993 116.625 30.4595 116.644 30.398 116.663C30.3377 116.679 30.2677 116.694 30.1881 116.708C30.1096 116.72 30.033 116.731 29.9582 116.74C29.8846 116.749 29.8249 116.756 29.779 116.762C29.668 116.777 29.5643 116.8 29.4677 116.833C29.3724 116.864 29.2952 116.912 29.2361 116.976C29.1782 117.038 29.1492 117.124 29.1492 117.233C29.1492 117.381 29.2041 117.493 29.3139 117.569C29.4249 117.644 29.5655 117.681 29.7356 117.681ZM31.8455 116.328V118H31.4184V115.22H31.831V115.654H31.8672C31.9324 115.513 32.0313 115.4 32.164 115.314C32.2967 115.227 32.4681 115.184 32.678 115.184C32.8662 115.184 33.0309 115.222 33.1721 115.3C33.3133 115.376 33.4231 115.492 33.5015 115.647C33.5799 115.802 33.6191 115.997 33.6191 116.234V118H33.192V116.263C33.192 116.044 33.1353 115.874 33.0219 115.752C32.9085 115.629 32.7528 115.568 32.555 115.568C32.4186 115.568 32.2967 115.597 32.1894 115.656C32.0832 115.715 31.9993 115.802 31.9378 115.915C31.8763 116.028 31.8455 116.166 31.8455 116.328Z" fill="#101010"/>
<path opacity="0.18" d="M41.4488 118V114.293H43.6713V114.692H41.8977V115.944H43.5048V116.342H41.8977V118H41.4488ZM45.0378 118.058C44.77 118.058 44.5389 117.999 44.3447 117.881C44.1516 117.761 44.0026 117.595 43.8976 117.381C43.7939 117.166 43.742 116.917 43.742 116.632C43.742 116.347 43.7939 116.096 43.8976 115.879C44.0026 115.66 44.1486 115.49 44.3356 115.368C44.5238 115.245 44.7434 115.184 44.9944 115.184C45.1392 115.184 45.2822 115.208 45.4233 115.256C45.5645 115.305 45.693 115.383 45.8088 115.492C45.9247 115.599 46.017 115.741 46.0857 115.919C46.1545 116.096 46.1889 116.314 46.1889 116.574V116.755H44.046V116.386H45.7545C45.7545 116.229 45.7232 116.089 45.6604 115.966C45.5989 115.843 45.5108 115.746 45.3962 115.674C45.2828 115.603 45.1488 115.568 44.9944 115.568C44.8243 115.568 44.6771 115.61 44.5528 115.694C44.4297 115.778 44.335 115.886 44.2687 116.02C44.2023 116.154 44.1691 116.298 44.1691 116.451V116.697C44.1691 116.907 44.2053 117.085 44.2777 117.231C44.3513 117.376 44.4533 117.486 44.5836 117.562C44.7139 117.637 44.8653 117.674 45.0378 117.674C45.15 117.674 45.2514 117.659 45.3419 117.627C45.4336 117.595 45.5126 117.546 45.579 117.482C45.6453 117.417 45.6966 117.336 45.7328 117.24L46.1455 117.356C46.102 117.496 46.029 117.619 45.9265 117.725C45.8239 117.83 45.6972 117.912 45.5464 117.971C45.3956 118.029 45.2261 118.058 45.0378 118.058ZM46.5908 118V114.293H47.0179V115.662H47.0541C47.0854 115.613 47.1289 115.552 47.1844 115.477C47.2411 115.401 47.3219 115.333 47.4269 115.274C47.5331 115.214 47.6767 115.184 47.8577 115.184C48.0917 115.184 48.298 115.242 48.4766 115.359C48.6552 115.476 48.7945 115.642 48.8947 115.857C48.9948 116.072 49.0449 116.325 49.0449 116.617C49.0449 116.912 48.9948 117.167 48.8947 117.383C48.7945 117.598 48.6558 117.764 48.4784 117.882C48.3011 117.999 48.0965 118.058 47.8649 118.058C47.6863 118.058 47.5433 118.028 47.436 117.969C47.3286 117.909 47.2459 117.841 47.188 117.765C47.1301 117.687 47.0854 117.624 47.0541 117.573H47.0034V118H46.5908ZM47.0106 116.61C47.0106 116.82 47.0414 117.005 47.1029 117.166C47.1645 117.325 47.2544 117.45 47.3726 117.54C47.4909 117.63 47.6356 117.674 47.807 117.674C47.9855 117.674 48.1346 117.627 48.254 117.533C48.3747 117.438 48.4652 117.31 48.5255 117.149C48.587 116.988 48.6178 116.808 48.6178 116.61C48.6178 116.415 48.5876 116.238 48.5273 116.082C48.4682 115.924 48.3783 115.799 48.2576 115.707C48.1382 115.614 47.988 115.568 47.807 115.568C47.6332 115.568 47.4872 115.612 47.369 115.7C47.2507 115.787 47.1615 115.908 47.1011 116.065C47.0408 116.221 47.0106 116.403 47.0106 116.61Z" fill="#101010"/>
<path opacity="0.18" d="M56.4488 114.293H56.9846L58.2442 117.37H58.2876L59.5473 114.293H60.083V118H59.6631V115.184H59.6269L58.4686 118H58.0632L56.9049 115.184H56.8687V118H56.4488V114.293ZM61.4373 118.065C61.2611 118.065 61.1013 118.032 60.9577 117.966C60.8141 117.898 60.7001 117.801 60.6156 117.674C60.5312 117.546 60.4889 117.392 60.4889 117.211C60.4889 117.052 60.5203 116.923 60.5831 116.824C60.6458 116.723 60.7297 116.645 60.8346 116.588C60.9396 116.532 61.0554 116.489 61.1821 116.462C61.31 116.433 61.4385 116.41 61.5676 116.393C61.7365 116.371 61.8735 116.355 61.9784 116.344C62.0846 116.332 62.1618 116.312 62.2101 116.284C62.2596 116.257 62.2843 116.208 62.2843 116.139V116.125C62.2843 115.946 62.2354 115.808 62.1377 115.709C62.0412 115.61 61.8946 115.56 61.6979 115.56C61.494 115.56 61.3341 115.605 61.2183 115.694C61.1025 115.784 61.021 115.879 60.974 115.98L60.5686 115.835C60.641 115.667 60.7375 115.535 60.8582 115.441C60.98 115.346 61.1127 115.279 61.2563 115.242C61.4011 115.203 61.5435 115.184 61.6834 115.184C61.7727 115.184 61.8753 115.195 61.9911 115.216C62.1082 115.237 62.221 115.28 62.3296 115.345C62.4394 115.41 62.5304 115.508 62.6028 115.64C62.6752 115.771 62.7114 115.948 62.7114 116.168V118H62.2843V117.624H62.2626C62.2336 117.684 62.1854 117.748 62.1178 117.817C62.0502 117.886 61.9603 117.944 61.8481 117.993C61.7359 118.041 61.599 118.065 61.4373 118.065ZM61.5025 117.681C61.6714 117.681 61.8137 117.648 61.9296 117.582C62.0466 117.516 62.1347 117.43 62.1938 117.325C62.2541 117.22 62.2843 117.11 62.2843 116.994V116.603C62.2662 116.625 62.2264 116.644 62.1649 116.663C62.1045 116.679 62.0346 116.694 61.9549 116.708C61.8765 116.72 61.7999 116.731 61.7251 116.74C61.6515 116.749 61.5917 116.756 61.5459 116.762C61.4349 116.777 61.3311 116.8 61.2346 116.833C61.1393 116.864 61.0621 116.912 61.0029 116.976C60.945 117.038 60.9161 117.124 60.9161 117.233C60.9161 117.381 60.971 117.493 61.0808 117.569C61.1918 117.644 61.3323 117.681 61.5025 117.681ZM63.1852 118V115.22H63.5979V115.64H63.6268C63.6775 115.502 63.7692 115.391 63.9019 115.305C64.0347 115.219 64.1843 115.177 64.3508 115.177C64.3821 115.177 64.4214 115.177 64.4684 115.178C64.5155 115.18 64.5511 115.181 64.5752 115.184V115.618C64.5607 115.615 64.5275 115.609 64.4757 115.602C64.425 115.594 64.3713 115.589 64.3146 115.589C64.1794 115.589 64.0588 115.618 63.9526 115.674C63.8476 115.73 63.7644 115.807 63.7028 115.906C63.6425 116.004 63.6124 116.115 63.6124 116.241V118H63.1852Z" fill="#101010"/>
<path opacity="0.18" d="M72.6009 118H72.1303L73.4913 114.293H73.9546L75.3156 118H74.8451L73.7375 114.88H73.7085L72.6009 118ZM72.7746 116.552H74.6713V116.95H72.7746V116.552ZM75.5293 119.042V115.22H75.9419V115.662H75.9926C76.024 115.613 76.0674 115.552 76.1229 115.477C76.1796 115.401 76.2604 115.333 76.3654 115.274C76.4716 115.214 76.6152 115.184 76.7962 115.184C77.0302 115.184 77.2366 115.242 77.4151 115.359C77.5937 115.476 77.7331 115.642 77.8332 115.857C77.9333 116.072 77.9834 116.325 77.9834 116.617C77.9834 116.912 77.9333 117.167 77.8332 117.383C77.7331 117.598 77.5943 117.764 77.4169 117.882C77.2396 117.999 77.0351 118.058 76.8034 118.058C76.6248 118.058 76.4819 118.028 76.3745 117.969C76.2671 117.909 76.1844 117.841 76.1265 117.765C76.0686 117.687 76.024 117.624 75.9926 117.573H75.9564V119.042H75.5293ZM75.9492 116.61C75.9492 116.82 75.9799 117.005 76.0415 117.166C76.103 117.325 76.1929 117.45 76.3111 117.54C76.4294 117.63 76.5742 117.674 76.7455 117.674C76.9241 117.674 77.0731 117.627 77.1925 117.533C77.3132 117.438 77.4037 117.31 77.464 117.149C77.5255 116.988 77.5563 116.808 77.5563 116.61C77.5563 116.415 77.5261 116.238 77.4658 116.082C77.4067 115.924 77.3168 115.799 77.1961 115.707C77.0767 115.614 76.9265 115.568 76.7455 115.568C76.5717 115.568 76.4257 115.612 76.3075 115.7C76.1893 115.787 76.1 115.908 76.0396 116.065C75.9793 116.221 75.9492 116.403 75.9492 116.61ZM78.3292 118V115.22H78.7418V115.64H78.7708C78.8215 115.502 78.9132 115.391 79.0459 115.305C79.1786 115.219 79.3282 115.177 79.4947 115.177C79.5261 115.177 79.5653 115.177 79.6124 115.178C79.6594 115.18 79.695 115.181 79.7191 115.184V115.618C79.7047 115.615 79.6715 115.609 79.6196 115.602C79.5689 115.594 79.5152 115.589 79.4585 115.589C79.3234 115.589 79.2027 115.618 79.0965 115.674C78.9916 115.73 78.9083 115.807 78.8468 115.906C78.7865 116.004 78.7563 116.115 78.7563 116.241V118H78.3292Z" fill="#101010"/>
<circle cx="80.5" cy="133.5" r="2.5" fill="#885EF2"/>
<path d="M86.5593 136V130.909H89.7511V131.57H87.3274V133.121H89.5845V133.78H87.3274V135.339H89.7809V136H86.5593ZM91.4086 136.085C91.1666 136.085 90.9479 136.04 90.7523 135.95C90.5568 135.859 90.4018 135.727 90.2875 135.555C90.1748 135.383 90.1184 135.171 90.1184 134.921C90.1184 134.706 90.1599 134.528 90.2427 134.389C90.3256 134.25 90.4375 134.14 90.5783 134.059C90.7192 133.977 90.8766 133.916 91.0506 133.875C91.2246 133.833 91.4019 133.802 91.5826 133.78C91.8113 133.754 91.9969 133.732 92.1394 133.716C92.2819 133.697 92.3855 133.668 92.4501 133.629C92.5147 133.589 92.5471 133.524 92.5471 133.435V133.417C92.5471 133.2 92.4857 133.032 92.3631 132.913C92.2421 132.793 92.0615 132.734 91.8212 132.734C91.571 132.734 91.3738 132.789 91.2296 132.9C91.0871 133.01 90.9885 133.131 90.9338 133.266L90.2353 133.107C90.3181 132.875 90.4391 132.687 90.5982 132.545C90.7589 132.401 90.9437 132.296 91.1525 132.232C91.3613 132.165 91.5809 132.132 91.8113 132.132C91.9637 132.132 92.1253 132.15 92.296 132.187C92.4683 132.222 92.6291 132.286 92.7782 132.381C92.929 132.475 93.0525 132.61 93.1486 132.786C93.2447 132.96 93.2928 133.186 93.2928 133.464V136H92.5669V135.478H92.5371C92.4891 135.574 92.417 135.669 92.3209 135.761C92.2247 135.854 92.1013 135.931 91.9505 135.993C91.7997 136.054 91.619 136.085 91.4086 136.085ZM91.5701 135.488C91.7756 135.488 91.9513 135.447 92.0971 135.366C92.2446 135.285 92.3565 135.179 92.4327 135.048C92.5106 134.915 92.5495 134.774 92.5495 134.623V134.131C92.523 134.157 92.4717 134.182 92.3954 134.205C92.3209 134.227 92.2355 134.246 92.1394 134.262C92.0433 134.277 91.9496 134.291 91.8585 134.305C91.7674 134.316 91.6911 134.326 91.6298 134.335C91.4856 134.353 91.3539 134.383 91.2346 134.426C91.1169 134.47 91.0224 134.532 90.9512 134.613C90.8816 134.692 90.8468 134.799 90.8468 134.931C90.8468 135.115 90.9147 135.254 91.0506 135.349C91.1865 135.442 91.3597 135.488 91.5701 135.488ZM93.8628 136V132.182H94.5812V132.788H94.6209C94.6905 132.583 94.8132 132.421 94.9888 132.304C95.1662 132.184 95.3667 132.125 95.5904 132.125C95.6368 132.125 95.6915 132.126 95.7545 132.13C95.8191 132.133 95.8696 132.137 95.9061 132.142V132.853C95.8763 132.845 95.8232 132.836 95.747 132.826C95.6708 132.814 95.5945 132.808 95.5183 132.808C95.3426 132.808 95.186 132.846 95.0485 132.92C94.9126 132.993 94.8049 133.095 94.7253 133.226C94.6458 133.355 94.606 133.503 94.606 133.668V136H93.8628ZM96.8725 133.733V136H96.1293V132.182H96.8427V132.803H96.8899C96.9778 132.601 97.1153 132.439 97.3026 132.316C97.4915 132.193 97.7293 132.132 98.016 132.132C98.2762 132.132 98.5041 132.187 98.6996 132.296C98.8952 132.404 99.0468 132.565 99.1545 132.778C99.2622 132.992 99.3161 133.257 99.3161 133.571V136H98.5728V133.661C98.5728 133.384 98.5007 133.168 98.3566 133.012C98.2124 132.855 98.0144 132.776 97.7625 132.776C97.5901 132.776 97.4368 132.813 97.3026 132.888C97.17 132.962 97.0648 133.072 96.9869 133.216C96.9107 133.358 96.8725 133.531 96.8725 133.733ZM101.538 136.077C101.162 136.077 100.838 135.997 100.567 135.836C100.296 135.674 100.088 135.446 99.9401 135.152C99.7943 134.857 99.7214 134.512 99.7214 134.116C99.7214 133.725 99.7943 133.38 99.9401 133.082C100.088 132.783 100.293 132.551 100.557 132.383C100.822 132.216 101.132 132.132 101.486 132.132C101.702 132.132 101.911 132.168 102.113 132.239C102.315 132.31 102.496 132.422 102.657 132.575C102.818 132.727 102.945 132.925 103.037 133.169C103.13 133.411 103.177 133.705 103.177 134.051V134.315H100.141V133.758H102.448C102.448 133.562 102.409 133.389 102.329 133.238C102.249 133.086 102.138 132.966 101.993 132.878C101.851 132.79 101.683 132.746 101.491 132.746C101.282 132.746 101.1 132.797 100.944 132.9C100.79 133.001 100.671 133.134 100.586 133.298C100.504 133.46 100.462 133.637 100.462 133.827V134.262C100.462 134.518 100.507 134.735 100.596 134.914C100.688 135.093 100.814 135.229 100.977 135.324C101.139 135.417 101.329 135.463 101.546 135.463C101.687 135.463 101.815 135.443 101.931 135.403C102.047 135.362 102.148 135.301 102.232 135.219C102.317 135.138 102.381 135.038 102.426 134.919L103.129 135.045C103.073 135.253 102.972 135.434 102.826 135.59C102.682 135.744 102.5 135.864 102.282 135.95C102.065 136.035 101.817 136.077 101.538 136.077ZM105.011 136.075C104.702 136.075 104.427 135.996 104.185 135.838C103.945 135.679 103.756 135.453 103.619 135.16C103.483 134.865 103.415 134.511 103.415 134.098C103.415 133.686 103.484 133.333 103.621 133.039C103.76 132.746 103.951 132.522 104.193 132.366C104.435 132.21 104.709 132.132 105.016 132.132C105.253 132.132 105.443 132.172 105.587 132.251C105.733 132.329 105.846 132.42 105.925 132.525C106.007 132.629 106.07 132.721 106.114 132.801H106.159V130.909H106.902V136H106.176V135.406H106.114C106.07 135.487 106.005 135.58 105.92 135.684C105.838 135.789 105.723 135.88 105.577 135.958C105.432 136.036 105.243 136.075 105.011 136.075ZM105.175 135.441C105.388 135.441 105.569 135.384 105.717 135.272C105.866 135.157 105.978 134.999 106.055 134.797C106.133 134.595 106.171 134.359 106.171 134.091C106.171 133.826 106.133 133.594 106.057 133.395C105.981 133.196 105.869 133.041 105.722 132.93C105.574 132.819 105.392 132.763 105.175 132.763C104.951 132.763 104.765 132.821 104.615 132.938C104.466 133.054 104.354 133.212 104.277 133.412C104.203 133.613 104.165 133.839 104.165 134.091C104.165 134.346 104.204 134.576 104.28 134.779C104.356 134.983 104.469 135.145 104.618 135.264C104.769 135.382 104.954 135.441 105.175 135.441Z" fill="#101010"/>
<circle cx="120.5" cy="133.5" r="2.5" fill="#151515"/>
<path d="M129.336 132.246C129.309 132.011 129.2 131.829 129.008 131.7C128.816 131.569 128.574 131.503 128.282 131.503C128.073 131.503 127.893 131.536 127.74 131.603C127.588 131.667 127.469 131.757 127.385 131.871C127.302 131.984 127.26 132.112 127.26 132.256C127.26 132.377 127.288 132.482 127.345 132.57C127.403 132.657 127.478 132.731 127.571 132.791C127.665 132.849 127.767 132.898 127.874 132.938C127.982 132.976 128.086 133.007 128.185 133.032L128.682 133.161C128.845 133.201 129.011 133.255 129.182 133.323C129.353 133.391 129.511 133.48 129.657 133.591C129.802 133.702 129.92 133.84 130.01 134.004C130.101 134.168 130.146 134.364 130.146 134.593C130.146 134.881 130.072 135.137 129.923 135.361C129.775 135.585 129.56 135.761 129.279 135.891C128.999 136.02 128.66 136.085 128.262 136.085C127.881 136.085 127.551 136.024 127.273 135.903C126.994 135.782 126.776 135.611 126.619 135.388C126.462 135.165 126.375 134.9 126.358 134.593H127.129C127.143 134.777 127.203 134.93 127.308 135.053C127.414 135.174 127.549 135.264 127.713 135.324C127.878 135.382 128.06 135.411 128.257 135.411C128.474 135.411 128.667 135.377 128.836 135.309C129.007 135.239 129.141 135.143 129.239 135.021C129.337 134.896 129.386 134.751 129.386 134.586C129.386 134.435 129.343 134.311 129.256 134.215C129.172 134.119 129.057 134.04 128.911 133.977C128.767 133.914 128.603 133.858 128.421 133.81L127.82 133.646C127.412 133.535 127.089 133.372 126.85 133.156C126.613 132.941 126.495 132.656 126.495 132.301C126.495 132.008 126.574 131.752 126.733 131.533C126.892 131.314 127.108 131.144 127.38 131.023C127.651 130.901 127.958 130.839 128.299 130.839C128.644 130.839 128.948 130.9 129.212 131.021C129.477 131.142 129.686 131.308 129.838 131.521C129.991 131.731 130.07 131.973 130.077 132.246H129.336ZM130.585 137.432V132.182H131.31V132.801H131.373C131.416 132.721 131.478 132.629 131.559 132.525C131.64 132.42 131.753 132.329 131.897 132.251C132.041 132.172 132.232 132.132 132.469 132.132C132.777 132.132 133.052 132.21 133.294 132.366C133.536 132.522 133.726 132.746 133.863 133.039C134.002 133.333 134.072 133.686 134.072 134.098C134.072 134.511 134.003 134.865 133.866 135.16C133.728 135.453 133.539 135.679 133.299 135.838C133.059 135.996 132.784 136.075 132.476 136.075C132.244 136.075 132.054 136.036 131.907 135.958C131.761 135.88 131.647 135.789 131.564 135.684C131.481 135.58 131.417 135.487 131.373 135.406H131.328V137.432H130.585ZM131.313 134.091C131.313 134.359 131.352 134.595 131.43 134.797C131.508 134.999 131.62 135.157 131.768 135.272C131.915 135.384 132.096 135.441 132.31 135.441C132.532 135.441 132.717 135.382 132.866 135.264C133.016 135.145 133.128 134.983 133.205 134.779C133.282 134.576 133.321 134.346 133.321 134.091C133.321 133.839 133.283 133.613 133.207 133.412C133.132 133.212 133.02 133.054 132.869 132.938C132.72 132.821 132.533 132.763 132.31 132.763C132.094 132.763 131.912 132.819 131.763 132.93C131.615 133.041 131.503 133.196 131.427 133.395C131.351 133.594 131.313 133.826 131.313 134.091ZM136.13 136.077C135.754 136.077 135.43 135.997 135.158 135.836C134.888 135.674 134.68 135.446 134.532 135.152C134.386 134.857 134.313 134.512 134.313 134.116C134.313 133.725 134.386 133.38 134.532 133.082C134.68 132.783 134.885 132.551 135.149 132.383C135.414 132.216 135.724 132.132 136.078 132.132C136.294 132.132 136.502 132.168 136.705 132.239C136.907 132.31 137.088 132.422 137.249 132.575C137.41 132.727 137.537 132.925 137.629 133.169C137.722 133.411 137.769 133.705 137.769 134.051V134.315H134.733V133.758H137.04C137.04 133.562 137 133.389 136.921 133.238C136.841 133.086 136.73 132.966 136.585 132.878C136.443 132.79 136.275 132.746 136.083 132.746C135.874 132.746 135.692 132.797 135.536 132.9C135.382 133.001 135.263 133.134 135.178 133.298C135.096 133.46 135.054 133.637 135.054 133.827V134.262C135.054 134.518 135.099 134.735 135.188 134.914C135.279 135.093 135.406 135.229 135.569 135.324C135.731 135.417 135.921 135.463 136.138 135.463C136.279 135.463 136.407 135.443 136.523 135.403C136.639 135.362 136.739 135.301 136.824 135.219C136.908 135.138 136.973 135.038 137.018 134.919L137.721 135.045C137.665 135.253 137.564 135.434 137.418 135.59C137.274 135.744 137.092 135.864 136.874 135.95C136.657 136.035 136.409 136.077 136.13 136.077ZM138.916 133.733V136H138.173V132.182H138.887V132.803H138.934C139.022 132.601 139.159 132.439 139.347 132.316C139.535 132.193 139.773 132.132 140.06 132.132C140.32 132.132 140.548 132.187 140.744 132.296C140.939 132.404 141.091 132.565 141.198 132.778C141.306 132.992 141.36 133.257 141.36 133.571V136H140.617V133.661C140.617 133.384 140.545 133.168 140.401 133.012C140.256 132.855 140.058 132.776 139.806 132.776C139.634 132.776 139.481 132.813 139.347 132.888C139.214 132.962 139.109 133.072 139.031 133.216C138.955 133.358 138.916 133.531 138.916 133.733ZM143.719 132.182V132.778H141.634V132.182H143.719ZM142.193 131.267H142.936V134.879C142.936 135.023 142.958 135.132 143.001 135.205C143.044 135.276 143.099 135.325 143.167 135.351C143.237 135.376 143.312 135.388 143.394 135.388C143.453 135.388 143.505 135.384 143.55 135.376C143.595 135.368 143.63 135.361 143.655 135.356L143.789 135.97C143.746 135.987 143.684 136.003 143.605 136.02C143.525 136.038 143.426 136.048 143.307 136.05C143.111 136.053 142.929 136.018 142.76 135.945C142.591 135.872 142.454 135.76 142.349 135.607C142.245 135.455 142.193 135.263 142.193 135.033V131.267Z" fill="#101010"/>
<path opacity="0.18" d="M86.4488 114.293H86.9846L88.2442 117.37H88.2876L89.5473 114.293H90.083V118H89.6631V115.184H89.6269L88.4686 118H88.0632L86.9049 115.184H86.8687V118H86.4488V114.293ZM91.4373 118.065C91.2611 118.065 91.1013 118.032 90.9577 117.966C90.8141 117.898 90.7001 117.801 90.6156 117.674C90.5312 117.546 90.4889 117.392 90.4889 117.211C90.4889 117.052 90.5203 116.923 90.5831 116.824C90.6458 116.723 90.7297 116.645 90.8346 116.588C90.9396 116.532 91.0554 116.489 91.1821 116.462C91.31 116.433 91.4385 116.41 91.5676 116.393C91.7365 116.371 91.8735 116.355 91.9784 116.344C92.0846 116.332 92.1618 116.312 92.2101 116.284C92.2596 116.257 92.2843 116.208 92.2843 116.139V116.125C92.2843 115.946 92.2354 115.808 92.1377 115.709C92.0412 115.61 91.8946 115.56 91.6979 115.56C91.494 115.56 91.3341 115.605 91.2183 115.694C91.1025 115.784 91.021 115.879 90.974 115.98L90.5686 115.835C90.641 115.667 90.7375 115.535 90.8582 115.441C90.98 115.346 91.1127 115.279 91.2563 115.242C91.4011 115.203 91.5435 115.184 91.6834 115.184C91.7727 115.184 91.8753 115.195 91.9911 115.216C92.1082 115.237 92.221 115.28 92.3296 115.345C92.4394 115.41 92.5304 115.508 92.6028 115.64C92.6752 115.771 92.7114 115.948 92.7114 116.168V118H92.2843V117.624H92.2626C92.2336 117.684 92.1854 117.748 92.1178 117.817C92.0502 117.886 91.9603 117.944 91.8481 117.993C91.7359 118.041 91.599 118.065 91.4373 118.065ZM91.5025 117.681C91.6714 117.681 91.8137 117.648 91.9296 117.582C92.0466 117.516 92.1347 117.43 92.1938 117.325C92.2541 117.22 92.2843 117.11 92.2843 116.994V116.603C92.2662 116.625 92.2264 116.644 92.1649 116.663C92.1045 116.679 92.0346 116.694 91.9549 116.708C91.8765 116.72 91.7999 116.731 91.7251 116.74C91.6515 116.749 91.5917 116.756 91.5459 116.762C91.4349 116.777 91.3311 116.8 91.2346 116.833C91.1393 116.864 91.0621 116.912 91.0029 116.976C90.945 117.038 90.9161 117.124 90.9161 117.233C90.9161 117.381 90.971 117.493 91.0808 117.569C91.1918 117.644 91.3323 117.681 91.5025 117.681ZM93.3608 119.042C93.2884 119.042 93.2238 119.036 93.1671 119.024C93.1104 119.014 93.0712 119.003 93.0495 118.992L93.1581 118.615C93.2618 118.642 93.3535 118.652 93.4332 118.644C93.5128 118.637 93.5834 118.601 93.6449 118.538C93.7077 118.475 93.765 118.373 93.8169 118.232L93.8965 118.014L92.8685 115.22H93.3318L94.0992 117.435H94.1282L94.8955 115.22H95.3589L94.1788 118.405C94.1257 118.549 94.06 118.668 93.9816 118.762C93.9031 118.857 93.812 118.928 93.7083 118.974C93.6057 119.02 93.4899 119.042 93.3608 119.042Z" fill="#101010"/>
<path opacity="0.18" d="M102.868 114.293H103.317V116.943C103.317 117.18 103.273 117.38 103.186 117.546C103.099 117.711 102.977 117.837 102.819 117.922C102.661 118.008 102.474 118.051 102.26 118.051C102.057 118.051 101.877 118.014 101.719 117.94C101.56 117.865 101.436 117.759 101.346 117.622C101.255 117.484 101.21 117.321 101.21 117.131H101.652C101.652 117.236 101.677 117.328 101.729 117.406C101.782 117.484 101.855 117.544 101.947 117.587C102.038 117.631 102.143 117.653 102.26 117.653C102.389 117.653 102.499 117.625 102.589 117.571C102.68 117.517 102.748 117.437 102.795 117.332C102.844 117.226 102.868 117.096 102.868 116.943V114.293ZM105.604 116.863V115.22H106.031V118H105.604V117.529H105.575C105.51 117.671 105.409 117.791 105.271 117.89C105.134 117.987 104.96 118.036 104.75 118.036C104.576 118.036 104.422 117.998 104.287 117.922C104.152 117.845 104.045 117.729 103.968 117.575C103.891 117.419 103.852 117.223 103.852 116.986V115.22H104.28V116.958C104.28 117.16 104.336 117.322 104.45 117.443C104.564 117.563 104.71 117.624 104.888 117.624C104.994 117.624 105.102 117.596 105.212 117.542C105.323 117.488 105.415 117.405 105.49 117.292C105.566 117.18 105.604 117.037 105.604 116.863ZM106.935 116.328V118H106.508V115.22H106.921V115.654H106.957C107.022 115.513 107.121 115.4 107.254 115.314C107.386 115.227 107.558 115.184 107.768 115.184C107.956 115.184 108.121 115.222 108.262 115.3C108.403 115.376 108.513 115.492 108.591 115.647C108.67 115.802 108.709 115.997 108.709 116.234V118H108.282V116.263C108.282 116.044 108.225 115.874 108.111 115.752C107.998 115.629 107.842 115.568 107.645 115.568C107.508 115.568 107.386 115.597 107.279 115.656C107.173 115.715 107.089 115.802 107.027 115.915C106.966 116.028 106.935 116.166 106.935 116.328Z" fill="#101010"/>
<path opacity="0.18" d="M117.868 114.293H118.317V116.943C118.317 117.18 118.273 117.38 118.186 117.546C118.099 117.711 117.977 117.837 117.819 117.922C117.661 118.008 117.474 118.051 117.26 118.051C117.057 118.051 116.877 118.014 116.719 117.94C116.56 117.865 116.436 117.759 116.346 117.622C116.255 117.484 116.21 117.321 116.21 117.131H116.652C116.652 117.236 116.677 117.328 116.729 117.406C116.782 117.484 116.855 117.544 116.947 117.587C117.038 117.631 117.143 117.653 117.26 117.653C117.389 117.653 117.499 117.625 117.589 117.571C117.68 117.517 117.748 117.437 117.795 117.332C117.844 117.226 117.868 117.096 117.868 116.943V114.293ZM120.604 116.863V115.22H121.031V118H120.604V117.529H120.575C120.51 117.671 120.409 117.791 120.271 117.89C120.134 117.987 119.96 118.036 119.75 118.036C119.576 118.036 119.422 117.998 119.287 117.922C119.152 117.845 119.045 117.729 118.968 117.575C118.891 117.419 118.852 117.223 118.852 116.986V115.22H119.28V116.958C119.28 117.16 119.336 117.322 119.45 117.443C119.564 117.563 119.71 117.624 119.888 117.624C119.994 117.624 120.102 117.596 120.212 117.542C120.323 117.488 120.415 117.405 120.49 117.292C120.566 117.18 120.604 117.037 120.604 116.863ZM121.935 114.293V118H121.508V114.293H121.935ZM122.687 119.042C122.614 119.042 122.55 119.036 122.493 119.024C122.436 119.014 122.397 119.003 122.375 118.992L122.484 118.615C122.588 118.642 122.679 118.652 122.759 118.644C122.839 118.637 122.909 118.601 122.971 118.538C123.034 118.475 123.091 118.373 123.143 118.232L123.222 118.014L122.194 115.22H122.658L123.425 117.435H123.454L124.221 115.22H124.685L123.505 118.405C123.452 118.549 123.386 118.668 123.307 118.762C123.229 118.857 123.138 118.928 123.034 118.974C122.932 119.02 122.816 119.042 122.687 119.042Z" fill="#101010"/>
<path opacity="0.18" d="M131.601 118H131.13L132.491 114.293H132.955L134.316 118H133.845L132.737 114.88H132.708L131.601 118ZM131.775 116.552H133.671V116.95H131.775V116.552ZM136.281 116.863V115.22H136.708V118H136.281V117.529H136.252C136.187 117.671 136.086 117.791 135.948 117.89C135.811 117.987 135.637 118.036 135.427 118.036C135.253 118.036 135.099 117.998 134.964 117.922C134.828 117.845 134.722 117.729 134.645 117.575C134.568 117.419 134.529 117.223 134.529 116.986V115.22H134.956V116.958C134.956 117.16 135.013 117.322 135.127 117.443C135.241 117.563 135.387 117.624 135.565 117.624C135.671 117.624 135.779 117.596 135.888 117.542C135.999 117.488 136.092 117.405 136.167 117.292C136.243 117.18 136.281 117.037 136.281 116.863ZM138.307 119.1C138.101 119.1 137.923 119.074 137.775 119.021C137.626 118.969 137.503 118.9 137.404 118.814C137.306 118.73 137.228 118.639 137.17 118.543L137.511 118.304C137.549 118.355 137.598 118.413 137.657 118.478C137.716 118.544 137.797 118.601 137.9 118.65C138.003 118.699 138.139 118.724 138.307 118.724C138.531 118.724 138.717 118.67 138.863 118.561C139.009 118.452 139.082 118.282 139.082 118.051V117.486H139.045C139.014 117.537 138.969 117.599 138.911 117.674C138.855 117.748 138.773 117.814 138.665 117.872C138.559 117.928 138.416 117.957 138.235 117.957C138.01 117.957 137.809 117.903 137.63 117.797C137.453 117.691 137.312 117.537 137.208 117.334C137.106 117.131 137.055 116.885 137.055 116.596C137.055 116.311 137.105 116.063 137.205 115.852C137.305 115.639 137.444 115.475 137.623 115.359C137.801 115.242 138.008 115.184 138.242 115.184C138.423 115.184 138.566 115.214 138.673 115.274C138.78 115.333 138.862 115.401 138.919 115.477C138.977 115.552 139.021 115.613 139.053 115.662H139.096V115.22H139.509V118.08C139.509 118.319 139.454 118.513 139.346 118.662C139.238 118.813 139.094 118.924 138.911 118.994C138.73 119.065 138.529 119.1 138.307 119.1ZM138.292 117.573C138.464 117.573 138.609 117.534 138.727 117.455C138.845 117.377 138.935 117.264 138.996 117.117C139.058 116.97 139.089 116.793 139.089 116.588C139.089 116.388 139.059 116.211 138.998 116.058C138.938 115.905 138.849 115.785 138.73 115.698C138.612 115.611 138.466 115.568 138.292 115.568C138.111 115.568 137.961 115.613 137.84 115.705C137.721 115.797 137.631 115.92 137.57 116.074C137.511 116.229 137.482 116.4 137.482 116.588C137.482 116.781 137.512 116.952 137.572 117.101C137.634 117.248 137.724 117.364 137.844 117.448C137.964 117.531 138.114 117.573 138.292 117.573Z" fill="#101010"/>
<path opacity="0.18" d="M148.476 115.22C148.454 115.037 148.366 114.894 148.212 114.793C148.057 114.692 147.868 114.641 147.643 114.641C147.479 114.641 147.336 114.667 147.213 114.721C147.091 114.774 146.995 114.847 146.927 114.94C146.859 115.032 146.825 115.138 146.825 115.256C146.825 115.355 146.849 115.44 146.896 115.511C146.944 115.581 147.006 115.64 147.08 115.687C147.155 115.733 147.234 115.771 147.316 115.801C147.398 115.83 147.473 115.854 147.542 115.872L147.918 115.973C148.015 115.998 148.122 116.033 148.241 116.078C148.36 116.123 148.474 116.184 148.583 116.261C148.692 116.337 148.783 116.434 148.854 116.554C148.925 116.673 148.961 116.82 148.961 116.994C148.961 117.194 148.908 117.375 148.803 117.537C148.7 117.698 148.548 117.827 148.347 117.922C148.148 118.017 147.906 118.065 147.622 118.065C147.356 118.065 147.126 118.022 146.932 117.937C146.739 117.851 146.587 117.732 146.476 117.578C146.366 117.425 146.304 117.247 146.29 117.044H146.753C146.765 117.184 146.812 117.3 146.894 117.392C146.977 117.482 147.082 117.55 147.209 117.595C147.337 117.638 147.474 117.66 147.622 117.66C147.793 117.66 147.947 117.632 148.083 117.576C148.219 117.52 148.327 117.441 148.407 117.341C148.487 117.24 148.527 117.122 148.527 116.986C148.527 116.863 148.492 116.763 148.423 116.686C148.355 116.609 148.264 116.546 148.152 116.498C148.04 116.45 147.918 116.407 147.788 116.371L147.332 116.241C147.042 116.158 146.813 116.039 146.644 115.884C146.475 115.73 146.391 115.528 146.391 115.278C146.391 115.07 146.447 114.889 146.559 114.735C146.673 114.579 146.825 114.459 147.015 114.373C147.207 114.286 147.421 114.243 147.658 114.243C147.897 114.243 148.109 114.286 148.295 114.371C148.481 114.456 148.628 114.572 148.736 114.719C148.846 114.866 148.904 115.033 148.91 115.22H148.476ZM150.501 118.058C150.233 118.058 150.002 117.999 149.808 117.881C149.614 117.761 149.465 117.595 149.361 117.381C149.257 117.166 149.205 116.917 149.205 116.632C149.205 116.347 149.257 116.096 149.361 115.879C149.465 115.66 149.611 115.49 149.798 115.368C149.987 115.245 150.206 115.184 150.457 115.184C150.602 115.184 150.745 115.208 150.886 115.256C151.027 115.305 151.156 115.383 151.272 115.492C151.388 115.599 151.48 115.741 151.549 115.919C151.617 116.096 151.652 116.314 151.652 116.574V116.755H149.509V116.386H151.217C151.217 116.229 151.186 116.089 151.123 115.966C151.062 115.843 150.974 115.746 150.859 115.674C150.746 115.603 150.612 115.568 150.457 115.568C150.287 115.568 150.14 115.61 150.016 115.694C149.893 115.778 149.798 115.886 149.732 116.02C149.665 116.154 149.632 116.298 149.632 116.451V116.697C149.632 116.907 149.668 117.085 149.741 117.231C149.814 117.376 149.916 117.486 150.046 117.562C150.177 117.637 150.328 117.674 150.501 117.674C150.613 117.674 150.714 117.659 150.805 117.627C150.896 117.595 150.975 117.546 151.042 117.482C151.108 117.417 151.159 117.336 151.196 117.24L151.608 117.356C151.565 117.496 151.492 117.619 151.389 117.725C151.287 117.83 151.16 117.912 151.009 117.971C150.858 118.029 150.689 118.058 150.501 118.058ZM151.996 119.042V115.22H152.408V115.662H152.459C152.49 115.613 152.534 115.552 152.589 115.477C152.646 115.401 152.727 115.333 152.832 115.274C152.938 115.214 153.082 115.184 153.263 115.184C153.497 115.184 153.703 115.242 153.882 115.359C154.06 115.476 154.199 115.642 154.3 115.857C154.4 116.072 154.45 116.325 154.45 116.617C154.45 116.912 154.4 117.167 154.3 117.383C154.199 117.598 154.061 117.764 153.883 117.882C153.706 117.999 153.502 118.058 153.27 118.058C153.091 118.058 152.948 118.028 152.841 117.969C152.734 117.909 152.651 117.841 152.593 117.765C152.535 117.687 152.49 117.624 152.459 117.573H152.423V119.042H151.996ZM152.416 116.61C152.416 116.82 152.446 117.005 152.508 117.166C152.569 117.325 152.659 117.45 152.778 117.54C152.896 117.63 153.041 117.674 153.212 117.674C153.39 117.674 153.54 117.627 153.659 117.533C153.78 117.438 153.87 117.31 153.93 117.149C153.992 116.988 154.023 116.808 154.023 116.61C154.023 116.415 153.993 116.238 153.932 116.082C153.873 115.924 153.783 115.799 153.663 115.707C153.543 115.614 153.393 115.568 153.212 115.568C153.038 115.568 152.892 115.612 152.774 115.7C152.656 115.787 152.566 115.908 152.506 116.065C152.446 116.221 152.416 116.403 152.416 116.61Z" fill="#101010"/>
<path opacity="0.18" d="M165.576 116.147C165.576 116.538 165.506 116.875 165.365 117.16C165.223 117.445 165.03 117.665 164.784 117.819C164.537 117.973 164.256 118.051 163.94 118.051C163.624 118.051 163.343 117.973 163.097 117.819C162.851 117.665 162.657 117.445 162.516 117.16C162.375 116.875 162.304 116.538 162.304 116.147C162.304 115.756 162.375 115.418 162.516 115.133C162.657 114.848 162.851 114.629 163.097 114.474C163.343 114.32 163.624 114.243 163.94 114.243C164.256 114.243 164.537 114.32 164.784 114.474C165.03 114.629 165.223 114.848 165.365 115.133C165.506 115.418 165.576 115.756 165.576 116.147ZM165.142 116.147C165.142 115.826 165.088 115.555 164.981 115.334C164.875 115.113 164.73 114.946 164.548 114.833C164.367 114.719 164.165 114.663 163.94 114.663C163.716 114.663 163.512 114.719 163.33 114.833C163.149 114.946 163.005 115.113 162.898 115.334C162.792 115.555 162.738 115.826 162.738 116.147C162.738 116.468 162.792 116.739 162.898 116.959C163.005 117.18 163.149 117.347 163.33 117.461C163.512 117.574 163.716 117.631 163.94 117.631C164.165 117.631 164.367 117.574 164.548 117.461C164.73 117.347 164.875 117.18 164.981 116.959C165.088 116.739 165.142 116.468 165.142 116.147ZM167.097 118.058C166.836 118.058 166.612 117.996 166.423 117.873C166.235 117.75 166.09 117.581 165.989 117.365C165.888 117.149 165.837 116.902 165.837 116.625C165.837 116.342 165.889 116.093 165.993 115.877C166.098 115.66 166.244 115.49 166.431 115.368C166.619 115.245 166.838 115.184 167.089 115.184C167.285 115.184 167.461 115.22 167.618 115.292C167.775 115.365 167.903 115.466 168.003 115.597C168.103 115.727 168.166 115.879 168.19 116.053H167.763C167.73 115.926 167.658 115.814 167.545 115.716C167.434 115.617 167.285 115.568 167.097 115.568C166.93 115.568 166.784 115.611 166.659 115.698C166.534 115.784 166.437 115.905 166.367 116.062C166.298 116.217 166.264 116.4 166.264 116.61C166.264 116.825 166.298 117.012 166.365 117.171C166.434 117.33 166.531 117.454 166.655 117.542C166.78 117.63 166.928 117.674 167.097 117.674C167.208 117.674 167.308 117.655 167.399 117.616C167.489 117.578 167.566 117.522 167.629 117.45C167.691 117.377 167.736 117.291 167.763 117.189H168.19C168.166 117.353 168.106 117.501 168.011 117.633C167.916 117.763 167.792 117.867 167.636 117.944C167.481 118.02 167.302 118.058 167.097 118.058ZM169.717 115.22V115.582H168.277V115.22H169.717ZM168.697 114.554H169.124V117.204C169.124 117.324 169.141 117.415 169.176 117.475C169.212 117.534 169.258 117.574 169.314 117.595C169.37 117.614 169.43 117.624 169.493 117.624C169.54 117.624 169.579 117.621 169.609 117.616C169.639 117.61 169.663 117.605 169.681 117.602L169.768 117.986C169.739 117.996 169.699 118.007 169.647 118.018C169.595 118.03 169.529 118.036 169.449 118.036C169.329 118.036 169.211 118.01 169.095 117.958C168.98 117.906 168.885 117.827 168.809 117.721C168.734 117.615 168.697 117.481 168.697 117.319V114.554Z" fill="#101010"/>
<path opacity="0.18" d="M179.388 114.293V118H178.954L176.934 115.09H176.898V118H176.449V114.293H176.883L178.91 117.211H178.946V114.293H179.388ZM181.052 118.058C180.801 118.058 180.581 117.998 180.391 117.879C180.203 117.759 180.056 117.592 179.95 117.377C179.845 117.163 179.792 116.912 179.792 116.625C179.792 116.335 179.845 116.082 179.95 115.866C180.056 115.65 180.203 115.483 180.391 115.363C180.581 115.244 180.801 115.184 181.052 115.184C181.303 115.184 181.522 115.244 181.711 115.363C181.9 115.483 182.047 115.65 182.152 115.866C182.258 116.082 182.311 116.335 182.311 116.625C182.311 116.912 182.258 117.163 182.152 117.377C182.047 117.592 181.9 117.759 181.711 117.879C181.522 117.998 181.303 118.058 181.052 118.058ZM181.052 117.674C181.242 117.674 181.399 117.625 181.522 117.528C181.645 117.43 181.737 117.301 181.796 117.142C181.855 116.983 181.884 116.81 181.884 116.625C181.884 116.439 181.855 116.266 181.796 116.105C181.737 115.945 181.645 115.815 181.522 115.716C181.399 115.617 181.242 115.568 181.052 115.568C180.861 115.568 180.704 115.617 180.581 115.716C180.458 115.815 180.367 115.945 180.308 116.105C180.249 116.266 180.219 116.439 180.219 116.625C180.219 116.81 180.249 116.983 180.308 117.142C180.367 117.301 180.458 117.43 180.581 117.528C180.704 117.625 180.861 117.674 181.052 117.674ZM184.831 115.22L183.803 118H183.369L182.341 115.22H182.804L183.572 117.435H183.601L184.368 115.22H184.831Z" fill="#101010"/>
<path opacity="0.18" d="M192.593 118H191.449V114.293H192.643C193.003 114.293 193.311 114.368 193.566 114.516C193.822 114.663 194.018 114.875 194.155 115.151C194.291 115.426 194.359 115.756 194.359 116.139C194.359 116.526 194.29 116.858 194.153 117.137C194.015 117.414 193.815 117.628 193.552 117.777C193.289 117.926 192.969 118 192.593 118ZM191.898 117.602H192.564C192.87 117.602 193.124 117.543 193.326 117.424C193.527 117.306 193.677 117.138 193.776 116.92C193.875 116.701 193.925 116.441 193.925 116.139C193.925 115.84 193.876 115.583 193.778 115.367C193.68 115.149 193.534 114.983 193.34 114.867C193.146 114.75 192.904 114.692 192.614 114.692H191.898V117.602ZM195.914 118.058C195.646 118.058 195.415 117.999 195.221 117.881C195.028 117.761 194.879 117.595 194.774 117.381C194.67 117.166 194.618 116.917 194.618 116.632C194.618 116.347 194.67 116.096 194.774 115.879C194.879 115.66 195.025 115.49 195.212 115.368C195.4 115.245 195.619 115.184 195.87 115.184C196.015 115.184 196.158 115.208 196.299 115.256C196.44 115.305 196.569 115.383 196.685 115.492C196.801 115.599 196.893 115.741 196.962 115.919C197.03 116.096 197.065 116.314 197.065 116.574V116.755H194.922V116.386H196.631C196.631 116.229 196.599 116.089 196.536 115.966C196.475 115.843 196.387 115.746 196.272 115.674C196.159 115.603 196.025 115.568 195.87 115.568C195.7 115.568 195.553 115.61 195.429 115.694C195.306 115.778 195.211 115.886 195.145 116.02C195.078 116.154 195.045 116.298 195.045 116.451V116.697C195.045 116.907 195.081 117.085 195.154 117.231C195.227 117.376 195.329 117.486 195.46 117.562C195.59 117.637 195.741 117.674 195.914 117.674C196.026 117.674 196.127 117.659 196.218 117.627C196.31 117.595 196.389 117.546 196.455 117.482C196.521 117.417 196.573 117.336 196.609 117.24L197.021 117.356C196.978 117.496 196.905 117.619 196.802 117.725C196.7 117.83 196.573 117.912 196.422 117.971C196.272 118.029 196.102 118.058 195.914 118.058ZM198.538 118.058C198.278 118.058 198.053 117.996 197.865 117.873C197.677 117.75 197.532 117.581 197.431 117.365C197.329 117.149 197.278 116.902 197.278 116.625C197.278 116.342 197.33 116.093 197.434 115.877C197.539 115.66 197.685 115.49 197.872 115.368C198.06 115.245 198.28 115.184 198.531 115.184C198.726 115.184 198.903 115.22 199.059 115.292C199.216 115.365 199.345 115.466 199.445 115.597C199.545 115.727 199.607 115.879 199.631 116.053H199.204C199.172 115.926 199.099 115.814 198.987 115.716C198.876 115.617 198.726 115.568 198.538 115.568C198.372 115.568 198.226 115.611 198.1 115.698C197.976 115.784 197.879 115.905 197.809 116.062C197.74 116.217 197.706 116.4 197.706 116.61C197.706 116.825 197.739 117.012 197.807 117.171C197.876 117.33 197.972 117.454 198.097 117.542C198.222 117.63 198.369 117.674 198.538 117.674C198.649 117.674 198.75 117.655 198.84 117.616C198.931 117.578 199.008 117.522 199.07 117.45C199.133 117.377 199.178 117.291 199.204 117.189H199.631C199.607 117.353 199.547 117.501 199.452 117.633C199.358 117.763 199.233 117.867 199.077 117.944C198.923 118.02 198.743 118.058 198.538 118.058Z" fill="#101010"/>
<g filter="url(#filter0_d_824_14035)">
<rect x="99" y="47" width="50" height="25.9091" rx="3" fill="white"/>
<rect x="99.1136" y="47.1136" width="49.7727" height="25.6818" rx="2.88636" stroke="black" stroke-opacity="0.16" stroke-width="0.227273"/>
</g>
<path d="M103.086 52.6365H102.715L103.548 50.3224H103.952L104.784 52.6365H104.414L103.759 50.7428H103.741L103.086 52.6365ZM103.148 51.7303H104.35V52.0241H103.148V51.7303ZM104.9 53.2873V50.9009H105.23V51.1823H105.259C105.278 51.1461 105.306 51.1043 105.343 51.0569C105.38 51.0094 105.432 50.968 105.497 50.9326C105.563 50.8964 105.649 50.8783 105.757 50.8783C105.897 50.8783 106.022 50.9137 106.132 50.9846C106.242 51.0554 106.328 51.1574 106.391 51.2908C106.454 51.4241 106.486 51.5845 106.486 51.7721C106.486 51.9597 106.454 52.1205 106.392 52.2546C106.329 52.3879 106.244 52.4907 106.134 52.563C106.025 52.6346 105.9 52.6704 105.76 52.6704C105.655 52.6704 105.569 52.6527 105.502 52.6173C105.435 52.5819 105.383 52.5404 105.346 52.493C105.308 52.4455 105.279 52.4033 105.259 52.3664H105.238V53.2873H104.9ZM105.232 51.7687C105.232 51.8907 105.249 51.9977 105.285 52.0896C105.32 52.1815 105.371 52.2534 105.438 52.3054C105.505 52.3566 105.587 52.3822 105.685 52.3822C105.786 52.3822 105.87 52.3555 105.938 52.302C106.006 52.2478 106.057 52.1743 106.091 52.0817C106.127 51.989 106.144 51.8847 106.144 51.7687C106.144 51.6542 106.127 51.5514 106.093 51.4602C106.059 51.3691 106.007 51.2972 105.939 51.2444C105.871 51.1917 105.786 51.1653 105.685 51.1653C105.587 51.1653 105.504 51.1906 105.436 51.241C105.369 51.2915 105.318 51.3619 105.283 51.4523C105.249 51.5427 105.232 51.6482 105.232 51.7687ZM106.673 52.6365V50.9009H107V51.1766H107.018C107.05 51.0832 107.105 51.0098 107.185 50.9563C107.266 50.9021 107.357 50.8749 107.459 50.8749C107.48 50.8749 107.505 50.8757 107.533 50.8772C107.563 50.8787 107.586 50.8806 107.602 50.8829V51.206C107.589 51.2022 107.564 51.1981 107.53 51.1936C107.495 51.1883 107.46 51.1857 107.426 51.1857C107.346 51.1857 107.275 51.2026 107.212 51.2365C107.151 51.2697 107.102 51.316 107.065 51.3755C107.029 51.4343 107.011 51.5013 107.011 51.5766V52.6365H106.673ZM107.704 52.6365V50.9009H108.041V52.6365H107.704ZM107.874 50.6331C107.815 50.6331 107.765 50.6136 107.723 50.5744C107.681 50.5345 107.661 50.487 107.661 50.432C107.661 50.3763 107.681 50.3288 107.723 50.2897C107.765 50.2497 107.815 50.2298 107.874 50.2298C107.933 50.2298 107.983 50.2497 108.024 50.2897C108.067 50.3288 108.088 50.3763 108.088 50.432C108.088 50.487 108.067 50.5345 108.024 50.5744C107.983 50.6136 107.933 50.6331 107.874 50.6331ZM108.643 50.3224V52.6365H108.305V50.3224H108.643ZM109.553 52.6365V52.3834L110.336 51.5721C110.42 51.484 110.489 51.4068 110.543 51.3405C110.598 51.2734 110.639 51.2098 110.666 51.1495C110.693 51.0893 110.707 51.0252 110.707 50.9574C110.707 50.8806 110.689 50.8143 110.652 50.7586C110.616 50.7021 110.567 50.6588 110.504 50.6286C110.442 50.5977 110.372 50.5823 110.293 50.5823C110.21 50.5823 110.138 50.5993 110.076 50.6331C110.014 50.667 109.967 50.7149 109.934 50.7766C109.901 50.8384 109.884 50.9107 109.884 50.9936H109.551C109.551 50.8527 109.583 50.7296 109.648 50.6241C109.713 50.5187 109.802 50.4369 109.915 50.3789C110.028 50.3202 110.156 50.2908 110.3 50.2908C110.445 50.2908 110.573 50.3198 110.684 50.3778C110.796 50.435 110.883 50.5134 110.945 50.6128C111.008 50.7115 111.039 50.823 111.039 50.9473C111.039 51.0331 111.023 51.1171 110.99 51.1992C110.959 51.2813 110.903 51.3729 110.824 51.4738C110.745 51.574 110.635 51.6956 110.494 51.8388L110.034 52.3201V52.337H111.076V52.6365H109.553ZM112.119 52.6749C111.941 52.6741 111.788 52.6271 111.662 52.5337C111.535 52.4402 111.438 52.3043 111.371 52.1258C111.304 51.9472 111.271 51.7322 111.271 51.4806C111.271 51.2297 111.304 51.0154 111.371 50.8377C111.439 50.6599 111.536 50.5243 111.663 50.4309C111.79 50.3375 111.942 50.2908 112.119 50.2908C112.296 50.2908 112.448 50.3379 112.574 50.432C112.701 50.5254 112.798 50.661 112.865 50.8388C112.933 51.0158 112.967 51.2297 112.967 51.4806C112.967 51.7329 112.933 51.9484 112.866 52.1269C112.799 52.3047 112.702 52.4406 112.576 52.5348C112.449 52.6282 112.297 52.6749 112.119 52.6749ZM112.119 52.3732C112.276 52.3732 112.398 52.2967 112.486 52.1438C112.575 51.9909 112.62 51.7698 112.62 51.4806C112.62 51.2885 112.599 51.1262 112.559 50.9936C112.519 50.8603 112.461 50.7593 112.386 50.6908C112.311 50.6215 112.222 50.5868 112.119 50.5868C111.963 50.5868 111.841 50.6637 111.752 50.8173C111.663 50.971 111.618 51.1921 111.617 51.4806C111.617 51.6734 111.637 51.8365 111.677 51.9698C111.718 52.1024 111.776 52.203 111.85 52.2715C111.925 52.3393 112.014 52.3732 112.119 52.3732ZM113.176 52.6365V52.3834L113.96 51.5721C114.043 51.484 114.112 51.4068 114.166 51.3405C114.221 51.2734 114.262 51.2098 114.289 51.1495C114.317 51.0893 114.33 51.0252 114.33 50.9574C114.33 50.8806 114.312 50.8143 114.276 50.7586C114.24 50.7021 114.19 50.6588 114.128 50.6286C114.065 50.5977 113.995 50.5823 113.917 50.5823C113.834 50.5823 113.761 50.5993 113.7 50.6331C113.638 50.667 113.59 50.7149 113.557 50.7766C113.524 50.8384 113.508 50.9107 113.508 50.9936H113.174C113.174 50.8527 113.207 50.7296 113.271 50.6241C113.336 50.5187 113.425 50.4369 113.538 50.3789C113.651 50.3202 113.779 50.2908 113.923 50.2908C114.069 50.2908 114.197 50.3198 114.308 50.3778C114.419 50.435 114.506 50.5134 114.569 50.6128C114.631 50.7115 114.662 50.823 114.662 50.9473C114.662 51.0331 114.646 51.1171 114.614 51.1992C114.582 51.2813 114.527 51.3729 114.448 51.4738C114.369 51.574 114.259 51.6956 114.118 51.8388L113.658 52.3201V52.337H114.7V52.6365H113.176ZM115.743 52.6681C115.587 52.6681 115.449 52.6414 115.327 52.5879C115.205 52.5344 115.109 52.4602 115.039 52.3653C114.969 52.2696 114.931 52.1589 114.926 52.0331H115.28C115.285 52.1017 115.308 52.1612 115.349 52.2116C115.392 52.2613 115.447 52.2998 115.514 52.3269C115.582 52.354 115.657 52.3676 115.74 52.3676C115.831 52.3676 115.912 52.3517 115.982 52.3201C116.053 52.2885 116.108 52.2444 116.148 52.1879C116.188 52.1307 116.208 52.0647 116.208 51.9902C116.208 51.9126 116.188 51.8444 116.148 51.7857C116.109 51.7261 116.051 51.6794 115.975 51.6455C115.9 51.6116 115.809 51.5947 115.702 51.5947H115.506V51.31H115.702C115.788 51.31 115.863 51.2945 115.928 51.2636C115.993 51.2328 116.045 51.1898 116.082 51.1348C116.118 51.0791 116.137 51.0139 116.137 50.9394C116.137 50.8678 116.121 50.8056 116.088 50.7529C116.057 50.6994 116.011 50.6576 115.953 50.6275C115.895 50.5974 115.826 50.5823 115.747 50.5823C115.672 50.5823 115.601 50.5962 115.536 50.6241C115.471 50.6512 115.418 50.6904 115.378 50.7416C115.337 50.7921 115.315 50.8527 115.312 50.9235H114.974C114.978 50.7985 115.015 50.6885 115.085 50.5936C115.156 50.4987 115.249 50.4245 115.365 50.371C115.481 50.3175 115.61 50.2908 115.752 50.2908C115.9 50.2908 116.028 50.3198 116.136 50.3778C116.244 50.435 116.328 50.5115 116.387 50.6072C116.446 50.7028 116.475 50.8075 116.475 50.9213C116.475 51.0508 116.439 51.1608 116.366 51.2512C116.294 51.3416 116.198 51.4022 116.077 51.4331V51.4512C116.231 51.4746 116.35 51.5356 116.434 51.6342C116.519 51.7329 116.561 51.8553 116.561 52.0015C116.561 52.1288 116.526 52.2429 116.454 52.3438C116.384 52.4448 116.287 52.5242 116.164 52.5822C116.041 52.6395 115.901 52.6681 115.743 52.6681Z" fill="#676767"/>
<path d="M102.636 55.6365L145.364 55.6365" stroke="black" stroke-opacity="0.23" stroke-width="0.227273" stroke-linecap="round"/>
<circle cx="103.773" cy="61.3182" r="1.13636" fill="#FF612D"/>
<path d="M107.209 62.6076V59.7151H107.395V62.6076H107.209ZM107.789 60.6122C107.777 60.5052 107.727 60.4224 107.64 60.3636C107.553 60.3041 107.443 60.2744 107.31 60.2744C107.215 60.2744 107.133 60.2894 107.064 60.3196C106.994 60.3489 106.941 60.3896 106.902 60.4416C106.864 60.4928 106.846 60.5512 106.846 60.6167C106.846 60.6717 106.858 60.7192 106.884 60.7591C106.91 60.799 106.945 60.8325 106.987 60.8596C107.03 60.886 107.076 60.9082 107.125 60.9263C107.174 60.9436 107.221 60.958 107.266 60.9693L107.492 61.028C107.566 61.0461 107.641 61.0706 107.719 61.1014C107.797 61.1323 107.869 61.173 107.935 61.2235C108.001 61.2739 108.055 61.3365 108.095 61.411C108.137 61.4856 108.157 61.5749 108.157 61.6788C108.157 61.8099 108.124 61.9263 108.056 62.028C107.989 62.1297 107.891 62.2099 107.763 62.2686C107.636 62.3274 107.482 62.3568 107.301 62.3568C107.128 62.3568 106.978 62.3293 106.851 62.2743C106.725 62.2193 106.626 62.1413 106.554 62.0404C106.483 61.9387 106.443 61.8182 106.435 61.6788H106.786C106.792 61.7624 106.82 61.8321 106.867 61.8879C106.915 61.9429 106.977 61.9839 107.051 62.011C107.127 62.0374 107.209 62.0506 107.299 62.0506C107.397 62.0506 107.485 62.0351 107.562 62.0042C107.64 61.9726 107.701 61.9289 107.745 61.8732C107.789 61.8167 107.812 61.7508 107.812 61.6754C107.812 61.6069 107.792 61.5508 107.753 61.5071C107.714 61.4634 107.662 61.4272 107.596 61.3986C107.53 61.37 107.456 61.3448 107.373 61.3229L107.1 61.2483C106.915 61.1979 106.768 61.1237 106.659 61.0257C106.551 60.9278 106.498 60.7983 106.498 60.6371C106.498 60.5037 106.534 60.3873 106.606 60.2879C106.678 60.1885 106.776 60.1113 106.9 60.0563C107.023 60.0005 107.163 59.9727 107.318 59.9727C107.475 59.9727 107.613 60.0002 107.733 60.0552C107.853 60.1101 107.948 60.1858 108.017 60.2823C108.087 60.3779 108.123 60.4879 108.126 60.6122H107.789ZM109.881 60.0043V62.3184H109.531V60.3546H109.517L108.964 60.7162V60.3817L109.541 60.0043H109.881ZM110.316 62.3184V62.0653L111.099 61.254C111.183 61.1659 111.252 61.0886 111.306 61.0224C111.361 60.9553 111.402 60.8917 111.429 60.8314C111.456 60.7711 111.47 60.7071 111.47 60.6393C111.47 60.5625 111.452 60.4962 111.416 60.4405C111.379 60.384 111.33 60.3406 111.268 60.3105C111.205 60.2796 111.135 60.2642 111.056 60.2642C110.973 60.2642 110.901 60.2811 110.839 60.315C110.778 60.3489 110.73 60.3968 110.697 60.4585C110.664 60.5203 110.647 60.5926 110.647 60.6755H110.314C110.314 60.5346 110.346 60.4115 110.411 60.306C110.476 60.2005 110.565 60.1188 110.678 60.0608C110.791 60.002 110.919 59.9727 111.063 59.9727C111.208 59.9727 111.337 60.0017 111.447 60.0597C111.559 60.1169 111.646 60.1953 111.708 60.2947C111.771 60.3934 111.802 60.5049 111.802 60.6291C111.802 60.715 111.786 60.799 111.753 60.8811C111.722 60.9632 111.666 61.0547 111.587 61.1557C111.508 61.2559 111.398 61.3775 111.257 61.5206L110.798 62.002V62.0189H111.839V62.3184H110.316ZM112.521 62.002L112.504 62.1251C112.492 62.2155 112.473 62.3097 112.446 62.4076C112.42 62.5063 112.392 62.5978 112.364 62.6822C112.336 62.7666 112.313 62.8336 112.295 62.8833H112.055C112.065 62.8366 112.079 62.7733 112.096 62.6935C112.113 62.6144 112.13 62.5259 112.147 62.428C112.163 62.33 112.176 62.2302 112.184 62.1285L112.195 62.002H112.521ZM113.544 59.9727C113.647 59.9734 113.749 59.9923 113.849 60.0292C113.949 60.0661 114.04 60.1263 114.12 60.21C114.202 60.2936 114.266 60.4066 114.315 60.5489C114.363 60.6905 114.388 60.8668 114.389 61.0777C114.389 61.2804 114.369 61.4608 114.328 61.6189C114.287 61.7764 114.229 61.9093 114.153 62.0178C114.078 62.1263 113.986 62.2088 113.878 62.2653C113.771 62.3217 113.649 62.35 113.515 62.35C113.377 62.35 113.254 62.3229 113.147 62.2686C113.04 62.2144 112.953 62.1395 112.886 62.0438C112.819 61.9474 112.777 61.8366 112.761 61.7116H113.106C113.128 61.811 113.174 61.8916 113.243 61.9534C113.313 62.0144 113.404 62.0449 113.515 62.0449C113.684 62.0449 113.816 61.9711 113.911 61.8235C114.006 61.6751 114.054 61.4679 114.055 61.202H114.037C113.997 61.2668 113.948 61.3225 113.89 61.3692C113.832 61.4159 113.766 61.4521 113.694 61.4777C113.622 61.5033 113.545 61.5161 113.463 61.5161C113.329 61.5161 113.208 61.4834 113.099 61.4178C112.989 61.3523 112.902 61.2623 112.838 61.1478C112.773 61.0333 112.741 60.9026 112.741 60.7557C112.741 60.6096 112.774 60.477 112.84 60.358C112.907 60.239 113 60.1448 113.12 60.0755C113.241 60.0054 113.382 59.9712 113.544 59.9727ZM113.545 60.2664C113.457 60.2664 113.377 60.2883 113.307 60.332C113.237 60.3749 113.181 60.4333 113.141 60.5071C113.1 60.5802 113.08 60.6615 113.08 60.7512C113.08 60.8408 113.099 60.9222 113.138 60.9952C113.178 61.0676 113.232 61.1252 113.301 61.1681C113.37 61.2103 113.449 61.2314 113.538 61.2314C113.605 61.2314 113.666 61.2186 113.724 61.193C113.781 61.1674 113.831 61.132 113.874 61.0868C113.917 61.0408 113.95 60.9888 113.974 60.9308C113.999 60.8728 114.011 60.8118 114.011 60.7478C114.011 60.6627 113.99 60.5836 113.95 60.5105C113.91 60.4374 113.855 60.3787 113.785 60.3342C113.715 60.289 113.635 60.2664 113.545 60.2664ZM115.37 62.35C115.229 62.35 115.101 62.3229 114.988 62.2686C114.876 62.2137 114.786 62.1383 114.719 62.0427C114.652 61.947 114.617 61.8378 114.612 61.715H114.951C114.959 61.8144 115.003 61.8962 115.083 61.9602C115.163 62.0242 115.259 62.0562 115.37 62.0562C115.459 62.0562 115.538 62.0359 115.606 61.9952C115.676 61.9538 115.73 61.8969 115.769 61.8246C115.809 61.7523 115.829 61.6698 115.829 61.5771C115.829 61.483 115.809 61.399 115.768 61.3252C115.727 61.2514 115.671 61.1933 115.6 61.1512C115.529 61.109 115.447 61.0875 115.355 61.0868C115.285 61.0868 115.215 61.0988 115.144 61.1229C115.073 61.147 115.016 61.1787 114.972 61.2178L114.653 61.1704L114.783 60.0043H116.055V60.3037H115.073L115 60.9512H115.013C115.058 60.9075 115.118 60.8709 115.193 60.8416C115.268 60.8122 115.349 60.7975 115.435 60.7975C115.575 60.7975 115.701 60.831 115.811 60.8981C115.922 60.9651 116.009 61.0566 116.072 61.1726C116.136 61.2879 116.168 61.4205 116.167 61.5704C116.168 61.7203 116.134 61.854 116.065 61.9715C115.997 62.089 115.903 62.1816 115.783 62.2494C115.663 62.3165 115.525 62.35 115.37 62.35ZM117.845 62.3568C117.667 62.356 117.514 62.3089 117.388 62.2155C117.261 62.1221 117.164 61.9862 117.097 61.8076C117.03 61.6291 116.997 61.4141 116.997 61.1625C116.997 60.9116 117.03 60.6973 117.097 60.5195C117.165 60.3418 117.262 60.2062 117.389 60.1128C117.516 60.0194 117.668 59.9727 117.845 59.9727C118.022 59.9727 118.174 60.0198 118.301 60.1139C118.427 60.2073 118.524 60.3429 118.591 60.5207C118.659 60.6977 118.693 60.9116 118.693 61.1625C118.693 61.4148 118.659 61.6302 118.592 61.8088C118.525 61.9865 118.428 62.1225 118.302 62.2167C118.175 62.3101 118.023 62.3568 117.845 62.3568ZM117.845 62.0551C118.002 62.0551 118.124 61.9786 118.213 61.8257C118.301 61.6728 118.346 61.4517 118.346 61.1625C118.346 60.9704 118.326 60.8081 118.285 60.6755C118.245 60.5421 118.187 60.4412 118.112 60.3727C118.037 60.3034 117.949 60.2687 117.845 60.2687C117.689 60.2687 117.567 60.3455 117.478 60.4992C117.389 60.6529 117.344 60.874 117.344 61.1625C117.344 61.3553 117.364 61.5184 117.404 61.6517C117.444 61.7843 117.502 61.8849 117.576 61.9534C117.651 62.0212 117.741 62.0551 117.845 62.0551ZM119.708 62.3568C119.53 62.356 119.377 62.3089 119.251 62.2155C119.124 62.1221 119.027 61.9862 118.96 61.8076C118.893 61.6291 118.86 61.4141 118.86 61.1625C118.86 60.9116 118.893 60.6973 118.96 60.5195C119.028 60.3418 119.125 60.2062 119.252 60.1128C119.379 60.0194 119.531 59.9727 119.708 59.9727C119.885 59.9727 120.037 60.0198 120.164 60.1139C120.29 60.2073 120.387 60.3429 120.454 60.5207C120.522 60.6977 120.556 60.9116 120.556 61.1625C120.556 61.4148 120.522 61.6302 120.455 61.8088C120.388 61.9865 120.291 62.1225 120.165 62.2167C120.038 62.3101 119.886 62.3568 119.708 62.3568ZM119.708 62.0551C119.865 62.0551 119.987 61.9786 120.076 61.8257C120.164 61.6728 120.209 61.4517 120.209 61.1625C120.209 60.9704 120.189 60.8081 120.148 60.6755C120.108 60.5421 120.05 60.4412 119.975 60.3727C119.9 60.3034 119.811 60.2687 119.708 60.2687C119.552 60.2687 119.43 60.3455 119.341 60.4992C119.252 60.6529 119.207 60.874 119.207 61.1625C119.207 61.3553 119.227 61.5184 119.267 61.6517C119.307 61.7843 119.365 61.8849 119.439 61.9534C119.514 62.0212 119.604 62.0551 119.708 62.0551ZM121.571 62.3568C121.393 62.356 121.24 62.3089 121.114 62.2155C120.987 62.1221 120.89 61.9862 120.823 61.8076C120.756 61.6291 120.723 61.4141 120.723 61.1625C120.723 60.9116 120.756 60.6973 120.823 60.5195C120.891 60.3418 120.988 60.2062 121.115 60.1128C121.242 60.0194 121.394 59.9727 121.571 59.9727C121.748 59.9727 121.9 60.0198 122.027 60.1139C122.153 60.2073 122.25 60.3429 122.317 60.5207C122.385 60.6977 122.419 60.9116 122.419 61.1625C122.419 61.4148 122.385 61.6302 122.318 61.8088C122.251 61.9865 122.154 62.1225 122.028 62.2167C121.901 62.3101 121.749 62.3568 121.571 62.3568ZM121.571 62.0551C121.728 62.0551 121.85 61.9786 121.938 61.8257C122.027 61.6728 122.072 61.4517 122.072 61.1625C122.072 60.9704 122.051 60.8081 122.011 60.6755C121.971 60.5421 121.913 60.4412 121.838 60.3727C121.763 60.3034 121.674 60.2687 121.571 60.2687C121.415 60.2687 121.293 60.3455 121.204 60.4992C121.115 60.6529 121.07 60.874 121.07 61.1625C121.07 61.3553 121.09 61.5184 121.129 61.6517C121.17 61.7843 121.228 61.8849 121.302 61.9534C121.377 62.0212 121.467 62.0551 121.571 62.0551Z" fill="#101010"/>
<circle cx="103.773" cy="67.2274" r="1.13636" fill="#101010"/>
<path d="M107.209 68.5168V65.6242H107.395V68.5168H107.209ZM107.789 66.5214C107.777 66.4144 107.727 66.3316 107.64 66.2728C107.553 66.2133 107.443 66.1835 107.31 66.1835C107.215 66.1835 107.133 66.1986 107.064 66.2287C106.994 66.2581 106.941 66.2988 106.902 66.3508C106.864 66.402 106.846 66.4604 106.846 66.5259C106.846 66.5809 106.858 66.6283 106.884 66.6683C106.91 66.7082 106.945 66.7417 106.987 66.7688C107.03 66.7952 107.076 66.8174 107.125 66.8355C107.174 66.8528 107.221 66.8671 107.266 66.8784L107.492 66.9372C107.566 66.9553 107.641 66.9797 107.719 67.0106C107.797 67.0415 107.869 67.0822 107.935 67.1327C108.001 67.1831 108.055 67.2456 108.095 67.3202C108.137 67.3948 108.157 67.4841 108.157 67.588C108.157 67.7191 108.124 67.8355 108.056 67.9372C107.989 68.0388 107.891 68.1191 107.763 68.1778C107.636 68.2366 107.482 68.266 107.301 68.266C107.128 68.266 106.978 68.2385 106.851 68.1835C106.725 68.1285 106.626 68.0505 106.554 67.9496C106.483 67.8479 106.443 67.7274 106.435 67.588H106.786C106.792 67.6716 106.82 67.7413 106.867 67.797C106.915 67.852 106.977 67.8931 107.051 67.9202C107.127 67.9466 107.209 67.9598 107.299 67.9598C107.397 67.9598 107.485 67.9443 107.562 67.9134C107.64 67.8818 107.701 67.8381 107.745 67.7824C107.789 67.7259 107.812 67.6599 107.812 67.5846C107.812 67.5161 107.792 67.46 107.753 67.4163C107.714 67.3726 107.662 67.3364 107.596 67.3078C107.53 67.2792 107.456 67.2539 107.373 67.2321L107.1 67.1575C106.915 67.107 106.768 67.0329 106.659 66.9349C106.551 66.837 106.498 66.7074 106.498 66.5462C106.498 66.4129 106.534 66.2965 106.606 66.1971C106.678 66.0977 106.776 66.0205 106.9 65.9655C107.023 65.9097 107.163 65.8819 107.318 65.8819C107.475 65.8819 107.613 65.9093 107.733 65.9643C107.853 66.0193 107.948 66.095 108.017 66.1914C108.087 66.2871 108.123 66.3971 108.126 66.5214H107.789ZM109.881 65.9135V68.2275H109.531V66.2638H109.517L108.964 66.6253V66.2909L109.541 65.9135H109.881ZM111.194 65.9135V68.2275H110.844V66.2638H110.83L110.277 66.6253V66.2909L110.854 65.9135H111.194ZM111.94 67.9112L111.923 68.0343C111.911 68.1247 111.892 68.2189 111.865 68.3168C111.839 68.4155 111.811 68.507 111.783 68.5914C111.755 68.6757 111.732 68.7428 111.714 68.7925H111.474C111.484 68.7458 111.498 68.6825 111.515 68.6027C111.532 68.5236 111.549 68.4351 111.566 68.3371C111.582 68.2392 111.595 68.1394 111.603 68.0377L111.614 67.9112H111.94ZM112.948 68.2592C112.806 68.2592 112.679 68.2321 112.566 68.1778C112.454 68.1228 112.364 68.0475 112.297 67.9518C112.23 67.8562 112.194 67.747 112.19 67.6242H112.529C112.537 67.7236 112.581 67.8053 112.661 67.8694C112.741 67.9334 112.836 67.9654 112.948 67.9654C113.037 67.9654 113.115 67.9451 113.184 67.9044C113.253 67.863 113.308 67.8061 113.347 67.7338C113.387 67.6615 113.407 67.579 113.407 67.4863C113.407 67.3922 113.386 67.3082 113.346 67.2344C113.305 67.1605 113.249 67.1025 113.177 67.0603C113.106 67.0182 113.025 66.9967 112.933 66.9959C112.863 66.9959 112.793 67.008 112.722 67.0321C112.651 67.0562 112.594 67.0878 112.55 67.127L112.23 67.0796L112.36 65.9135H113.633V66.2129H112.651L112.577 66.8604H112.591C112.636 66.8167 112.696 66.7801 112.77 66.7508C112.846 66.7214 112.926 66.7067 113.012 66.7067C113.153 66.7067 113.279 66.7402 113.389 66.8072C113.499 66.8743 113.586 66.9658 113.65 67.0818C113.714 67.1971 113.745 67.3296 113.744 67.4795C113.745 67.6294 113.711 67.7631 113.643 67.8807C113.575 67.9982 113.481 68.0908 113.36 68.1586C113.241 68.2257 113.103 68.2592 112.948 68.2592ZM115.423 68.266C115.245 68.2652 115.092 68.2181 114.965 68.1247C114.839 68.0313 114.742 67.8953 114.675 67.7168C114.608 67.5383 114.574 67.3232 114.574 67.0716C114.574 66.8208 114.608 66.6065 114.675 66.4287C114.743 66.251 114.84 66.1154 114.967 66.022C115.094 65.9286 115.246 65.8819 115.423 65.8819C115.6 65.8819 115.752 65.9289 115.878 66.0231C116.005 66.1165 116.102 66.2521 116.169 66.4299C116.237 66.6069 116.27 66.8208 116.27 67.0716C116.27 67.324 116.237 67.5394 116.17 67.718C116.103 67.8957 116.006 68.0317 115.88 68.1258C115.753 68.2193 115.601 68.266 115.423 68.266ZM115.423 67.9643C115.58 67.9643 115.702 67.8878 115.79 67.7349C115.879 67.582 115.924 67.3609 115.924 67.0716C115.924 66.8796 115.903 66.7172 115.863 66.5847C115.823 66.4513 115.765 66.3504 115.69 66.2818C115.615 66.2125 115.526 66.1779 115.423 66.1779C115.267 66.1779 115.145 66.2547 115.056 66.4084C114.967 66.5621 114.922 66.7831 114.921 67.0716C114.921 67.2645 114.941 67.4276 114.981 67.5609C115.022 67.6935 115.08 67.794 115.154 67.8626C115.229 67.9304 115.318 67.9643 115.423 67.9643ZM117.286 68.266C117.107 68.2652 116.955 68.2181 116.828 68.1247C116.702 68.0313 116.605 67.8953 116.538 67.7168C116.471 67.5383 116.437 67.3232 116.437 67.0716C116.437 66.8208 116.471 66.6065 116.538 66.4287C116.606 66.251 116.703 66.1154 116.83 66.022C116.957 65.9286 117.109 65.8819 117.286 65.8819C117.463 65.8819 117.615 65.9289 117.741 66.0231C117.868 66.1165 117.965 66.2521 118.032 66.4299C118.1 66.6069 118.133 66.8208 118.133 67.0716C118.133 67.324 118.1 67.5394 118.033 67.718C117.966 67.8957 117.869 68.0317 117.742 68.1258C117.616 68.2193 117.464 68.266 117.286 68.266ZM117.286 67.9643C117.443 67.9643 117.565 67.8878 117.653 67.7349C117.742 67.582 117.787 67.3609 117.787 67.0716C117.787 66.8796 117.766 66.7172 117.726 66.5847C117.686 66.4513 117.628 66.3504 117.553 66.2818C117.478 66.2125 117.389 66.1779 117.286 66.1779C117.13 66.1779 117.008 66.2547 116.919 66.4084C116.83 66.5621 116.785 66.7831 116.784 67.0716C116.784 67.2645 116.804 67.4276 116.844 67.5609C116.885 67.6935 116.943 67.794 117.017 67.8626C117.092 67.9304 117.181 67.9643 117.286 67.9643ZM119.149 68.266C118.97 68.2652 118.818 68.2181 118.691 68.1247C118.565 68.0313 118.468 67.8953 118.401 67.7168C118.334 67.5383 118.3 67.3232 118.3 67.0716C118.3 66.8208 118.334 66.6065 118.401 66.4287C118.469 66.251 118.566 66.1154 118.693 66.022C118.82 65.9286 118.972 65.8819 119.149 65.8819C119.326 65.8819 119.478 65.9289 119.604 66.0231C119.731 66.1165 119.828 66.2521 119.895 66.4299C119.963 66.6069 119.996 66.8208 119.996 67.0716C119.996 67.324 119.963 67.5394 119.896 67.718C119.829 67.8957 119.732 68.0317 119.605 68.1258C119.479 68.2193 119.327 68.266 119.149 68.266ZM119.149 67.9643C119.306 67.9643 119.428 67.8878 119.516 67.7349C119.605 67.582 119.65 67.3609 119.65 67.0716C119.65 66.8796 119.629 66.7172 119.589 66.5847C119.549 66.4513 119.491 66.3504 119.416 66.2818C119.341 66.2125 119.252 66.1779 119.149 66.1779C118.993 66.1779 118.871 66.2547 118.782 66.4084C118.693 66.5621 118.648 66.7831 118.647 67.0716C118.647 67.2645 118.667 67.4276 118.707 67.5609C118.748 67.6935 118.805 67.794 118.88 67.8626C118.955 67.9304 119.044 67.9643 119.149 67.9643Z" fill="#101010"/>
<path d="M140.704 66.9236V67.2174H139.678V66.9236H140.704ZM141.723 68.2592C141.581 68.2592 141.454 68.2321 141.341 68.1778C141.229 68.1228 141.139 68.0475 141.072 67.9518C141.005 67.8562 140.969 67.747 140.965 67.6242H141.304C141.312 67.7236 141.356 67.8053 141.436 67.8694C141.516 67.9334 141.611 67.9654 141.723 67.9654C141.812 67.9654 141.89 67.9451 141.959 67.9044C142.028 67.863 142.083 67.8061 142.122 67.7338C142.162 67.6615 142.182 67.579 142.182 67.4863C142.182 67.3922 142.161 67.3082 142.121 67.2344C142.08 67.1605 142.024 67.1025 141.952 67.0603C141.881 67.0182 141.8 66.9967 141.708 66.9959C141.638 66.9959 141.568 67.008 141.497 67.0321C141.426 67.0562 141.369 67.0878 141.325 67.127L141.005 67.0796L141.135 65.9135H142.408V66.2129H141.426L141.352 66.8604H141.366C141.411 66.8167 141.471 66.7801 141.545 66.7508C141.621 66.7214 141.701 66.7067 141.787 66.7067C141.928 66.7067 142.054 66.7402 142.164 66.8072C142.274 66.8743 142.361 66.9658 142.425 67.0818C142.489 67.1971 142.52 67.3296 142.519 67.4795C142.52 67.6294 142.486 67.7631 142.418 67.8807C142.35 67.9982 142.256 68.0908 142.135 68.1586C142.016 68.2257 141.878 68.2592 141.723 68.2592ZM143.949 67.7937V67.6716C143.949 67.5842 143.967 67.5044 144.003 67.4321C144.04 67.359 144.094 67.3006 144.164 67.2569C144.235 67.2125 144.32 67.1903 144.42 67.1903C144.523 67.1903 144.609 67.2121 144.678 67.2558C144.747 67.2995 144.8 67.3579 144.835 67.431C144.871 67.504 144.889 67.5842 144.889 67.6716V67.7937C144.889 67.881 144.871 67.9613 144.835 68.0343C144.799 68.1066 144.746 68.165 144.676 68.2095C144.606 68.2532 144.521 68.275 144.42 68.275C144.319 68.275 144.233 68.2532 144.163 68.2095C144.093 68.165 144.04 68.1066 144.003 68.0343C143.967 67.9613 143.949 67.881 143.949 67.7937ZM144.212 67.6716V67.7937C144.212 67.8584 144.228 67.9172 144.259 67.9699C144.29 68.0226 144.343 68.049 144.42 68.049C144.496 68.049 144.549 68.0226 144.58 67.9699C144.61 67.9172 144.625 67.8584 144.625 67.7937V67.6716C144.625 67.6068 144.61 67.5481 144.581 67.4954C144.552 67.4426 144.499 67.4163 144.42 67.4163C144.345 67.4163 144.291 67.4426 144.26 67.4954C144.228 67.5481 144.212 67.6068 144.212 67.6716ZM142.785 66.4694V66.3474C142.785 66.26 142.803 66.1798 142.84 66.1067C142.876 66.0336 142.93 65.9753 143 65.9316C143.071 65.8879 143.156 65.866 143.256 65.866C143.359 65.866 143.445 65.8879 143.514 65.9316C143.583 65.9753 143.636 66.0336 143.671 66.1067C143.707 66.1798 143.724 66.26 143.724 66.3474V66.4694C143.724 66.5568 143.706 66.637 143.67 66.7101C143.635 66.7824 143.582 66.8408 143.512 66.8852C143.443 66.9289 143.357 66.9507 143.256 66.9507C143.154 66.9507 143.068 66.9289 142.998 66.8852C142.928 66.8408 142.876 66.7824 142.84 66.7101C142.803 66.637 142.785 66.5568 142.785 66.4694ZM143.05 66.3474V66.4694C143.05 66.5342 143.065 66.5929 143.095 66.6457C143.126 66.6984 143.18 66.7248 143.256 66.7248C143.332 66.7248 143.385 66.6984 143.415 66.6457C143.446 66.5929 143.461 66.5342 143.461 66.4694V66.3474C143.461 66.2826 143.446 66.2238 143.417 66.1711C143.388 66.1184 143.334 66.092 143.256 66.092C143.181 66.092 143.128 66.1184 143.096 66.1711C143.065 66.2238 143.05 66.2826 143.05 66.3474ZM142.893 68.2275L144.484 65.9135H144.754L143.163 68.2275H142.893Z" fill="#101010"/>
<path d="M139.341 61.0144V61.3082H138.315V61.0144H139.341ZM140.473 60.0043V62.3184H140.123V60.3546H140.11L139.556 60.7162V60.3817L140.133 60.0043H140.473ZM140.908 62.3184V62.0653L141.691 61.254C141.775 61.1659 141.844 61.0886 141.898 61.0224C141.953 60.9553 141.994 60.8917 142.021 60.8314C142.048 60.7711 142.062 60.7071 142.062 60.6393C142.062 60.5625 142.044 60.4962 142.008 60.4405C141.972 60.384 141.922 60.3406 141.86 60.3105C141.797 60.2796 141.727 60.2642 141.649 60.2642C141.566 60.2642 141.493 60.2811 141.432 60.315C141.37 60.3489 141.322 60.3968 141.289 60.4585C141.256 60.5203 141.239 60.5926 141.239 60.6755H140.906C140.906 60.5346 140.939 60.4115 141.003 60.306C141.068 60.2005 141.157 60.1188 141.27 60.0608C141.383 60.002 141.511 59.9727 141.655 59.9727C141.801 59.9727 141.929 60.0017 142.039 60.0597C142.151 60.1169 142.238 60.1953 142.3 60.2947C142.363 60.3934 142.394 60.5049 142.394 60.6291C142.394 60.715 142.378 60.799 142.346 60.8811C142.314 60.9632 142.259 61.0547 142.18 61.1557C142.1 61.2559 141.99 61.3775 141.85 61.5206L141.39 62.002V62.0189H142.432V62.3184H140.908ZM143.877 61.8845V61.7624C143.877 61.6751 143.895 61.5952 143.931 61.5229C143.968 61.4498 144.021 61.3915 144.091 61.3478C144.162 61.3033 144.248 61.2811 144.348 61.2811C144.45 61.2811 144.536 61.3029 144.606 61.3466C144.675 61.3903 144.727 61.4487 144.763 61.5218C144.799 61.5948 144.817 61.6751 144.817 61.7624V61.8845C144.817 61.9719 144.799 62.0521 144.763 62.1251C144.726 62.1975 144.673 62.2558 144.603 62.3003C144.534 62.344 144.449 62.3658 144.348 62.3658C144.246 62.3658 144.16 62.344 144.09 62.3003C144.02 62.2558 143.967 62.1975 143.931 62.1251C143.895 62.0521 143.877 61.9719 143.877 61.8845ZM144.14 61.7624V61.8845C144.14 61.9493 144.155 62.008 144.186 62.0607C144.217 62.1135 144.271 62.1398 144.348 62.1398C144.424 62.1398 144.477 62.1135 144.507 62.0607C144.537 62.008 144.552 61.9493 144.552 61.8845V61.7624C144.552 61.6977 144.538 61.6389 144.508 61.5862C144.48 61.5335 144.426 61.5071 144.348 61.5071C144.273 61.5071 144.219 61.5335 144.187 61.5862C144.156 61.6389 144.14 61.6977 144.14 61.7624ZM142.713 60.5602V60.4382C142.713 60.3508 142.731 60.2706 142.767 60.1975C142.804 60.1245 142.858 60.0661 142.928 60.0224C142.998 59.9787 143.084 59.9569 143.184 59.9569C143.287 59.9569 143.372 59.9787 143.442 60.0224C143.511 60.0661 143.563 60.1245 143.599 60.1975C143.634 60.2706 143.652 60.3508 143.652 60.4382V60.5602C143.652 60.6476 143.634 60.7278 143.598 60.8009C143.562 60.8732 143.51 60.9316 143.439 60.976C143.37 61.0197 143.285 61.0416 143.184 61.0416C143.082 61.0416 142.995 61.0197 142.925 60.976C142.856 60.9316 142.803 60.8732 142.767 60.8009C142.731 60.7278 142.713 60.6476 142.713 60.5602ZM142.977 60.4382V60.5602C142.977 60.625 142.992 60.6838 143.023 60.7365C143.053 60.7892 143.107 60.8156 143.184 60.8156C143.259 60.8156 143.312 60.7892 143.342 60.7365C143.373 60.6838 143.389 60.625 143.389 60.5602V60.4382C143.389 60.3734 143.374 60.3147 143.345 60.2619C143.315 60.2092 143.262 60.1828 143.184 60.1828C143.109 60.1828 143.055 60.2092 143.024 60.2619C142.993 60.3147 142.977 60.3734 142.977 60.4382ZM142.82 62.3184L144.411 60.0043H144.681L143.09 62.3184H142.82Z" fill="#4DA000"/>
<defs>
<filter id="filter0_d_824_14035" x="95" y="47" width="58" height="33.9092" filterUnits="userSpaceOnUse" color-interpolation-filters="sRGB">
<feFlood flood-opacity="0" result="BackgroundImageFix"/>
<feColorMatrix in="SourceAlpha" type="matrix" values="0 0 0 0 0 0 0 0 0 0 0 0 0 0 0 0 0 0 127 0" result="hardAlpha"/>
<feOffset dy="4"/>
<feGaussianBlur stdDeviation="2"/>
<feComposite in2="hardAlpha" operator="out"/>
<feColorMatrix type="matrix" values="0 0 0 0 0 0 0 0 0 0 0 0 0 0 0 0 0 0 0.25 0"/>
<feBlend mode="normal" in2="BackgroundImageFix" result="effect1_dropShadow_824_14035"/>
<feBlend mode="normal" in="SourceGraphic" in2="effect1_dropShadow_824_14035" result="shape"/>
</filter>
</defs>
</svg>
